<?xml version="1.0" standalone="no"?>
<!DOCTYPE svg PUBLIC "-//W3C//DTD SVG 20010904//EN"
 "http://www.w3.org/TR/2001/REC-SVG-20010904/DTD/svg10.dtd">
<svg version="1.0" xmlns="http://www.w3.org/2000/svg"
 width="190.000000pt" height="148.000000pt" viewBox="0 0 190.000000 148.000000"
 preserveAspectRatio="xMidYMid meet">

<g transform="translate(0.000000,148.000000) scale(0.100000,-0.100000)"
fill="#000000" stroke="none">
<path d="M740 1165 l-176 -175 -172 0 -172 0 6 -27 c3 -16 34 -196 69 -401 46
-273 68 -379 81 -393 16 -18 39 -19 589 -19 532 0 573 1 587 18 11 11 39 147
83 402 36 212 69 393 71 403 5 16 -8 17 -167 17 l-173 0 -176 175 -176 175
-49 0 -49 0 -176 -175z m360 -50 l125 -125 -260 0 -260 0 125 125 c69 69 129
125 135 125 6 0 66 -56 135 -125z m-496 -247 c3 -13 7 -51 10 -85 l6 -63 -124
0 -124 0 -11 63 c-20 116 -29 107 114 107 121 0 125 -1 129 -22z m326 -63 l0
-85 -125 0 -125 0 0 39 c0 21 -3 59 -6 85 l-7 46 132 0 131 0 0 -85z m326 39
c-3 -26 -6 -64 -6 -85 l0 -39 -125 0 -125 0 0 85 0 85 131 0 132 0 -7 -46z
m331 29 c-3 -10 -11 -48 -17 -85 l-12 -68 -123 0 -123 0 4 43 c3 23 7 61 10
85 l5 42 130 0 c119 0 130 -1 126 -17z m-963 -240 c2 -10 6 -47 8 -83 l3 -65
-112 -3 -111 -3 -12 73 c-6 40 -13 79 -15 86 -3 9 24 12 115 12 104 0 119 -2
124 -17z m306 -68 l0 -85 -110 0 c-80 0 -112 3 -115 13 -2 6 -6 45 -10 85 l-6
72 120 0 121 0 0 -85z m305 13 c-4 -40 -8 -79 -10 -85 -3 -10 -35 -13 -115
-13 l-110 0 0 85 0 85 121 0 120 0 -6 -72z m310 60 c-2 -7 -9 -46 -15 -86
l-12 -73 -111 3 -112 3 3 65 c5 107 -4 100 132 100 91 0 118 -3 115 -12z
m-901 -260 c3 -24 7 -62 10 -85 l4 -43 -102 0 -103 0 -11 64 c-21 113 -27 106
92 106 l105 0 5 -42z m286 -43 l0 -85 -105 0 c-104 0 -105 0 -105 24 0 12 -3
51 -6 85 l-7 61 112 0 111 0 0 -85z m286 39 c-3 -26 -6 -64 -6 -85 l0 -39
-105 0 -105 0 0 85 0 85 111 0 112 0 -7 -46z m284 24 c0 -12 -5 -50 -11 -85
l-11 -63 -103 0 -103 0 4 43 c3 23 7 61 10 85 l5 42 105 0 c100 0 104 -1 104
-22z"/>
</g>
</svg>
