<?xml version="1.0" standalone="no"?>
<!DOCTYPE svg PUBLIC "-//W3C//DTD SVG 20010904//EN"
 "http://www.w3.org/TR/2001/REC-SVG-20010904/DTD/svg10.dtd">
<svg version="1.0" xmlns="http://www.w3.org/2000/svg"
 width="218.000000pt" height="198.000000pt" viewBox="0 0 218.000000 198.000000"
 preserveAspectRatio="xMidYMid meet">

<g transform="translate(0.000000,198.000000) scale(0.100000,-0.100000)"
fill="#000000" stroke="none">
<path d="M736 1765 c-73 -28 -130 -79 -167 -148 -17 -32 -23 -37 -42 -31 -71
24 -180 18 -238 -11 -51 -27 -109 -86 -137 -139 -23 -44 -27 -64 -27 -136 0
-76 3 -91 29 -138 36 -65 83 -107 153 -139 l54 -25 -3 -324 -3 -324 375 0 374
0 -56 -58 c-63 -63 -80 -96 -67 -130 11 -30 53 -46 82 -31 12 6 70 59 128 116
61 61 112 103 118 99 6 -4 11 -1 11 8 0 8 11 27 24 43 l24 28 -24 28 c-22 27
-35 97 -17 97 4 0 26 -19 50 -42 l43 -42 157 68 c188 81 311 146 351 186 60
59 86 161 63 246 -47 175 -270 242 -405 122 -48 -42 -126 -183 -206 -373 -23
-55 -46 -104 -51 -110 -5 -5 -9 73 -9 193 l0 202 63 28 c192 88 236 334 87
483 -52 52 -100 76 -173 88 -45 8 -109 1 -149 -14 -12 -5 -21 2 -33 25 -27 52
-86 110 -139 137 -63 33 -179 41 -240 18z m226 -72 c61 -33 102 -85 118 -151
l13 -48 56 29 c162 83 354 -38 354 -223 0 -71 -28 -134 -80 -181 -44 -40 -89
-58 -167 -68 -42 -5 -52 -10 -54 -28 -3 -18 2 -22 30 -25 l33 -3 0 -190 0
-190 -425 0 -425 0 0 190 0 190 33 3 c28 3 33 7 30 25 -3 19 -11 23 -66 29
-77 8 -145 41 -182 88 -166 210 66 502 303 382 l56 -28 11 44 c40 161 213 236
362 155z m818 -597 c0 -2 -24 -18 -53 -34 -65 -37 -120 -97 -211 -230 -38 -56
-71 -100 -74 -98 -6 7 103 230 136 279 37 53 99 87 160 87 23 0 42 -2 42 -4z
m80 -44 c0 -4 -93 -99 -206 -212 -114 -113 -203 -198 -199 -190 5 8 45 69 89
135 116 172 175 233 255 261 42 15 61 17 61 6z m45 -74 c-11 -50 -48 -109
-102 -159 -40 -37 -251 -186 -303 -214 -8 -4 77 85 190 199 113 113 209 206
213 206 5 0 6 -15 2 -32z m36 -149 c-18 -61 -73 -105 -216 -175 -73 -35 -139
-64 -146 -64 -7 0 37 34 97 75 145 98 199 146 237 214 l32 56 3 -35 c2 -19 -1
-51 -7 -71z m-673 -294 c2 -13 -17 -39 -56 -78 l-58 -57 -369 2 -370 3 -3 64
c-2 35 -1 70 2 78 5 11 78 13 428 11 414 -3 423 -3 426 -23z"/>
</g>
</svg>
