<?xml version="1.0" standalone="no"?>
<!DOCTYPE svg PUBLIC "-//W3C//DTD SVG 20010904//EN"
 "http://www.w3.org/TR/2001/REC-SVG-20010904/DTD/svg10.dtd">
<svg version="1.0" xmlns="http://www.w3.org/2000/svg"
 width="172.000000pt" height="156.000000pt" viewBox="0 0 172.000000 156.000000"
 preserveAspectRatio="xMidYMid meet">

<g transform="translate(0.000000,156.000000) scale(0.100000,-0.100000)"
fill="#000000" stroke="none">
<path d="M786 1292 c-25 -53 -33 -60 -85 -83 l-57 -26 -66 23 -67 22 -44 -51
-44 -52 20 -61 20 -61 -24 -58 c-21 -52 -29 -60 -81 -86 l-58 -29 0 -70 0 -70
58 -29 c52 -26 60 -34 81 -86 l24 -58 -20 -61 -20 -61 44 -52 44 -51 67 22 67
23 59 -27 c53 -24 62 -33 88 -84 l28 -56 68 0 68 0 28 58 c25 53 33 60 85 83
l57 26 66 -23 66 -22 47 48 47 48 -21 63 -21 63 22 59 c21 54 27 61 81 88 l57
29 0 70 0 70 -58 29 c-52 26 -60 34 -81 86 l-24 58 20 61 20 61 -44 52 -44 51
-67 -22 -67 -23 -61 28 c-57 26 -63 32 -84 83 l-22 56 -72 0 -72 0 -28 -58z
m182 -337 c169 -71 169 -319 0 -390 -48 -19 -118 -19 -166 0 -167 71 -169 317
-2 389 46 20 121 20 168 1z"/>
</g>
</svg>
