<?xml version="1.0" standalone="no"?>
<!DOCTYPE svg PUBLIC "-//W3C//DTD SVG 20010904//EN"
 "http://www.w3.org/TR/2001/REC-SVG-20010904/DTD/svg10.dtd">
<svg version="1.0" xmlns="http://www.w3.org/2000/svg"
 width="180.000000pt" height="160.000000pt" viewBox="0 0 180.000000 160.000000"
 preserveAspectRatio="xMidYMid meet">

<g transform="translate(0.000000,160.000000) scale(0.100000,-0.100000)"
fill="#000000" stroke="none">
<path d="M457 1305 c-101 -19 -166 -48 -208 -91 -32 -34 -33 -37 -37 -134 -5
-126 1 -161 38 -200 17 -18 30 -37 30 -42 0 -6 -13 -25 -30 -44 -36 -42 -43
-77 -38 -198 2 -76 7 -100 23 -123 44 -60 176 -103 357 -118 72 -6 77 -8 83
-33 27 -110 211 -169 495 -159 160 5 247 23 324 65 72 40 86 72 86 205 0 108
-6 133 -40 172 -10 11 -20 42 -24 68 -3 27 -15 62 -26 77 -29 40 -112 78 -212
96 l-86 16 -6 39 c-3 22 -19 53 -36 73 -28 31 -30 39 -30 112 0 125 -37 165
-186 205 -105 28 -362 35 -477 14z m451 -99 c164 -45 154 -118 -22 -157 -95
-22 -363 -19 -454 5 -195 50 -149 134 93 170 63 9 331 -3 383 -18z m-530 -265
c2 -17 -1 -31 -6 -31 -21 0 -62 43 -62 65 0 23 1 24 33 10 25 -10 33 -20 35
-44z m627 -8 c-35 -31 -45 -29 -45 7 0 25 6 33 33 45 30 13 32 12 35 -8 3 -14
-6 -30 -23 -44z m-514 17 c15 0 19 -7 19 -36 0 -34 -1 -35 -32 -32 -30 3 -33
6 -36 42 -3 32 -1 38 13 32 9 -3 25 -6 36 -6z m409 -24 c0 -35 -13 -46 -51
-46 -15 0 -19 7 -19 34 0 30 4 35 28 39 15 2 30 5 35 6 4 0 7 -14 7 -33z
m-260 -21 c0 -33 -2 -35 -35 -35 -33 0 -35 2 -35 35 0 33 2 35 35 35 33 0 35
-2 35 -35z m130 0 c0 -33 -2 -35 -35 -35 -33 0 -35 2 -35 35 0 33 2 35 35 35
33 0 35 -2 35 -35z m527 -156 c87 -22 123 -43 123 -74 0 -56 -142 -96 -345
-97 -151 -1 -243 12 -317 44 -76 33 -76 74 0 106 120 52 378 62 539 21z m-883
-9 c20 -7 26 -16 26 -40 0 -16 -4 -30 -9 -30 -18 0 -61 42 -61 61 0 22 8 23
44 9z m154 -73 c3 -37 3 -38 -25 -31 -41 10 -43 12 -43 45 0 28 2 30 33 27 29
-3 32 -6 35 -41z m-190 -146 c4 -35 -7 -39 -43 -15 -17 11 -25 26 -25 45 0 28
0 28 33 14 25 -10 33 -20 35 -44z m132 -28 c0 -33 -2 -34 -32 -31 -30 3 -33 6
-36 39 -3 35 -3 35 33 31 33 -4 35 -7 35 -39z m229 36 c25 -9 31 -16 31 -40 0
-33 -10 -36 -45 -13 -15 10 -25 26 -25 40 0 28 -2 27 39 13z m681 -13 c0 -25
-32 -56 -57 -56 -8 0 -13 12 -13 29 0 23 6 32 28 39 40 15 42 14 42 -12z
m-817 -3 c2 -5 7 -20 11 -35 6 -25 4 -28 -19 -28 -22 0 -25 4 -25 35 0 24 5
35 14 35 8 0 17 -3 19 -7z m295 -57 c3 -32 1 -38 -13 -32 -9 3 -25 6 -36 6
-15 0 -19 7 -19 36 0 34 1 35 33 32 29 -3 32 -6 35 -42z m392 9 c0 -28 -4 -35
-19 -35 -11 0 -26 -3 -35 -6 -13 -5 -16 1 -16 29 0 36 9 45 48 46 19 1 22 -4
22 -34z m-272 15 c7 0 12 -14 12 -36 0 -34 -1 -35 -32 -32 -30 3 -33 6 -36 42
-3 36 -2 38 20 32 13 -3 29 -6 36 -6z m142 -30 c0 -39 -1 -40 -35 -40 -33 0
-35 2 -35 34 0 28 4 35 23 39 46 9 47 8 47 -33z m328 -97 c-2 -18 -14 -33 -35
-46 l-33 -19 0 34 c0 28 5 36 28 45 41 16 44 15 40 -14z m-664 -9 c17 -7 22
-39 6 -49 -5 -3 -24 8 -42 24 l-33 30 27 1 c14 0 33 -3 42 -6z m536 -39 c0
-21 -5 -35 -12 -35 -7 0 -23 -3 -35 -6 -21 -6 -23 -3 -23 29 0 36 8 43 53 46
13 1 17 -7 17 -34z m-406 19 c21 -8 22 -64 2 -64 -31 0 -66 20 -66 38 0 31 25
41 64 26z m146 -39 c0 -33 -2 -35 -35 -35 -33 0 -35 2 -35 35 0 33 2 35 35 35
33 0 35 -2 35 -35z m130 0 c0 -33 -2 -35 -35 -35 -33 0 -35 2 -35 35 0 33 2
35 35 35 33 0 35 -2 35 -35z"/>
</g>
</svg>
