<?xml version="1.0" standalone="no"?>
<!DOCTYPE svg PUBLIC "-//W3C//DTD SVG 20010904//EN"
 "http://www.w3.org/TR/2001/REC-SVG-20010904/DTD/svg10.dtd">
<svg version="1.0" xmlns="http://www.w3.org/2000/svg"
 width="196.000000pt" height="162.000000pt" viewBox="0 0 196.000000 162.000000"
 preserveAspectRatio="xMidYMid meet">

<g transform="translate(0.000000,162.000000) scale(0.100000,-0.100000)"
fill="#000000" stroke="none">
<path d="M654 1149 c-197 -187 -360 -344 -362 -348 -1 -3 24 -32 56 -64 l58
-57 42 36 42 36 0 -276 0 -276 530 0 530 0 2 277 3 277 41 -36 40 -37 58 58
58 58 -94 90 c-227 220 -634 603 -639 603 -3 0 -167 -153 -365 -341z m684 -16
c169 -160 316 -301 327 -313 18 -20 18 -21 -5 -45 -13 -14 -27 -25 -31 -25 -7
0 -321 294 -516 483 l-93 90 -162 -155 c-358 -340 -442 -418 -453 -418 -17 0
-48 37 -43 51 6 17 651 629 660 626 4 -1 146 -133 316 -294z m-72 -105 c129
-123 237 -232 240 -243 2 -11 3 -137 2 -280 l-3 -260 -170 0 -170 0 0 115 0
115 75 3 c41 2 80 8 87 14 18 15 18 231 0 246 -7 6 -46 12 -87 14 -69 3 -75 5
-78 26 -4 29 -30 28 -42 -3 -9 -22 -15 -24 -87 -27 l-78 -3 -3 -119 c-2 -78 1
-123 9 -132 8 -10 34 -14 86 -14 l74 0 -3 -117 -3 -118 -290 0 -290 0 -3 273
-2 272 37 39 c97 99 443 421 453 421 6 0 117 -100 246 -222z m29 -413 l0 -90
-150 0 -150 0 -3 79 c-2 44 -1 85 2 93 5 11 36 13 153 11 l148 -3 0 -90z"/>
</g>
</svg>
