<?xml version="1.0" standalone="no"?>
<!DOCTYPE svg PUBLIC "-//W3C//DTD SVG 20010904//EN"
 "http://www.w3.org/TR/2001/REC-SVG-20010904/DTD/svg10.dtd">
<svg version="1.0" xmlns="http://www.w3.org/2000/svg"
 width="275.000000pt" height="183.000000pt" viewBox="0 0 275.000000 183.000000"
 preserveAspectRatio="xMidYMid meet">

<g transform="translate(0.000000,183.000000) scale(0.100000,-0.100000)"
fill="#000000" stroke="none">
<path d="M279 1821 c8 -5 11 -16 8 -25 -4 -9 -1 -16 6 -17 7 0 23 -2 36 -5 14
-2 28 1 33 8 6 10 10 10 18 -2 15 -23 12 -50 -5 -50 -8 0 -15 5 -15 10 0 6 -4
10 -10 10 -6 0 -6 -9 0 -25 7 -20 6 -25 -5 -25 -8 0 -15 8 -15 17 0 16 -1 16
-16 1 -10 -10 -13 -21 -8 -30 5 -7 9 -19 11 -27 1 -8 8 -18 15 -22 7 -5 8 -9
2 -9 -6 0 -21 11 -33 24 -28 30 -67 38 -87 19 -10 -11 -18 -12 -27 -5 -17 15
-88 -2 -104 -24 -7 -10 -13 -26 -13 -36 0 -10 -5 -18 -11 -18 -7 0 -9 10 -7
25 3 14 1 28 -3 31 -5 3 -9 0 -9 -5 0 -6 -6 -11 -14 -11 -7 0 -16 -14 -20 -31
-7 -37 -7 -180 1 -161 2 6 9 12 14 12 6 0 8 -4 5 -9 -4 -5 0 -12 6 -15 10 -5
10 -7 1 -12 -7 -3 -13 -13 -14 -22 -1 -10 -4 -7 -9 8 -4 14 -8 -100 -9 -258
l-1 -282 38 16 c87 37 108 42 97 24 -4 -6 -11 -8 -16 -5 -5 4 -9 -2 -9 -12 0
-15 -2 -16 -10 -3 -5 8 -10 10 -10 5 0 -6 -16 -17 -36 -24 -25 -9 -34 -17 -30
-28 4 -11 2 -13 -9 -9 -12 4 -15 -4 -15 -44 l0 -50 40 16 c23 9 56 14 78 12
20 -3 44 -2 52 2 53 26 94 40 113 40 18 0 19 2 7 10 -10 6 -11 10 -2 10 6 0
12 7 12 16 0 8 5 12 10 9 6 -4 7 -11 4 -17 -4 -6 -1 -14 6 -18 8 -5 2 -10 -20
-15 -32 -7 -32 -7 -9 -19 13 -6 29 -22 35 -35 8 -15 13 -18 16 -10 3 8 -4 22
-14 33 -10 11 -17 20 -15 21 10 8 77 -10 77 -21 0 -7 4 -16 10 -19 5 -3 8 0 5
7 -3 7 3 18 13 24 16 11 17 7 14 -45 -2 -30 -9 -59 -15 -63 -9 -6 -8 -8 2 -8
11 0 12 -3 4 -11 -6 -6 -9 -18 -6 -25 3 -9 -2 -14 -16 -14 -12 0 -21 -6 -21
-15 0 -17 11 -20 26 -6 20 20 90 17 92 -4 1 -8 3 -21 4 -27 1 -7 15 -14 32
-15 28 -1 29 0 10 9 -15 7 -20 16 -16 34 2 13 9 24 14 24 5 0 7 -4 4 -8 -3 -5
4 -19 15 -30 20 -22 35 -30 25 -13 -7 10 41 24 54 16 5 -3 19 -1 31 5 11 7 23
10 25 7 7 -7 -7 -37 -16 -32 -4 2 -5 -7 -2 -20 2 -15 0 -25 -7 -25 -7 0 -9 5
-5 13 6 9 5 9 -7 0 -8 -6 -27 -11 -44 -12 -56 -1 -64 -2 -77 -18 -11 -14 -10
-15 11 -8 22 7 23 5 17 -18 -3 -14 -9 -33 -13 -43 -5 -13 -3 -16 10 -11 21 8
23 -16 2 -33 -12 -10 -15 -10 -15 4 0 9 -5 16 -11 16 -6 0 -8 8 -4 19 3 11 -1
24 -12 32 -15 12 -16 12 -10 -5 8 -20 -10 -49 -23 -41 -5 3 -11 1 -15 -4 -8
-14 -46 26 -44 47 3 30 -1 34 -17 18 -8 -9 -13 -20 -10 -25 3 -5 -6 -16 -20
-25 -19 -13 -23 -23 -19 -39 5 -18 0 -15 -25 13 -18 19 -29 29 -25 23 6 -12
-7 -18 -28 -14 -5 1 -6 -3 -3 -8 3 -5 16 -7 29 -3 20 5 21 4 8 -12 -11 -13
-23 -16 -53 -11 -30 5 -38 4 -38 -8 0 -11 8 -14 30 -11 16 3 38 1 47 -5 15 -9
13 -10 -14 -11 -38 0 -41 -11 -11 -40 12 -11 16 -20 10 -20 -7 0 -12 -4 -12
-10 0 -5 3 -9 7 -7 5 1 10 -2 13 -8 5 -10 -70 -8 -80 2 -3 2 6 13 20 25 14 11
19 17 13 13 -7 -3 -13 -1 -13 4 0 6 -8 11 -17 11 -10 0 -14 4 -8 8 13 10 17
102 4 102 -6 0 -7 5 -3 12 12 19 -58 0 -78 -22 -24 -26 -27 -25 -21 3 4 21 4
21 -10 4 -8 -10 -23 -19 -33 -21 -11 -3 -27 -7 -36 -11 -10 -4 -18 -3 -18 3 0
14 40 82 48 82 4 0 12 10 18 23 6 12 28 53 48 90 40 77 43 87 20 87 -8 0 -13
-4 -10 -8 2 -4 -7 -7 -21 -6 -30 1 -41 31 -15 42 9 4 18 13 20 20 2 10 -2 10
-17 2 -11 -5 -23 -15 -26 -20 -4 -6 -11 -7 -17 -4 -7 5 -8 2 -2 -7 5 -8 9 -16
10 -19 12 -38 18 -49 26 -44 6 4 5 -3 -1 -15 -7 -12 -9 -26 -6 -31 9 -14 -34
-80 -51 -80 -9 0 -12 -4 -9 -10 6 -9 -7 -14 -27 -11 -4 0 -7 -104 -5 -232 l2
-232 179 -3 179 -2 -7 70 c-8 90 -2 111 35 133 23 13 35 14 50 6 25 -13 20
-33 -9 -37 -19 -3 -22 -10 -22 -50 0 -56 14 -86 30 -62 6 10 6 16 0 18 -16 6
-11 32 5 32 8 0 15 -7 15 -16 0 -8 15 -28 32 -45 l32 -29 -29 0 c-23 0 -27 -3
-15 -10 15 -10 1060 -15 1060 -5 0 2 -12 30 -27 62 -15 32 -26 61 -25 66 1 4
-3 7 -10 7 -9 0 -9 3 0 12 8 8 15 8 27 -2 8 -7 15 -9 15 -4 0 14 -13 30 -35
42 -18 10 -16 11 18 12 33 0 37 3 37 25 0 31 -15 33 -24 3 l-6 -23 -14 25
c-13 22 -12 26 0 33 9 5 21 7 27 4 7 -3 13 3 13 14 0 11 -4 19 -8 19 -4 0 -8
-4 -8 -10 0 -5 -12 -10 -26 -10 -15 0 -24 5 -22 12 6 16 62 31 66 18 4 -12 29
-13 36 -1 3 4 -3 18 -13 30 -18 20 -20 21 -29 5 -7 -12 -14 -14 -28 -7 -36 19
-74 24 -72 11 5 -23 -36 -14 -57 12 -11 13 -18 26 -17 29 11 13 -25 17 -44 4
-13 -8 -29 -13 -36 -10 -8 4 -5 8 10 12 12 4 22 11 22 16 0 14 29 11 67 -8 29
-13 36 -14 43 -2 7 11 10 10 16 -4 5 -14 62 -47 80 -47 14 0 0 20 -17 25 -11
4 -24 18 -30 31 -5 14 -13 23 -18 20 -12 -8 -21 18 -11 34 6 10 9 9 14 -1 3
-8 5 -6 3 6 -2 14 -10 20 -32 21 -51 2 -55 3 -55 22 0 35 -16 47 -45 34 -34
-15 -44 -9 -37 23 3 19 8 23 17 15 15 -13 49 15 39 32 -5 7 -1 7 12 0 14 -8
23 -7 36 5 16 14 18 13 28 -11 13 -35 13 -49 -2 -64 -14 -14 -32 -16 -23 -3 3
5 0 13 -6 16 -7 5 -10 1 -7 -11 2 -10 14 -21 28 -25 l25 -6 -25 -5 c-14 -3 -4
-4 23 -1 37 3 47 0 47 -11 0 -8 4 -17 10 -21 5 -3 5 7 -1 27 -21 66 -20 65
-30 43 -8 -18 -9 -17 -5 4 3 13 -1 33 -9 45 -9 13 -11 27 -6 35 5 7 6 22 4 32
-3 11 0 19 6 19 7 0 10 -4 7 -9 -3 -5 3 -11 14 -14 21 -5 28 7 10 18 -5 3 -10
13 -10 22 0 12 5 11 20 -7 11 -13 20 -29 20 -37 0 -8 7 -28 16 -45 11 -22 13
-33 5 -38 -8 -4 -9 -14 -2 -31 5 -14 7 -37 4 -51 -3 -16 6 -48 26 -88 17 -35
29 -65 26 -68 -3 -3 -1 -10 4 -16 16 -19 39 -96 31 -101 -5 -3 -6 -21 -3 -40
5 -34 -8 -48 -22 -25 -3 6 -16 9 -28 9 -17 -1 -18 -2 -5 -6 24 -6 51 -66 51
-114 l0 -39 569 0 568 0 0 216 c0 178 -3 218 -15 230 -13 14 -15 14 -15 1 0
-9 6 -18 13 -20 6 -3 2 -6 -11 -6 -13 -1 -21 3 -18 8 3 4 -3 16 -13 25 -23 21
-33 10 -34 -40 -1 -36 -11 -45 -21 -18 -5 13 -9 14 -21 4 -7 -6 -11 -18 -8
-26 3 -8 1 -15 -3 -15 -64 -9 -62 -10 -66 30 -3 37 2 75 17 116 6 18 6 19 -5
2 -11 -17 -14 -17 -35 -3 -30 20 -45 20 -45 1 0 -8 -4 -15 -9 -15 -6 0 -3 -12
5 -27 20 -40 18 -46 -16 -41 -20 3 -35 -1 -43 -11 -10 -12 -9 -14 7 -8 15 6
17 4 12 -15 -3 -13 -6 -36 -7 -53 l-1 -30 -13 30 c-17 36 -19 82 -4 87 7 2 5
13 -4 30 -10 21 -17 24 -25 16 -9 -9 -12 -8 -12 5 0 9 -5 17 -11 17 -8 0 -9
-11 -5 -32 l6 -32 -24 24 c-20 17 -23 27 -16 41 6 10 10 21 10 26 -1 4 -8 -4
-16 -19 -8 -16 -20 -28 -25 -28 -7 0 -5 10 5 25 22 33 21 35 -13 25 -24 -7
-31 -5 -39 14 -10 20 -11 20 -11 -7 -1 -24 -3 -26 -20 -16 -20 13 -56 5 -46
-11 3 -5 2 -10 -4 -10 -5 0 -12 10 -14 23 -3 16 -5 14 -6 -10 0 -17 -7 -34
-13 -36 -8 -3 -5 -6 5 -6 10 -1 15 -5 12 -11 -12 -19 -24 -10 -34 23 l-9 32
-1 -33 c-1 -28 -3 -31 -15 -20 -8 7 -11 17 -8 22 3 5 0 6 -6 2 -7 -4 -12 -3
-12 3 0 6 9 15 20 21 13 7 20 21 20 40 0 34 23 41 39 13 6 -10 11 -13 11 -8 0
17 -30 55 -43 55 -11 0 -47 34 -47 44 0 2 7 7 16 10 8 3 13 2 10 -3 -3 -4 1
-17 10 -27 14 -18 15 -18 9 4 -9 30 4 28 43 -7 27 -26 32 -27 32 -11 0 10 6
20 13 23 10 4 10 7 0 18 -9 9 -13 9 -13 1 0 -6 -7 -9 -15 -6 -8 4 -15 13 -15
21 0 8 5 11 10 8 18 -11 31 5 20 25 -7 13 -7 21 0 25 13 8 13 25 -1 25 -5 0
-7 -5 -3 -12 4 -7 3 -8 -5 -4 -8 6 -9 12 -2 20 7 9 7 17 -2 26 -10 12 -9 12 6
1 9 -7 17 -10 17 -6 0 4 7 2 15 -5 10 -9 15 -9 15 -1 0 6 -4 11 -10 11 -5 0
-10 8 -10 18 0 10 -6 24 -12 31 -11 11 -10 13 2 9 8 -3 20 -14 26 -26 9 -19
11 -19 22 -4 7 9 10 12 7 5 -3 -6 0 -15 6 -19 8 -5 9 -3 4 6 -5 8 -3 11 5 8
23 -7 23 -29 0 -35 -13 -3 -19 -11 -16 -19 10 -26 -4 -45 -25 -33 -14 7 -19 6
-19 -3 0 -7 18 -21 40 -30 37 -15 40 -15 41 0 0 11 2 12 6 4 2 -6 9 -10 14 -6
5 3 9 1 9 -5 0 -5 -6 -12 -13 -14 -9 -4 -9 -6 0 -6 6 -1 15 4 18 9 4 7 17 4
36 -7 25 -15 31 -16 38 -4 12 19 3 41 -18 41 -13 0 -13 2 -3 9 19 11 -33 28
-72 23 -23 -3 -26 -6 -15 -14 12 -8 12 -9 0 -6 -16 5 -25 44 -12 53 5 3 12 1
16 -5 11 -18 23 -10 17 12 -4 15 -2 19 7 13 14 -8 -13 51 -34 75 -8 8 -15 20
-17 25 -2 6 -7 9 -11 7 -5 -1 -5 2 -2 8 4 6 13 9 21 6 15 -6 38 27 26 38 -3 4
2 4 12 0 13 -5 17 -4 13 3 -9 15 68 40 118 39 37 -1 40 -3 37 -26 -2 -14 -7
-29 -12 -33 -10 -11 -1 -49 10 -42 5 3 6 -4 3 -14 -4 -15 3 -22 31 -32 19 -7
33 -15 31 -18 -2 -4 3 -14 10 -24 12 -16 13 -16 18 2 3 11 2 21 -2 23 -8 4
-52 78 -46 78 8 0 42 -36 54 -56 6 -11 11 -13 11 -6 0 21 -71 87 -80 73 -5 -9
-9 -5 -13 11 -9 33 -8 48 2 48 5 0 7 -10 4 -22 -4 -18 -3 -20 6 -12 7 6 13 18
14 25 2 8 6 19 9 25 4 5 5 19 4 30 -2 15 -11 19 -44 19 -22 0 -38 3 -35 8 2 4
-5 7 -16 7 -12 0 -21 -5 -21 -11 0 -5 6 -7 13 -3 8 5 8 2 -2 -9 -14 -18 -36
-24 -26 -7 3 5 -3 15 -15 22 -25 16 -26 28 -1 28 27 0 34 15 14 31 -15 12 -16
12 -10 -4 5 -13 3 -17 -5 -14 -7 2 -23 -7 -34 -21 -29 -32 -59 -26 -59 12 0
40 -20 43 -35 7 -7 -17 -17 -28 -22 -24 -6 3 -8 0 -6 -8 3 -8 10 -13 16 -12
29 7 -6 -31 -44 -48 -34 -14 -44 -24 -44 -41 0 -17 -9 -27 -32 -37 -18 -8 -39
-13 -47 -12 -7 1 -11 -3 -9 -10 4 -12 68 -19 68 -8 0 4 11 10 25 13 14 4 23
11 20 15 -3 5 2 16 10 24 8 9 15 20 15 26 0 6 3 10 8 9 20 -4 63 17 77 38 19
29 35 31 35 4 0 -12 -7 -20 -17 -20 -28 -1 -54 -25 -47 -44 5 -12 2 -15 -10
-10 -9 3 -13 10 -10 15 3 5 -2 6 -11 3 -14 -6 -14 -8 2 -21 17 -13 16 -14 -9
-10 -15 2 -25 0 -22 -4 3 -5 12 -9 19 -9 9 0 12 -6 8 -15 -3 -9 -1 -15 5 -13
5 2 22 -10 36 -27 22 -25 24 -31 10 -34 -10 -1 -21 4 -26 13 -5 9 -14 16 -19
16 -6 0 -7 -6 -3 -12 4 -8 3 -9 -2 -5 -5 5 -9 14 -10 20 0 7 -2 20 -2 30 -2
19 -27 23 -37 7 -4 -6 -1 -17 5 -25 10 -12 10 -15 -2 -15 -8 0 -19 5 -24 10
-7 7 -19 4 -36 -9 -19 -15 -28 -17 -36 -9 -9 9 -12 8 -12 -4 0 -9 -5 -20 -12
-24 -7 -4 -8 -3 -4 4 5 8 2 10 -9 6 -12 -5 -13 -9 -4 -20 14 -17 7 -27 -21
-31 -14 -2 -20 3 -20 15 0 14 2 15 10 2 8 -13 10 -12 10 3 0 19 -15 23 -26 6
-4 -7 -11 -2 -18 12 -6 12 -18 25 -26 27 -13 5 -13 3 -1 -11 7 -10 10 -17 7
-17 -4 0 -1 -7 8 -15 8 -9 13 -22 10 -30 -8 -19 -24 -9 -24 13 -1 16 -1 16
-10 0 -6 -10 -7 -25 -1 -40 6 -13 10 -17 11 -8 0 11 6 8 21 -9 22 -26 18 -41
-6 -21 -8 7 -22 10 -30 6 -11 -4 -15 2 -15 23 0 16 -7 45 -15 64 -18 43 -18
47 -5 47 6 0 10 -6 10 -14 0 -8 4 -17 8 -20 10 -6 9 25 -2 42 -4 6 -16 12 -27
12 -10 0 -19 4 -19 9 0 15 18 23 25 11 10 -16 25 -12 19 5 -3 8 0 17 8 20 16
6 13 65 -4 65 -5 0 -6 -6 -2 -12 5 -9 2 -9 -9 1 -20 16 -23 1 -6 -31 12 -23 4
-37 -12 -21 -6 6 -18 9 -27 6 -9 -4 -13 -2 -9 4 4 6 -4 14 -18 17 -18 5 -25
13 -25 32 0 17 4 23 13 19 6 -4 1 2 -13 13 -13 11 -28 18 -32 16 -4 -3 -12 5
-18 16 -6 11 -16 20 -22 20 -6 0 -5 -7 3 -17 12 -16 12 -17 -2 -6 -9 7 -18 10
-21 8 -3 -3 -5 7 -4 22 1 22 -4 28 -19 28 -11 0 -19 -6 -18 -12 2 -7 -2 -13
-8 -13 -5 0 -9 8 -8 18 1 9 1 24 0 32 -1 13 -2 13 -12 0 -7 -10 -9 -11 -7 -2
2 8 7 13 12 12 5 -1 13 4 18 12 7 10 8 9 4 -4 -4 -13 0 -18 14 -18 26 0 25 4
-7 35 -17 15 -22 25 -14 25 8 0 11 3 8 7 -4 3 -1 13 6 21 10 13 9 15 -5 9 -12
-4 -18 -2 -18 8 0 17 -19 21 -21 5 -4 -32 -2 -45 8 -43 14 3 11 -23 -6 -40
-10 -9 -11 -9 -6 3 3 9 -4 26 -15 38 -22 23 -18 45 13 70 18 16 81 -40 64 -57
-8 -8 -6 -11 10 -11 22 0 50 -26 40 -37 -4 -3 1 -12 11 -20 9 -8 11 -12 5 -8
-9 4 -11 1 -7 -9 3 -9 10 -13 15 -10 5 3 9 0 9 -6 0 -6 10 -8 23 -5 30 8 77
-10 77 -29 0 -10 6 -13 15 -10 8 4 15 10 15 16 0 5 -5 6 -10 3 -6 -3 -10 1
-10 9 0 23 26 20 44 -5 15 -22 76 -36 76 -18 0 5 -7 9 -15 9 -17 0 -10 26 15
53 14 14 17 15 17 2 0 -8 -4 -15 -9 -15 -5 0 -6 -5 -2 -12 5 -7 3 -8 -6 -3 -8
5 -11 3 -8 -6 3 -8 10 -14 15 -14 6 0 15 -3 19 -8 4 -4 2 -7 -4 -7 -7 0 -12
-6 -12 -14 0 -8 -5 -16 -12 -18 -9 -3 -9 -6 0 -12 7 -4 12 -2 12 3 0 17 28 13
38 -6 9 -15 11 -14 21 4 9 17 8 20 -6 19 -26 -2 -28 30 -3 37 15 4 20 2 16 -8
-2 -7 4 -15 17 -19 30 -8 31 -3 2 28 -14 15 -25 22 -25 17 0 -6 -9 -11 -20
-11 -25 0 -25 7 -2 45 24 41 18 63 -15 57 -20 -4 -24 -2 -18 8 6 10 4 12 -7 7
-12 -4 -15 0 -13 19 2 17 -3 24 -16 24 -10 0 -22 6 -26 14 -10 17 -69 26 -66
10 1 -7 -9 -9 -25 -7 -15 3 -23 1 -17 -4 12 -9 13 -28 3 -39 -4 -4 -10 1 -14
10 -3 9 -11 13 -16 10 -6 -4 -13 -3 -17 2 -3 5 -18 17 -32 26 -24 16 -28 16
-50 0 -22 -15 -23 -15 -11 1 8 9 11 21 7 27 -8 13 11 13 37 -1 23 -13 31 -8
22 14 -5 14 -44 18 -74 6 -3 -1 -9 -1 -14 0 -5 1 -3 -5 4 -14 15 -19 9 -28
-14 -19 -9 3 -13 11 -9 18 4 6 -2 4 -12 -4 -10 -8 -16 -10 -12 -4 4 7 -2 14
-15 17 -30 8 -43 -2 -21 -18 10 -7 14 -17 10 -21 -4 -5 -19 4 -33 19 -30 32
-44 35 -39 7 2 -11 0 -18 -6 -15 -16 10 -10 37 10 42 12 3 17 11 14 19 -3 8
-10 11 -16 7 -6 -4 -7 -1 -3 6 5 7 14 10 22 7 18 -7 18 2 -1 20 -15 16 -40 10
-30 -7 8 -12 -2 -11 -26 1 -13 7 -19 7 -19 0 0 -5 6 -10 13 -10 17 0 18 -31 2
-46 -8 -9 -16 -8 -30 2 -10 8 -22 14 -27 14 -15 0 -7 -15 18 -33 18 -14 28
-16 38 -8 9 8 13 7 13 -4 0 -8 -6 -15 -14 -15 -17 0 -17 -17 -1 -22 8 -3 3
-10 -11 -17 -22 -12 -23 -12 -19 7 4 15 2 19 -8 15 -8 -3 -14 -9 -14 -14 0 -5
-7 -9 -17 -9 -14 0 -14 2 2 20 10 11 24 20 32 20 12 0 12 2 1 14 -8 8 -23 15
-33 17 -10 2 -20 11 -22 19 -4 13 -3 13 6 0 15 -21 13 -8 -4 34 -8 20 -20 36
-25 36 -16 0 -11 -22 8 -37 15 -12 13 -12 -11 -2 -15 7 -25 14 -22 17 3 3 -1
12 -8 20 -10 13 -9 14 3 8 8 -4 4 2 -10 13 -14 11 -30 21 -36 21 -12 0 -30
-18 -36 -35 -1 -5 -7 -9 -11 -7 -5 1 -6 -2 -2 -8 3 -5 -1 -10 -9 -10 -9 0 -16
-4 -16 -10 0 -5 5 -10 10 -10 7 0 7 -7 0 -21 -7 -11 -9 -27 -6 -36 4 -9 1 -13
-6 -11 -7 3 -15 15 -19 29 -5 19 -7 16 -10 -18 -5 -45 -1 -51 19 -31 20 20 13
-2 -8 -24 -11 -12 -20 -34 -20 -50 0 -19 -5 -28 -16 -28 -10 0 -14 -5 -10 -16
3 -8 2 -13 -3 -10 -5 3 -12 -2 -16 -12 -6 -16 -7 -16 -21 2 -8 11 -15 17 -15
13 -1 -7 -4 -17 -8 -34 -2 -5 -6 1 -11 12 l-9 20 0 -20 c-1 -17 -3 -17 -11 -5
-14 22 -12 40 5 40 17 0 19 12 5 26 -11 11 5 74 18 74 15 1 70 57 76 78 9 29
-19 31 -34 2 -14 -27 -29 -25 -23 3 4 18 3 19 -6 7 -7 -9 -11 -10 -11 -3 0 6
5 15 11 18 6 4 8 13 5 21 -3 8 -1 14 4 14 6 0 10 -9 10 -20 0 -11 5 -20 10
-20 6 0 10 8 10 18 0 14 2 15 10 2 9 -13 11 -13 20 0 8 13 10 13 10 -2 0 -24
19 -32 27 -11 4 10 11 22 17 26 7 5 2 7 -11 4 -16 -3 -23 0 -23 9 0 8 6 14 13
14 9 0 8 3 -2 9 -8 5 -10 14 -6 22 6 11 5 12 -6 2 -7 -7 -22 -13 -34 -13 -19
0 -19 1 4 19 l23 18 -31 22 c-33 24 -61 20 -40 -5 9 -11 8 -14 -5 -14 -9 0
-15 3 -14 8 2 12 -14 42 -23 42 -5 0 -9 -9 -9 -19 0 -26 -16 -35 -25 -14 -3
10 -1 19 4 21 19 6 12 22 -10 22 -33 0 -51 -24 -39 -54 5 -14 17 -26 25 -26 9
0 13 -5 10 -10 -3 -6 1 -17 9 -26 17 -17 22 -49 6 -39 -5 3 -10 2 -10 -4 0 -5
4 -11 10 -13 6 -2 6 -9 0 -17 -6 -11 -12 -7 -23 20 -9 21 -11 38 -5 45 10 14
-12 39 -42 49 -15 5 -19 12 -15 26 10 29 -9 23 -22 -8 -12 -28 -8 -73 7 -73
15 0 17 -50 4 -67 -12 -15 -13 -15 -8 -2 4 12 -2 18 -21 23 -14 4 -23 11 -19
17 3 6 -4 20 -16 31 -18 17 -24 18 -31 7 -6 -10 -9 -10 -9 -1 0 6 -9 12 -20
12 -20 0 -24 -13 -22 -85 0 -28 -1 -29 -14 -11 -18 25 -32 12 -16 -14 9 -15 9
-20 0 -20 -6 0 -9 -3 -6 -6 4 -3 17 0 30 7 12 6 20 9 16 5 -3 -4 0 -19 7 -33
8 -15 12 -30 9 -34 -3 -5 4 -14 15 -21 19 -12 19 -13 -10 -25 -17 -7 -28 -17
-25 -22 3 -5 -2 -15 -11 -22 -15 -13 -16 -11 -10 12 5 18 2 31 -9 40 -14 12
-14 14 2 20 16 5 14 9 -14 23 -32 16 -35 16 -52 1 -10 -9 -16 -23 -13 -31 11
-28 -36 -15 -54 16 -15 26 -43 42 -43 25 0 -14 44 -64 52 -59 4 3 8 -5 8 -18
0 -18 -2 -20 -10 -8 -6 10 -10 11 -10 3 0 -7 -7 -13 -16 -13 -11 0 -15 6 -11
20 3 11 2 20 -3 20 -4 0 -11 11 -14 24 -4 18 -15 25 -41 30 -40 8 -56 33 -34
50 19 14 20 56 2 49 -7 -3 -13 0 -13 7 0 7 -8 9 -21 5 -14 -5 -19 -3 -15 3 4
6 -6 18 -21 26 -15 8 -23 15 -17 16 7 0 14 6 17 14 4 9 0 12 -12 9 -11 -3 -26
5 -38 21 -11 14 -24 22 -28 18 -5 -4 -5 -1 -1 6 4 7 12 10 17 7 5 -4 14 -3 20
1 8 4 4 13 -12 25 -25 18 -22 31 9 34 9 1 25 6 35 10 10 4 21 5 24 1 3 -3 12
-1 19 4 8 8 22 1 49 -25 41 -38 50 -42 58 -22 3 7 28 19 56 27 28 7 51 17 51
22 0 12 62 10 99 -3 37 -13 39 -24 7 -41 -21 -11 -23 -15 -11 -31 11 -15 13
-16 19 -2 6 18 32 20 42 3 5 -8 2 -9 -10 -5 -13 5 -17 2 -14 -11 2 -10 13 -17
27 -17 14 0 26 -6 29 -13 8 -25 22 -11 22 23 0 25 -6 37 -22 46 -13 7 -26 17
-30 23 -5 7 -8 4 -8 -6 0 -10 -7 -18 -15 -18 -13 0 -13 3 -3 21 11 18 20 20
62 16 38 -3 54 0 69 13 10 10 33 21 51 24 20 4 41 18 55 36 12 17 28 30 35 30
7 0 19 6 25 14 17 20 114 -8 123 -36 3 -8 13 -5 32 10 23 17 32 19 48 11 12
-6 57 -12 101 -14 64 -2 83 -7 100 -23 19 -19 22 -20 49 -6 16 8 33 12 38 9 5
-3 14 4 20 15 14 25 84 62 104 54 9 -3 25 -21 37 -40 17 -29 23 -32 40 -23 11
5 43 9 72 7 52 -3 56 -6 81 -63 3 -6 7 -6 13 1 16 22 53 34 104 36 43 0 56 -3
70 -21 14 -17 16 -28 7 -54 -5 -17 -12 -40 -15 -49 -7 -22 67 -43 117 -33 19
4 47 9 62 12 22 4 34 -1 58 -27 16 -18 30 -41 30 -51 0 -25 27 -24 40 2 15 27
60 45 133 54 48 6 61 4 77 -10 11 -10 20 -24 20 -31 0 -20 -115 -104 -142
-104 -13 1 -34 7 -48 15 -34 19 -40 18 -40 -4 0 -11 11 -28 23 -38 52 -40 59
-93 13 -93 -14 0 -30 -10 -40 -25 -16 -24 -16 -26 1 -32 33 -12 93 -85 93
-113 0 -18 9 -31 29 -43 34 -20 71 -75 71 -105 0 -12 10 -28 22 -36 19 -14 23
-26 25 -89 1 -39 5 -94 8 -122 18 -140 23 -100 24 182 1 166 -3 304 -8 307 -5
3 -12 26 -15 50 l-7 45 -47 3 c-43 3 -47 5 -50 31 -6 47 24 70 80 65 l48 -5 0
283 0 284 -1242 0 c-724 0 -1237 -4 -1229 -9z m611 -151 c0 -5 -2 -10 -4 -10
-3 0 -8 5 -11 10 -3 6 -1 10 4 10 6 0 11 -4 11 -10z m-850 -100 c0 -5 -5 -10
-11 -10 -5 0 -7 5 -4 10 3 6 8 10 11 10 2 0 4 -4 4 -10z m40 -10 c0 -5 -4 -10
-10 -10 -5 0 -10 5 -10 10 0 6 5 10 10 10 6 0 10 -4 10 -10z m305 -70 c9 0 13
-4 10 -10 -11 -18 -41 -11 -66 16 l-24 27 32 -17 c18 -9 39 -16 48 -16z m-352
0 c-3 -11 -9 -20 -14 -20 -5 0 -9 9 -9 20 0 11 6 20 14 20 9 0 12 -7 9 -20z
m957 -70 c0 -19 -11 -26 -23 -14 -8 8 3 34 14 34 5 0 9 -9 9 -20z m90 4 c0 -8
-4 -12 -10 -9 -5 3 -10 10 -10 16 0 5 5 9 10 9 6 0 10 -7 10 -16z m-730 -2 c0
-13 -12 -22 -22 -16 -10 6 -1 24 13 24 5 0 9 -4 9 -8z m60 -7 c-7 -8 -20 -14
-29 -14 -13 1 -13 2 2 6 9 2 15 9 12 14 -4 5 1 9 11 9 13 0 14 -3 4 -15z m714
-10 c3 -8 1 -15 -4 -15 -6 0 -10 7 -10 15 0 8 2 15 4 15 2 0 6 -7 10 -15z m53
-17 c-3 -8 -6 -5 -6 6 -1 11 2 17 5 13 3 -3 4 -12 1 -19z m-1107 -9 c0 -5 -9
-9 -20 -9 -19 0 -26 11 -14 23 8 8 34 -3 34 -14z m44 5 c8 -21 -2 -33 -13 -15
-7 11 -10 11 -14 0 -3 -8 -6 -4 -6 9 -1 26 24 30 33 6z m1180 -52 c-8 -43 -24
-51 -24 -11 0 20 3 39 6 42 13 13 23 -4 18 -31z m-1127 16 c18 -7 33 -16 33
-21 0 -5 -8 -6 -17 -2 -10 4 -30 10 -45 13 -15 2 -25 8 -22 13 7 12 11 11 51
-3z m924 -31 c-16 -16 -26 0 -10 19 9 11 15 12 17 4 2 -6 -1 -17 -7 -23z
m-1021 -1 c0 -3 -4 -8 -10 -11 -5 -3 -10 -1 -10 4 0 6 5 11 10 11 6 0 10 -2
10 -4z m45 -17 c-10 -15 -25 -10 -19 6 4 8 10 12 15 9 5 -3 7 -10 4 -15z
m1278 -21 c-2 -5 -11 -8 -19 -8 -8 0 -14 -6 -14 -13 0 -18 -30 -58 -39 -52
-12 7 22 74 38 75 8 0 11 6 7 16 -3 8 -2 12 4 9 6 -3 10 0 11 7 0 7 4 4 8 -7
5 -11 7 -23 4 -27z m-333 22 c0 -5 -4 -10 -10 -10 -5 0 -10 5 -10 10 0 6 5 10
10 10 6 0 10 -4 10 -10z m37 -22 c-3 -8 -6 -5 -6 6 -1 11 2 17 5 13 3 -3 4
-12 1 -19z m-157 -13 c0 -14 -2 -25 -4 -25 -2 0 -6 11 -8 25 -3 14 -1 25 3 25
5 0 9 -11 9 -25z m67 -13 c-14 -17 -22 0 -12 26 5 14 7 14 15 2 5 -9 4 -20 -3
-28z m-541 -8 c9 4 14 -2 15 -17 l2 -22 4 22 c6 31 33 39 33 9 0 -34 -10 -56
-25 -56 -16 0 -47 35 -38 43 3 4 2 7 -4 7 -15 0 -25 -62 -13 -74 7 -7 10 -4
10 7 0 22 6 21 29 -2 17 -17 18 -20 2 -24 -9 -2 -17 -14 -18 -26 -1 -17 6 -24
43 -33 l44 -12 -37 -18 c-41 -20 -44 -21 -40 -10 1 4 -2 8 -8 9 -6 0 -9 -3 -8
-8 2 -5 -7 -9 -20 -9 -16 0 -18 -3 -9 -9 11 -7 10 -10 -3 -15 -44 -17 -48 -5
-11 33 38 39 42 65 8 55 -15 -5 -15 -4 1 6 13 9 15 15 7 25 -11 14 -10 105 3
105 4 0 8 12 8 28 2 24 2 25 6 4 3 -15 10 -22 19 -18z m843 -7 c-7 -24 -6 -35
5 -42 11 -9 11 -12 0 -23 -16 -15 -18 -48 -4 -57 9 -5 32 34 34 59 2 19 35 31
53 20 22 -13 46 -7 36 9 -8 13 28 -12 39 -28 5 -6 8 -5 8 3 0 7 5 10 10 7 17
-11 11 -23 -12 -27 -19 -2 -22 -8 -20 -33 3 -29 3 -29 -13 -10 -9 11 -13 14
-9 6 5 -11 3 -13 -12 -8 -18 7 -18 6 -1 -7 24 -18 22 -24 -19 -62 -22 -22 -37
-46 -41 -69 -3 -22 -11 -35 -20 -35 -11 0 -13 5 -8 18 4 9 8 25 9 35 2 10 8
22 15 26 10 7 10 12 0 29 -11 17 -11 24 -1 34 6 6 12 21 12 33 0 16 2 17 10 5
7 -11 11 -9 19 13 14 35 14 44 1 52 -5 3 -16 -10 -24 -28 -7 -19 -22 -44 -32
-56 -11 -12 -21 -33 -24 -48 -3 -14 -11 -28 -19 -31 -8 -3 -11 0 -7 7 5 7 1 9
-8 5 -9 -3 -16 -10 -16 -15 0 -5 -5 -9 -11 -9 -7 0 -10 12 -7 30 3 17 0 30 -5
30 -5 0 -7 7 -4 15 4 8 2 17 -3 20 -18 11 -11 27 7 17 24 -14 48 11 34 35 -9
17 -10 17 -16 1 -8 -19 -34 -25 -36 -8 -1 6 -2 16 -3 23 -2 13 41 88 57 99 23
14 35 -3 26 -35z m94 12 c-6 -6 -9 -18 -6 -25 3 -8 1 -14 -5 -14 -11 0 -23 36
-14 44 3 3 12 6 21 6 11 0 12 -3 4 -11z m179 -35 c2 -19 0 -37 -4 -40 -4 -3
-8 2 -8 11 0 12 -6 15 -21 10 -19 -6 -21 -4 -16 14 3 12 1 19 -4 15 -5 -3 -9
2 -9 10 0 21 9 20 33 -1 19 -17 19 -17 12 6 -4 15 -3 21 3 17 5 -3 12 -22 14
-42z m-572 0 c0 -8 -5 -12 -11 -8 -8 4 -9 -1 -4 -16 5 -15 4 -20 -4 -16 -22
14 -13 46 17 55 1 1 2 -6 2 -15z m-600 -26 c0 -4 -4 -8 -9 -8 -6 0 -12 4 -15
8 -3 5 1 9 9 9 8 0 15 -4 15 -9z m127 -20 c-3 -7 -5 -2 -5 12 0 14 2 19 5 13
2 -7 2 -19 0 -25z m-184 0 c-18 -5 -33 -16 -36 -28 -3 -11 -11 -20 -19 -20
-10 0 -10 2 2 10 8 5 12 11 9 14 -5 5 -31 -2 -111 -30 -21 -8 -38 -12 -38 -10
0 7 61 36 74 36 7 0 39 11 71 24 33 12 64 21 70 18 5 -3 -5 -10 -22 -14z
m1243 -23 c-3 -8 -2 -15 2 -15 4 0 8 -24 9 -53 2 -36 -1 -47 -7 -37 -9 13 -10
13 -11 0 -2 -40 -11 -75 -19 -78 -5 -2 -6 -10 -3 -18 4 -12 8 -12 19 3 11 16
12 13 9 -24 -2 -23 0 -45 4 -48 5 -3 7 5 3 17 -3 13 -1 19 5 15 7 -5 14 12 18
43 6 41 10 49 21 40 7 -7 17 -9 22 -6 5 3 17 -9 26 -27 15 -31 16 -31 16 -7 1
24 2 24 10 4 4 -12 16 -24 26 -28 16 -6 16 -7 -2 -20 -10 -8 -22 -12 -26 -10
-10 6 -38 -37 -39 -61 0 -20 0 -20 -9 0 l-9 20 0 -20 c-1 -17 -4 -16 -20 8
l-18 29 -8 -29 -8 -28 -7 25 c-8 24 -8 24 -9 3 -1 -13 -7 -23 -16 -23 -12 0
-15 -13 -15 -57 0 -55 -1 -57 -16 -35 -10 15 -14 32 -10 48 6 21 3 27 -14 31
-13 3 -19 11 -16 19 3 8 -1 14 -10 14 -8 0 -17 7 -20 15 -4 8 -12 15 -20 15
-8 0 -14 7 -14 15 0 22 -31 18 -37 -5 -7 -25 -11 -25 -43 0 l-25 20 28 0 c15
0 30 6 33 13 3 8 18 14 35 14 16 0 25 -3 20 -7 -14 -8 28 -55 56 -64 20 -6 21
-4 13 28 -4 21 -4 38 3 45 5 5 7 18 3 28 -7 17 -8 17 -17 1 -15 -27 -39 -22
-39 7 0 24 15 35 22 16 2 -5 9 -3 15 5 11 11 7 14 -22 20 -45 8 -49 16 -25 45
l19 24 -6 -24 c-4 -17 -3 -22 5 -17 7 4 12 2 12 -4 0 -6 5 -8 10 -5 6 4 8 10
5 15 -3 4 0 10 6 12 6 2 12 16 12 31 2 29 17 38 17 10 0 -15 2 -16 10 -3 5 8
7 22 5 31 -3 10 3 20 17 27 31 14 31 14 24 -3z m349 -25 c-10 -11 -30 -20 -44
-20 l-25 0 22 16 c12 8 26 13 31 9 5 -3 12 -1 16 5 3 5 9 10 12 10 3 0 -2 -9
-12 -20z m-1315 5 c0 -3 -14 -24 -31 -47 -18 -26 -26 -44 -19 -46 6 -2 -1 -10
-15 -18 -33 -17 -49 -18 -39 -3 3 6 0 15 -7 21 -12 7 -11 9 1 7 41 -4 50 1 44
25 -4 18 1 28 22 45 25 20 44 27 44 16z m228 -7 c-3 -7 -13 -15 -23 -16 -15
-4 -16 -2 -4 12 17 19 32 21 27 4z m38 -20 c-5 -34 -25 -34 -21 -1 2 15 4 29
4 31 1 2 5 0 11 -3 5 -3 8 -16 6 -27z m957 6 c-2 -7 -11 -10 -19 -7 -17 6 -11
20 10 20 8 0 12 -6 9 -13z m-1744 -11 c0 -11 -3 -13 -6 -5 -2 6 -9 10 -14 6
-5 -3 -9 0 -9 5 0 6 7 11 15 11 8 0 15 -8 14 -17z m836 -2 c3 -5 1 -13 -5 -16
-8 -5 -8 -11 0 -20 9 -11 7 -12 -9 -8 -22 6 -25 12 -15 37 7 18 20 21 29 7z
m1022 3 c-3 -3 -12 -4 -19 -1 -8 3 -5 6 6 6 11 1 17 -2 13 -5z m-1790 -29 c0
-8 -4 -15 -9 -15 -10 0 -11 14 -1 23 9 10 10 9 10 -8z m48 5 c-3 -5 -12 -10
-18 -10 -7 0 -6 4 3 10 19 12 23 12 15 0z m68 -7 c-7 -2 -19 -2 -25 0 -7 3 -2
5 12 5 14 0 19 -2 13 -5z m1334 -15 c-3 -8 -6 -5 -6 6 -1 11 2 17 5 13 3 -3 4
-12 1 -19z m-537 -8 c0 -5 -2 -10 -4 -10 -3 0 -8 5 -11 10 -3 6 -1 10 4 10 6
0 11 -4 11 -10z m1247 -22 c-3 -8 -6 -5 -6 6 -1 11 2 17 5 13 3 -3 4 -12 1
-19z m-1607 3 c0 -13 -28 -22 -35 -11 -3 4 1 11 7 13 20 8 28 8 28 -2z m503
-6 c0 -6 -7 -11 -16 -13 -12 -3 -15 1 -11 13 7 17 25 17 27 0z m427 -6 c0 -6
-4 -7 -10 -4 -5 3 -10 11 -10 16 0 6 5 7 10 4 6 -3 10 -11 10 -16z m-566 -43
c-1 -26 -4 -50 -8 -53 -3 -3 -6 1 -6 9 0 9 -6 18 -14 21 -9 4 -12 14 -9 28 4
15 3 20 -5 15 -7 -4 -12 -3 -12 1 0 15 21 31 38 29 13 -2 16 -14 16 -50z
m-314 -8 c0 -10 4 -18 9 -18 5 0 12 -8 15 -17 11 -26 -33 16 -50 49 -19 37
-18 44 6 23 11 -10 20 -26 20 -37z m-450 14 c-9 -3 -9 -6 1 -13 10 -6 6 -9
-14 -9 -15 0 -39 -7 -53 -16 -19 -13 -23 -14 -19 -2 9 22 89 71 94 56 2 -6 -2
-14 -9 -16z m925 18 c3 -5 1 -10 -4 -10 -6 0 -11 5 -11 10 0 6 2 10 4 10 3 0
8 -4 11 -10z m1095 0 c0 -5 -5 -10 -11 -10 -5 0 -7 5 -4 10 3 6 8 10 11 10 2
0 4 -4 4 -10z m140 6 c0 -3 -4 -8 -10 -11 -5 -3 -10 -1 -10 4 0 6 5 11 10 11
6 0 10 -2 10 -4z m-1944 -15 c-4 -5 0 -11 6 -14 7 -2 9 -8 5 -13 -4 -5 -12 -2
-17 6 -13 20 -12 30 1 30 5 0 8 -4 5 -9z m602 -36 c4 -20 4 -20 -12 0 l-15 20
-1 -20 c0 -16 -2 -17 -9 -5 -6 8 -7 18 -4 23 9 15 38 2 41 -18z m-517 -18
c-10 -9 -11 -8 -5 6 3 10 9 15 12 12 3 -3 0 -11 -7 -18z m1156 -7 c6 -33 20
-39 30 -13 11 28 22 -14 22 -89 1 -67 -11 -89 -25 -46 -6 20 -7 20 -19 5 -11
-16 -13 -13 -17 20 -3 21 -1 40 4 41 12 5 10 30 -4 38 -7 4 -8 3 -4 -4 4 -7 3
-12 -3 -12 -6 0 -13 -16 -17 -35 -3 -19 -10 -35 -15 -35 -30 0 -17 87 16 100
20 8 31 40 13 40 -4 0 -8 5 -8 10 0 23 21 7 27 -20z m-1393 8 c-5 -14 -54 -53
-54 -44 0 5 52 56 57 56 1 0 0 -6 -3 -12z m2076 -18 c0 -5 -2 -10 -4 -10 -3 0
-8 5 -11 10 -3 6 -1 10 4 10 6 0 11 -4 11 -10z m-1659 -19 c4 7 11 10 15 6 11
-10 -12 -31 -25 -23 -6 4 -11 13 -10 19 0 8 3 7 6 -2 4 -11 7 -11 14 0z m409
-1 c0 -5 -4 -10 -9 -10 -6 0 -13 5 -16 10 -3 6 1 10 9 10 9 0 16 -4 16 -10z
m-833 -24 c-8 -16 -14 -21 -19 -13 -12 18 -10 25 10 30 9 3 18 5 19 6 0 0 -4
-10 -10 -23z m2108 4 c3 -5 1 -10 -4 -10 -6 0 -11 5 -11 10 0 6 2 10 4 10 3 0
8 -4 11 -10z m-1842 -15 c4 -8 2 -17 -2 -20 -5 -2 -11 4 -14 15 -6 23 8 27 16
5z m-553 -10 c14 -17 5 -35 -19 -35 -21 0 -35 36 -17 44 19 8 23 7 36 -9z
m880 11 c0 -2 -7 -7 -16 -10 -8 -3 -12 -2 -9 4 6 10 25 14 25 6z m-715 -26
c-10 -11 -29 -20 -42 -20 -13 0 -37 -7 -52 -15 -27 -14 -29 -13 -24 5 3 12 14
20 27 20 12 0 26 4 31 9 9 8 28 13 69 20 5 0 1 -8 -9 -19z m825 -14 c-8 -8
-13 -7 -20 4 -12 20 -1 33 16 19 11 -9 12 -15 4 -23z m-682 -1 c-3 -3 -9 2
-12 12 -6 14 -5 15 5 6 7 -7 10 -15 7 -18z m308 -12 c-11 -11 -17 4 -9 23 7
18 8 18 11 1 2 -10 1 -21 -2 -24z m91 6 c-9 -6 -15 -14 -12 -20 4 -5 -1 -9
-10 -9 -12 0 -15 6 -9 23 8 28 26 39 39 26 7 -7 4 -13 -8 -20z m-127 -10 c0
-4 -8 -9 -18 -11 -16 -5 -17 -2 -8 18 10 20 25 16 26 -7z m337 25 c-3 -3 -12
-4 -19 -1 -8 3 -5 6 6 6 11 1 17 -2 13 -5z m428 -4 c3 -6 -1 -7 -9 -4 -18 7
-21 14 -7 14 6 0 13 -4 16 -10z m-1075 -13 c0 -8 -6 -14 -14 -14 -8 0 -12 6
-9 14 3 7 9 13 14 13 5 0 9 -6 9 -13z m670 -2 c-7 -8 -17 -15 -22 -15 -11 0
14 29 26 30 5 0 3 -7 -4 -15z m849 -77 c1 -29 -3 -48 -10 -48 -6 0 -9 6 -6 13
2 7 1 35 -3 62 -8 54 0 86 11 45 4 -14 7 -46 8 -72z m-1829 45 c-12 -8 -24
-12 -28 -8 -9 9 28 36 40 29 5 -4 0 -13 -12 -21z m817 5 c-3 -8 -6 -5 -6 6 -1
11 2 17 5 13 3 -3 4 -12 1 -19z m173 -19 c0 -5 -6 -7 -12 -3 -10 5 -10 3 0 -7
11 -12 14 -12 21 0 6 8 11 9 15 3 3 -6 1 -14 -5 -18 -8 -4 -7 -9 2 -15 11 -7
11 -9 -1 -9 -9 0 -21 5 -28 12 -9 9 -12 8 -12 -6 0 -9 -5 -14 -10 -11 -6 4 -8
11 -5 16 4 5 2 9 -4 9 -5 0 -12 -4 -16 -10 -7 -11 -35 -2 -35 12 0 5 5 6 10 3
6 -3 10 -2 10 3 0 6 8 8 19 5 11 -3 21 2 24 11 7 18 27 22 27 5z m946 -11 c4
-6 3 -8 -4 -4 -5 3 -13 0 -15 -6 -3 -8 -6 -6 -6 5 -1 19 14 23 25 5z m77 -59
c-4 -4 -7 5 -7 22 2 42 6 48 11 15 3 -16 1 -32 -4 -37z m48 34 c-12 -20 -14
-14 -5 12 4 9 9 14 11 11 3 -2 0 -13 -6 -23z m-831 -3 c0 -5 -2 -10 -4 -10 -3
0 -8 5 -11 10 -3 6 -1 10 4 10 6 0 11 -4 11 -10z m94 -41 c-10 -3 -23 -4 -28
-1 -5 2 -6 -1 -4 -9 3 -8 16 -13 31 -11 20 2 25 -1 21 -12 -8 -21 -34 -28 -40
-11 -7 17 -34 21 -34 5 0 -5 -5 -10 -11 -10 -5 0 -7 5 -3 11 3 6 0 15 -7 20
-7 4 -10 11 -6 16 5 4 12 1 16 -6 7 -10 12 -8 25 10 15 21 15 24 1 27 -8 2
-13 8 -9 13 3 5 19 -1 36 -13 28 -20 29 -22 12 -29z m-484 32 c0 -5 -7 -11
-15 -15 -15 -5 -20 5 -8 17 9 10 23 9 23 -2z m295 -5 c-18 -13 -18 -15 -2 -30
9 -10 17 -13 17 -7 0 6 7 11 16 11 14 0 14 -2 -1 -16 -12 -13 -19 -14 -30 -4
-8 7 -24 10 -35 7 -11 -3 -23 -1 -26 4 -3 5 0 9 5 9 6 0 11 6 11 14 0 16 15
24 44 25 19 1 19 1 1 -13z m-597 -21 c-3 -3 -9 2 -12 12 -6 14 -5 15 5 6 7 -7
10 -15 7 -18z m532 15 c0 -5 -2 -10 -4 -10 -3 0 -8 5 -11 10 -3 6 -1 10 4 10
6 0 11 -4 11 -10z m190 -4 c0 -2 -13 -6 -30 -8 -16 -3 -30 -1 -30 4 0 4 14 8
30 8 17 0 30 -2 30 -4z m796 -33 c-11 -11 -17 4 -9 23 7 18 8 18 11 1 2 -10 1
-21 -2 -24z m-1056 15 c0 -7 -5 -20 -10 -28 -8 -12 -10 -13 -10 -1 0 11 -5 10
-19 -5 -10 -10 -16 -23 -13 -28 3 -5 0 -6 -7 -2 -6 4 -8 13 -4 19 4 7 6 20 4
31 -2 16 2 18 24 12 17 -4 24 -3 20 4 -3 5 -1 10 4 10 6 0 11 -6 11 -12z m967
-11 c-4 -21 -30 -43 -34 -30 -3 8 -12 9 -29 3 -15 -6 -24 -6 -24 0 0 6 6 10
13 10 8 0 22 9 31 19 18 20 47 18 43 -2z m-1417 -37 c-7 -4 -9 -13 -6 -19 5
-7 -3 -11 -21 -11 -26 1 -27 2 -9 15 10 7 15 18 12 23 -4 6 3 8 15 5 14 -4 17
-8 9 -13z m650 10 c0 -5 -5 -10 -11 -10 -5 0 -7 5 -4 10 3 6 8 10 11 10 2 0 4
-4 4 -10z m-442 -31 c-3 -8 -7 -3 -11 10 -4 17 -3 21 5 13 5 -5 8 -16 6 -23z
m148 -4 c-3 -9 0 -15 9 -15 8 0 13 -9 12 -20 -1 -22 -6 -24 -32 -14 -13 5 -14
9 -3 15 11 7 10 11 -2 19 -13 9 -13 10 0 10 13 0 13 1 0 10 -13 8 -12 10 4 10
12 0 16 -5 12 -15z m1017 0 c12 -11 20 -12 46 -2 26 10 34 9 48 -6 20 -20 4
-23 -29 -6 -11 6 -18 7 -15 2 3 -5 2 -15 -4 -23 -6 -11 -9 -12 -9 -2 0 7 -4
11 -9 8 -4 -3 -19 6 -31 19 -25 26 -22 35 3 10z m-696 -2 c-9 -2 -15 -9 -12
-14 3 -5 -1 -6 -10 -2 -13 5 -14 7 -3 14 7 5 20 8 28 8 11 -1 10 -3 -3 -6z
m-550 -22 c0 -10 -7 -17 -13 -14 -9 3 -11 -3 -7 -19 5 -19 3 -21 -7 -11 -11
10 -11 17 0 38 16 30 29 33 27 6z m1229 -2 c19 -22 19 -22 -3 -8 -13 8 -23 17
-23 21 0 12 6 9 26 -13z m-1135 2 c-10 -6 -10 -10 -1 -16 9 -6 9 -10 -1 -16
-12 -8 -11 -11 1 -19 13 -8 12 -10 -2 -10 -10 0 -18 -4 -18 -10 0 -5 -4 -10
-9 -10 -13 0 -8 55 8 74 7 9 19 16 25 16 6 0 5 -4 -3 -9z m46 -28 c2 -6 -3
-13 -12 -16 -8 -4 -15 -2 -15 3 0 6 6 10 13 10 8 0 7 4 -3 11 -12 9 -12 10 -1
7 8 -3 16 -9 18 -15z m1188 -7 c0 -34 -12 -42 -20 -16 -6 18 2 34 20 40 1 0 1
-11 0 -24z m-825 4 c0 -5 -7 -10 -16 -10 -8 0 -12 5 -9 10 3 6 10 10 16 10 5
0 9 -4 9 -10z m-470 -10 c0 -5 -4 -10 -10 -10 -5 0 -10 5 -10 10 0 6 5 10 10
10 6 0 10 -4 10 -10z m164 -15 c3 -8 1 -15 -4 -15 -6 0 -10 7 -10 15 0 8 2 15
4 15 2 0 6 -7 10 -15z m-195 -7 c-3 -26 1 -39 11 -33 6 3 10 1 10 -5 0 -7 -8
-9 -21 -5 -18 6 -19 5 -10 -13 16 -30 14 -52 -4 -46 -18 7 -20 55 -3 72 7 7 9
12 4 12 -12 0 -36 -27 -29 -34 4 -3 1 -6 -5 -6 -6 0 -9 -7 -6 -15 4 -11 2 -13
-9 -9 -9 3 -18 12 -21 21 -4 8 -13 13 -21 10 -9 -4 -12 -1 -8 9 3 7 13 14 22
14 9 1 32 9 51 20 42 23 41 23 39 8z m161 2 c0 -5 -10 -10 -22 -9 -22 0 -22 1
-3 9 11 5 21 9 23 9 1 1 2 -3 2 -9z m297 -12 c-3 -8 -6 -5 -6 6 -1 11 2 17 5
13 3 -3 4 -12 1 -19z m45 7 c0 -5 -5 -11 -11 -13 -6 -2 -11 4 -11 13 0 9 5 15
11 13 6 -2 11 -8 11 -13z m113 -6 c4 -22 -23 -20 -28 3 -4 14 -1 18 10 16 9
-2 17 -10 18 -19z m682 -15 c3 -28 2 -28 -9 -6 -11 22 -28 30 -28 14 0 -5 -7
-9 -16 -9 -12 0 -10 5 7 18 31 24 43 19 46 -17z m-727 6 c0 -5 -4 -10 -9 -10
-6 0 -13 5 -16 10 -3 6 1 10 9 10 9 0 16 -4 16 -10z m960 -9 c-5 -11 -15 -23
-20 -26 -14 -9 -12 19 2 33 19 19 30 14 18 -7z m-1240 -1 c0 -5 -8 -10 -17
-10 -15 0 -16 2 -3 10 19 12 20 12 20 0z m-127 -30 c-3 -11 -9 -20 -14 -20 -5
0 -9 9 -9 20 0 11 6 20 14 20 9 0 12 -7 9 -20z m357 11 c2 -1 -1 -6 -6 -11 -7
-7 -21 -6 -45 4 l-34 15 40 -4 c22 -2 42 -4 45 -4z m66 -4 c4 -4 0 -7 -9 -7
-9 0 -18 4 -21 9 -7 10 20 9 30 -2z m34 4 c0 -5 9 -11 20 -14 11 -3 20 -12 20
-21 0 -14 -5 -13 -30 6 -30 22 -39 38 -20 38 6 0 10 -4 10 -9z m650 -3 c0 -4
9 -8 20 -8 26 0 25 -20 -1 -54 -22 -28 -42 -35 -33 -11 5 13 -4 19 -26 17 -3
0 -4 15 -2 33 3 26 9 33 23 32 10 -1 19 -5 19 -9z m-1405 -18 c3 -5 1 -10 -4
-10 -6 0 -11 5 -11 10 0 6 2 10 4 10 3 0 8 -4 11 -10z m51 -31 c0 -13 5 -23
12 -22 6 2 14 -6 17 -17 7 -22 58 -53 69 -43 3 4 6 2 6 -4 0 -18 -30 -24 -36
-8 -4 8 -10 12 -15 9 -24 -15 -79 55 -79 101 0 26 25 11 26 -16z m369 21 c3
-5 1 -10 -4 -10 -6 0 -11 5 -11 10 0 6 2 10 4 10 3 0 8 -4 11 -10z m115 -15
c0 -9 -9 -25 -19 -36 -15 -17 -23 -19 -38 -10 -10 6 -12 11 -5 11 7 0 17 11
22 25 10 27 40 34 40 10z m-142 -12 c-2 -10 -9 -19 -16 -19 -6 -1 -15 -2 -19
-3 -5 -1 6 -12 22 -25 29 -24 30 -24 5 -19 -14 2 -30 16 -37 30 -11 22 -10 26
7 30 11 3 20 9 20 14 0 5 5 9 11 9 6 0 9 -8 7 -17z m-132 -11 c-15 -18 -15
-19 10 -30 14 -7 23 -8 19 -2 -3 5 -1 10 4 10 6 0 12 -17 12 -37 1 -38 1 -38
9 -8 4 17 9 28 10 25 4 -10 5 -80 0 -80 -2 0 -30 27 -62 61 -31 33 -51 58 -43
55 7 -2 19 2 25 10 7 8 17 14 23 14 5 0 3 -8 -7 -18z m-83 -9 c-7 -2 -13 -11
-13 -19 0 -9 4 -13 8 -10 5 3 8 -8 8 -24 0 -16 -3 -27 -8 -24 -4 3 -8 14 -8
25 0 12 -7 19 -20 19 -23 0 -17 27 8 33 24 6 40 6 25 0z m-328 -41 c2 -17 6
-36 10 -42 8 -13 -1 -13 -26 0 -14 8 -19 7 -19 -1 0 -8 -4 -8 -12 -1 -7 5 -29
8 -48 6 -25 -3 -31 -1 -20 6 8 5 30 10 48 10 28 0 36 5 45 30 13 34 16 33 22
-8z m152 16 c-3 -8 -6 -5 -6 6 -1 11 2 17 5 13 3 -3 4 -12 1 -19z m443 2 c0
-5 -7 -10 -15 -10 -8 0 -15 5 -15 10 0 6 7 10 15 10 8 0 15 -4 15 -10z m1677
-12 c-3 -8 -6 -5 -6 6 -1 11 2 17 5 13 3 -3 4 -12 1 -19z m-2177 -17 c3 -2 -2
-2 -11 1 -12 5 -14 0 -11 -23 3 -22 0 -29 -12 -29 -9 0 -16 5 -16 11 0 5 5 7
10 4 14 -8 13 8 -1 22 -7 7 -9 19 -5 28 6 17 14 14 46 -14z m39 7 c12 -15 11
-18 -3 -18 -10 0 -16 8 -16 22 0 12 1 19 3 17 1 -2 9 -12 16 -21z m2001 -12
c-7 -7 -13 -7 -20 0 -6 6 -3 10 10 10 13 0 16 -4 10 -10z m-1930 -18 c0 -6 -6
-5 -15 2 -8 7 -15 14 -15 16 0 2 7 1 15 -2 8 -4 15 -11 15 -16z m410 12 c0 -5
-2 -10 -4 -10 -3 0 -8 5 -11 10 -3 6 -1 10 4 10 6 0 11 -4 11 -10z m1587 -12
c-3 -8 -6 -5 -6 6 -1 11 2 17 5 13 3 -3 4 -12 1 -19z m-1806 -21 c1 -7 1 -16
0 -21 -1 -4 3 -14 9 -21 7 -8 7 -16 2 -19 -11 -6 -25 9 -35 37 -4 9 -13 17
-22 17 -12 0 -13 3 -3 19 9 15 16 17 30 10 10 -5 19 -15 19 -22z m509 1 c0
-16 -28 -39 -35 -28 -3 5 -1 10 5 10 7 0 9 8 5 20 -5 15 -3 18 9 14 9 -3 16
-10 16 -16z m-624 -49 c4 -27 10 -52 14 -54 5 -3 6 -14 3 -25 -3 -11 -1 -20 4
-20 11 0 43 -64 43 -85 0 -13 -3 -13 -20 -3 -11 7 -20 17 -20 21 0 18 -52 116
-74 140 l-24 26 29 -6 c22 -4 29 -2 29 10 0 8 -7 17 -15 21 -8 3 -15 10 -15
16 0 6 5 8 10 5 6 -3 10 -1 10 5 0 6 4 8 10 5 5 -3 12 -28 16 -56z m1820 36
c-5 -13 -8 -14 -20 -3 -12 11 -12 14 3 19 20 8 25 4 17 -16z m-1589 -5 c-3
-10 -1 -20 4 -22 4 -2 4 -10 -1 -18 -8 -13 -10 -12 -10 3 0 10 -4 16 -9 13 -4
-3 -6 6 -3 19 2 14 9 25 14 25 6 0 8 -9 5 -20z m35 -4 c10 7 37 -24 38 -43 0
-7 -5 -13 -11 -13 -17 0 -49 40 -48 59 0 10 2 12 6 3 2 -6 9 -9 15 -6z m-603
-13 c6 -13 4 -22 -7 -33 -14 -13 -15 -12 -9 4 4 10 2 25 -4 32 -8 10 -8 14 -1
14 6 0 15 -8 21 -17z m171 6 c0 -6 9 -8 23 -4 17 5 19 4 7 -5 -13 -9 -12 -12
5 -22 11 -7 26 -13 34 -14 27 -5 39 -29 45 -91 6 -66 -4 -80 -30 -45 -13 16
-13 16 -14 -3 0 -26 18 -45 36 -38 8 3 14 1 14 -5 0 -18 -27 -21 -49 -6 -15
11 -26 12 -40 4 -22 -11 -72 -14 -55 -2 6 4 13 15 17 24 4 11 12 15 21 12 22
-8 15 130 -8 155 -9 10 -16 24 -17 32 0 10 -2 10 -6 2 -2 -7 -9 -13 -14 -13
-4 0 -6 7 -3 15 7 17 34 21 34 4z m523 -1 c29 -14 38 -32 10 -21 -11 4 -14 3
-9 -5 14 -23 -9 -11 -27 13 -20 28 -14 31 26 13z m1257 8 c0 -2 2 -11 5 -18 3
-9 -2 -14 -14 -15 -14 -1 -19 4 -18 18 1 10 7 19 14 19 7 0 13 -2 13 -4z
m-2142 -31 c-3 -3 -9 2 -12 12 -6 14 -5 15 5 6 7 -7 10 -15 7 -18z m612 15 c0
-5 -4 -10 -9 -10 -5 0 -13 -9 -16 -21 -5 -15 -10 -18 -18 -10 -8 8 -5 16 9 30
21 22 34 26 34 11z m630 -131 c0 -8 -16 4 -34 26 -19 22 -40 41 -45 41 -6 1
-15 2 -20 3 -5 0 -8 12 -8 26 0 24 3 22 53 -28 30 -30 54 -61 54 -68z m-1115
101 c3 -5 1 -10 -4 -10 -6 0 -11 5 -11 10 0 6 2 10 4 10 3 0 8 -4 11 -10z
m607 0 c6 0 8 -10 4 -24 -4 -15 -1 -26 7 -29 6 -2 9 -8 5 -12 -11 -11 -28 4
-28 26 0 10 -7 19 -15 19 -8 0 -15 7 -15 16 0 11 5 14 16 10 9 -3 20 -6 26 -6z
m-398 -15 c3 -9 -1 -18 -9 -21 -20 -8 -19 -27 6 -75 26 -53 18 -60 -23 -20
-17 17 -35 31 -40 31 -4 0 -8 5 -8 11 0 5 4 8 9 5 13 -8 28 14 36 52 7 34 19
41 29 17z m2036 4 c0 -6 9 -8 20 -4 22 7 23 5 14 -20 -5 -13 -8 -14 -15 -3 -6
10 -11 10 -21 0 -9 -9 -9 -12 1 -12 7 0 9 -4 6 -10 -12 -20 -23 -10 -27 25 -3
24 0 35 9 35 7 0 13 -5 13 -11z m-1738 -56 c5 -20 3 -21 -12 -13 -26 14 -30
23 -23 49 5 20 6 21 18 4 6 -10 14 -28 17 -40z m1668 34 c0 -7 9 -21 21 -30
13 -12 19 -27 17 -44 -7 -56 -37 -25 -53 55 -4 20 -3 32 4 32 6 0 11 -6 11
-13z m-1423 -3 c-3 -3 -12 -4 -19 -1 -8 3 -5 6 6 6 11 1 17 -2 13 -5z m-752
-24 c3 -5 1 -10 -4 -10 -6 0 -11 5 -11 10 0 6 2 10 4 10 3 0 8 -4 11 -10z
m-21 -15 c6 -17 -9 -21 -19 -5 -4 6 -10 8 -15 5 -5 -3 -11 -1 -15 5 -4 6 4 10
18 10 14 0 27 -7 31 -15z m1085 -38 c8 -17 15 -45 17 -61 l4 -29 -22 24 c-13
13 -20 25 -16 27 10 4 -1 52 -15 70 -7 9 -6 11 4 7 8 -3 21 -20 28 -38z
m-1069 3 c0 -5 -4 -10 -10 -10 -5 0 -10 5 -10 10 0 6 5 10 10 10 6 0 10 -4 10
-10z m880 -28 c0 -15 -2 -15 -10 -2 -13 20 -13 33 0 25 6 -3 10 -14 10 -23z
m160 7 c0 -5 -4 -9 -10 -9 -5 0 -10 7 -10 16 0 8 5 12 10 9 6 -3 10 -10 10
-16z m-510 -17 c0 -15 -2 -15 -10 -2 -13 20 -13 33 0 25 6 -3 10 -14 10 -23z
m74 13 c4 -10 -1 -15 -14 -15 -13 0 -18 5 -14 15 4 8 10 15 14 15 4 0 10 -7
14 -15z m529 -42 c-4 -10 -9 -11 -16 -4 -5 5 -7 18 -3 28 6 14 9 15 16 4 4 -8
6 -21 3 -28z m24 15 c-3 -8 -6 -5 -6 6 -1 11 2 17 5 13 3 -3 4 -12 1 -19z"/>
<path d="M1276 1245 c-3 -8 -1 -15 4 -15 6 0 10 7 10 15 0 8 -2 15 -4 15 -2 0
-6 -7 -10 -15z"/>
<path d="M2006 434 c-17 -12 -17 -14 -4 -14 9 0 20 5 23 11 11 17 2 18 -19 3z"/>
<path d="M733 1526 c3 -15 19 -26 39 -26 26 0 11 27 -17 32 -14 3 -23 1 -22
-6z"/>
<path d="M935 1499 c-11 -16 -2 -17 30 -3 l30 13 -27 1 c-15 0 -30 -5 -33 -11z"/>
<path d="M445 1490 c3 -5 10 -10 16 -10 5 0 9 5 9 10 0 6 -7 10 -16 10 -8 0
-12 -4 -9 -10z"/>
<path d="M746 1474 c-10 -25 -1 -27 19 -4 15 17 16 20 3 20 -9 0 -19 -7 -22
-16z"/>
<path d="M662 1461 c-10 -6 -8 -10 8 -14 16 -4 21 -11 16 -22 -5 -13 -2 -13
18 2 19 14 21 20 10 26 -8 4 -18 6 -23 2 -5 -3 -11 -1 -13 5 -2 5 -9 6 -16 1z"/>
<path d="M1975 1449 c-8 -13 27 -41 38 -30 11 11 -3 41 -18 41 -8 0 -17 -5
-20 -11z"/>
<path d="M791 1441 c-10 -6 -9 -10 3 -14 8 -3 18 -2 21 3 8 13 -9 20 -24 11z"/>
<path d="M487 1429 c7 -7 15 -10 18 -7 3 3 -2 9 -12 12 -14 6 -15 5 -6 -5z"/>
<path d="M1362 1431 c-11 -7 -10 -10 3 -15 20 -7 38 1 30 15 -7 11 -16 11 -33
0z"/>
<path d="M1403 1412 l-23 -17 25 -12 c14 -6 25 -7 25 -3 0 5 -6 11 -12 13 -10
4 -9 8 2 16 8 5 12 12 10 15 -3 2 -15 -3 -27 -12z"/>
<path d="M1446 1404 c-6 -16 2 -18 22 -5 11 7 11 9 -1 14 -9 3 -18 -1 -21 -9z"/>
<path d="M1549 1409 c-13 -8 -6 -13 14 -10 4 0 7 -3 7 -9 0 -5 14 -7 33 -4 24
4 29 3 17 -5 -12 -9 -13 -12 -1 -20 9 -6 10 -11 2 -15 -6 -4 -11 -15 -11 -24
1 -16 1 -16 11 1 5 9 17 17 25 17 9 0 12 5 8 13 -4 6 -3 8 1 4 18 -16 13 -37
-8 -37 -11 0 -17 -3 -13 -7 12 -12 60 -9 74 5 8 7 18 10 23 7 5 -4 9 -2 9 4 0
16 -18 22 -23 9 -4 -10 -6 -10 -6 0 -1 7 -6 10 -11 7 -6 -4 -9 -1 -8 7 2 7 -2
12 -9 11 -7 -2 -10 3 -7 11 5 14 40 11 50 -5 2 -5 19 -6 37 -3 18 3 27 2 21
-3 -13 -9 1 -27 24 -29 29 -2 33 -5 26 -16 -5 -10 -4 -10 6 -1 20 19 21 42 2
52 -10 5 -43 11 -74 14 -32 2 -64 10 -72 16 -10 8 -16 9 -21 1 -7 -11 -66 -4
-96 11 -8 4 -22 3 -30 -2z"/>
<path d="M1442 1354 c-7 -8 -8 -14 -3 -14 10 0 25 19 20 25 -2 1 -10 -3 -17
-11z"/>
<path d="M682 1351 c-10 -6 -7 -12 12 -24 29 -19 40 -22 31 -7 -3 6 -1 10 5
10 6 0 8 5 4 11 -5 8 -9 8 -14 -1 -6 -9 -10 -8 -16 3 -6 10 -14 13 -22 8z"/>
<path d="M1866 1351 c-9 -13 12 -34 28 -28 8 3 18 2 21 -3 3 -4 -1 -11 -7 -13
-7 -3 -4 -6 7 -7 11 0 29 -7 39 -15 11 -8 25 -15 30 -15 6 0 3 7 -6 14 -10 7
-15 16 -11 19 3 4 -1 7 -10 7 -9 0 -17 4 -17 8 0 11 -69 41 -74 33z"/>
<path d="M587 1326 c-24 -18 -21 -24 11 -23 15 0 21 2 13 5 -10 3 -10 6 -1 12
7 4 8 10 3 13 -4 3 -16 0 -26 -7z"/>
<path d="M1480 1320 c0 -5 5 -10 10 -10 6 0 10 5 10 10 0 6 -4 10 -10 10 -5 0
-10 -4 -10 -10z"/>
<path d="M2115 1319 c-4 -6 -13 -8 -20 -5 -8 3 -17 -3 -20 -14 -7 -23 2 -43
16 -35 5 4 10 1 10 -4 1 -6 2 -17 3 -23 1 -7 -1 -15 -5 -18 -3 -3 9 -12 28
-22 l34 -16 -18 21 c-10 12 -20 24 -23 27 -3 3 -7 16 -8 29 -3 22 -1 23 27 18
l31 -7 -22 30 c-25 34 -24 34 -33 19z"/>
<path d="M673 1283 c-22 -8 -15 -32 7 -26 11 3 20 12 20 19 0 14 -6 16 -27 7z"/>
<path d="M1840 1276 c0 -10 9 -16 21 -16 24 0 21 23 -4 28 -10 2 -17 -3 -17
-12z"/>
<path d="M735 1270 c3 -5 8 -10 11 -10 2 0 4 5 4 10 0 6 -5 10 -11 10 -5 0 -7
-4 -4 -10z"/>
<path d="M2047 1264 c7 -3 10 -11 7 -18 -3 -8 1 -16 10 -19 22 -9 28 21 6 33
-10 5 -22 10 -27 9 -4 0 -3 -3 4 -5z"/>
<path d="M1807 1249 c7 -7 15 -10 18 -7 3 3 -2 9 -12 12 -14 6 -15 5 -6 -5z"/>
<path d="M2196 1245 c4 -10 0 -15 -15 -15 -12 0 -21 -6 -21 -13 0 -17 45 -38
65 -31 8 4 15 1 15 -6 0 -8 6 -9 18 -5 9 4 23 8 30 8 24 1 5 32 -38 61 -31 21
-61 21 -54 1z m44 -34 c0 -13 -30 -22 -43 -14 -7 4 -2 10 13 14 14 4 26 7 28
8 1 1 2 -3 2 -8z"/>
<path d="M2010 1210 c0 -5 5 -10 11 -10 5 0 7 5 4 10 -3 6 -8 10 -11 10 -2 0
-4 -4 -4 -10z"/>
<path d="M1139 1193 c-13 -16 -12 -17 4 -4 9 7 17 15 17 17 0 8 -8 3 -21 -13z"/>
<path d="M2104 1139 c-9 -11 -14 -22 -11 -25 4 -4 9 1 13 10 9 23 34 20 29 -3
-5 -30 19 -46 39 -26 24 24 19 31 -5 9 -22 -19 -22 -19 -10 4 14 26 9 38 -18
45 -12 3 -27 -3 -37 -14z"/>
<path d="M2289 1139 c-11 -7 -9 -9 9 -9 21 0 30 -19 15 -34 -4 -3 -8 -16 -10
-28 -3 -17 -1 -19 12 -8 8 7 12 16 9 21 -3 5 -1 9 4 9 13 0 2 48 -12 53 -7 3
-19 1 -27 -4z"/>
<path d="M2400 1136 c0 -23 11 -46 20 -41 5 3 11 1 15 -5 12 -19 24 -10 21 17
-4 33 -56 60 -56 29z"/>
<path d="M2065 1110 c-3 -5 -1 -10 4 -10 6 0 11 5 11 10 0 6 -2 10 -4 10 -3 0
-8 -4 -11 -10z"/>
<path d="M1721 1094 c0 -11 3 -14 6 -6 3 7 2 16 -1 19 -3 4 -6 -2 -5 -13z"/>
<path d="M1761 1063 c12 -14 61 -12 66 2 2 6 -14 10 -36 10 -30 0 -37 -3 -30
-12z"/>
<path d="M2175 1068 c-5 -5 -19 -15 -30 -23 -20 -14 -20 -14 2 -10 34 6 53 19
45 31 -4 7 -11 8 -17 2z"/>
<path d="M1910 1030 c0 -5 5 -10 11 -10 5 0 7 5 4 10 -3 6 -8 10 -11 10 -2 0
-4 -4 -4 -10z"/>
<path d="M2185 1024 c-13 -10 -15 -14 -4 -14 20 0 43 16 32 23 -4 3 -17 -1
-28 -9z"/>
<path d="M1870 1015 c0 -9 6 -12 15 -9 8 4 15 7 15 9 0 2 -7 5 -15 9 -9 3 -15
0 -15 -9z"/>
<path d="M2067 980 c-40 -19 -52 -30 -41 -34 32 -12 54 -6 54 14 0 12 7 20 18
20 22 0 47 16 35 23 -4 3 -34 -7 -66 -23z"/>
<path d="M2025 980 c-3 -5 -1 -10 4 -10 6 0 11 5 11 10 0 6 -2 10 -4 10 -3 0
-8 -4 -11 -10z"/>
<path d="M2410 971 c0 -5 -18 -17 -40 -27 -36 -16 -40 -21 -40 -53 1 -30 2
-33 11 -18 6 9 14 15 19 12 4 -3 6 4 3 15 -5 20 15 28 31 13 3 -4 14 -8 24 -9
13 -2 12 1 -5 16 -27 21 -29 30 -9 30 19 0 29 17 16 25 -5 3 -10 2 -10 -4z"/>
<path d="M1941 880 c17 -26 39 -38 39 -22 0 5 -12 18 -27 28 l-28 18 16 -24z"/>
<path d="M2410 869 c7 -11 14 -19 16 -16 7 7 -7 37 -17 37 -6 0 -5 -9 1 -21z"/>
<path d="M2290 866 c0 -8 4 -18 10 -21 6 -4 7 1 3 11 -4 12 -3 15 5 10 7 -4
12 -2 12 3 0 6 -7 11 -15 11 -8 0 -15 -6 -15 -14z"/>
<path d="M2090 860 c-8 -5 -12 -12 -9 -15 4 -3 12 1 19 10 14 17 11 19 -10 5z"/>
<path d="M2425 820 c3 -5 8 -10 11 -10 2 0 4 5 4 10 0 6 -5 10 -11 10 -5 0 -7
-4 -4 -10z"/>
<path d="M2420 780 c0 -5 5 -10 10 -10 6 0 10 5 10 10 0 6 -4 10 -10 10 -5 0
-10 -4 -10 -10z"/>
<path d="M2460 780 c0 -5 5 -10 11 -10 5 0 7 5 4 10 -3 6 -8 10 -11 10 -2 0
-4 -4 -4 -10z"/>
<path d="M2499 775 c-9 -9 12 -77 31 -97 14 -16 15 -15 14 10 -1 15 -3 37 -3
49 -1 15 -6 21 -15 17 -8 -3 -16 2 -18 11 -1 9 -6 14 -9 10z"/>
<path d="M2573 765 c-3 -9 -3 -18 -1 -21 3 -3 8 4 11 16 6 23 -1 27 -10 5z"/>
<path d="M226 755 c-3 -8 -9 -15 -13 -14 -4 1 -15 1 -23 0 -12 -1 -12 -3 -2
-10 10 -6 4 -10 -20 -15 l-33 -7 28 -15 c18 -10 27 -21 23 -30 -3 -9 -1 -12 4
-9 6 3 10 15 10 26 0 15 6 20 23 19 43 -4 50 -1 38 14 -10 11 -8 17 6 25 17 9
17 10 -2 17 -11 4 -23 9 -26 10 -4 2 -10 -3 -13 -11z"/>
<path d="M2400 731 c0 -11 -4 -21 -10 -23 -5 -1 -6 -9 -1 -16 6 -10 12 -8 29
7 19 16 20 20 7 25 -9 3 -13 10 -10 16 3 5 1 10 -4 10 -6 0 -11 -9 -11 -19z"/>
<path d="M354 687 c1 -29 -1 -33 -21 -29 -13 2 -21 7 -19 11 3 4 -7 8 -22 9
-25 1 -25 1 -7 -10 19 -11 19 -11 0 -20 -18 -8 -18 -8 2 -4 13 2 28 -3 35 -12
7 -9 8 -13 2 -9 -6 3 -11 0 -11 -7 0 -11 5 -12 23 -4 13 6 21 15 18 19 -3 5
-1 9 4 9 6 0 12 18 14 40 2 26 -1 40 -8 40 -7 0 -11 -14 -10 -33z"/>
<path d="M2625 670 c-3 -5 -1 -10 4 -10 6 0 11 5 11 10 0 6 -2 10 -4 10 -3 0
-8 -4 -11 -10z"/>
<path d="M10 634 c-13 -33 -13 -34 4 -34 16 0 48 45 39 54 -14 14 -34 4 -43
-20z"/>
<path d="M2320 643 c0 -4 5 -15 10 -23 8 -13 10 -13 10 2 0 9 -4 20 -10 23 -5
3 -10 3 -10 -2z"/>
<path d="M2642 625 c-6 -14 -17 -24 -23 -23 -6 2 -13 -5 -14 -14 -3 -16 -1
-16 20 -2 13 8 25 25 29 37 8 30 1 32 -12 2z"/>
<path d="M1491 624 c0 -11 3 -14 6 -6 3 7 2 16 -1 19 -3 4 -6 -2 -5 -13z"/>
<path d="M50 610 c0 -5 -11 -12 -25 -16 -23 -6 -36 -24 -16 -24 4 0 6 -12 3
-27 -4 -22 -2 -25 13 -20 13 5 16 3 11 -8 -3 -9 0 -15 8 -15 17 0 26 53 13 76
-6 11 -6 15 1 10 5 -3 12 0 15 8 3 8 -1 17 -9 20 -8 3 -14 1 -14 -4z"/>
<path d="M2190 605 c0 -8 4 -15 10 -15 5 0 7 7 4 15 -4 8 -8 15 -10 15 -2 0
-4 -7 -4 -15z"/>
<path d="M292 573 c-24 -14 -41 -28 -38 -31 3 -2 12 1 21 8 9 7 18 10 22 7 3
-4 15 -2 26 4 14 8 18 8 13 0 -4 -6 -2 -11 3 -11 6 0 11 7 11 16 0 8 4 12 10
9 6 -3 7 1 4 9 -8 21 -20 19 -72 -11z"/>
<path d="M1355 580 c3 -5 8 -10 11 -10 2 0 4 5 4 10 0 6 -5 10 -11 10 -5 0 -7
-4 -4 -10z"/>
<path d="M455 560 c-4 -12 -18 -23 -34 -26 -16 -3 -40 -17 -54 -30 -14 -13
-30 -24 -35 -24 -17 0 -21 28 -7 40 8 7 12 16 9 21 -9 15 -22 10 -29 -11 -4
-13 -16 -20 -33 -21 -24 -2 -24 -2 -4 -6 12 -2 20 -8 17 -13 -3 -5 -11 -7 -18
-4 -8 3 -13 -4 -14 -18 0 -13 1 -17 4 -10 6 15 33 16 33 1 0 -16 39 -1 97 38
30 20 57 32 64 27 8 -5 9 -3 4 6 -6 9 -4 12 6 8 10 -4 14 2 14 18 0 29 -11 31
-20 4z"/>
<path d="M385 560 c3 -5 10 -10 16 -10 5 0 9 5 9 10 0 6 -7 10 -16 10 -8 0
-12 -4 -9 -10z"/>
<path d="M619 558 c-11 -8 -11 -9 3 -4 22 7 33 -10 12 -18 -9 -4 -14 -9 -11
-13 7 -7 37 15 37 27 0 13 -26 19 -41 8z"/>
<path d="M2510 525 c13 -14 26 -25 28 -25 3 0 -5 11 -18 25 -13 14 -26 25 -28
25 -3 0 5 -11 18 -25z"/>
<path d="M160 460 c0 -5 4 -10 9 -10 6 0 13 5 16 10 3 6 -1 10 -9 10 -9 0 -16
-4 -16 -10z"/>
<path d="M1520 425 c0 -15 18 -40 24 -34 3 3 -1 14 -9 25 -8 10 -14 15 -15 9z"/>
<path d="M1550 281 c0 -5 5 -13 10 -16 6 -3 10 -2 10 4 0 5 -4 13 -10 16 -5 3
-10 2 -10 -4z"/>
<path d="M380 90 c0 -11 4 -20 9 -20 5 0 7 9 4 20 -3 11 -7 20 -9 20 -2 0 -4
-9 -4 -20z"/>
<path d="M420 20 c0 -13 5 -20 13 -18 6 3 12 11 12 18 0 7 -6 15 -12 18 -8 2
-13 -5 -13 -18z"/>
</g>
</svg>
