<?xml version="1.0" standalone="no"?>
<!DOCTYPE svg PUBLIC "-//W3C//DTD SVG 20010904//EN"
 "http://www.w3.org/TR/2001/REC-SVG-20010904/DTD/svg10.dtd">
<svg version="1.0" xmlns="http://www.w3.org/2000/svg"
 width="275.000000pt" height="183.000000pt" viewBox="0 0 275.000000 183.000000"
 preserveAspectRatio="xMidYMid meet">

<g transform="translate(0.000000,183.000000) scale(0.100000,-0.100000)"
fill="#000000" stroke="none">
<path d="M1653 1800 c-11 -16 -10 -18 2 -14 8 4 15 12 15 20 0 19 -3 18 -17
-6z"/>
<path d="M1678 1743 c7 -3 16 -2 19 1 4 3 -2 6 -13 5 -11 0 -14 -3 -6 -6z"/>
<path d="M1826 1308 c3 -4 9 -8 15 -8 5 0 9 4 9 8 0 5 -7 9 -15 9 -8 0 -12 -4
-9 -9z"/>
<path d="M1966 1312 c-3 -6 -1 -14 5 -17 14 -9 20 -2 10 14 -6 8 -11 9 -15 3z"/>
<path d="M1995 1289 c-5 -5 -19 -17 -30 -25 -11 -9 -15 -13 -8 -10 6 4 15 1
18 -4 8 -14 45 17 45 37 0 15 -11 16 -25 2z"/>
<path d="M1845 1260 c6 -9 4 -11 -5 -5 -7 4 -16 2 -20 -5 -4 -7 -13 -9 -19 -6
-17 11 -141 15 -141 5 0 -5 9 -9 20 -9 11 0 20 -5 20 -11 0 -7 9 -9 21 -6 16
4 20 1 17 -16 -2 -12 -9 -21 -16 -19 -6 1 -12 -4 -12 -10 0 -9 -4 -8 -10 2 -8
12 -10 11 -10 -7 0 -20 -5 -23 -35 -23 -32 0 -35 -2 -31 -24 2 -13 11 -38 20
-55 9 -17 13 -31 9 -31 -5 0 -1 -5 7 -10 13 -8 13 -10 -1 -10 -9 0 -20 -8 -23
-17 -3 -10 -13 -29 -21 -43 -14 -24 -14 -25 20 -40 36 -15 46 -30 21 -30 -8 0
-16 -5 -18 -10 -2 -6 -13 -12 -24 -12 -21 -2 -26 -30 -9 -45 4 -5 5 -3 1 4 -3
6 -1 15 5 18 7 5 10 0 7 -11 -2 -11 -11 -18 -21 -18 -9 1 -17 -3 -17 -8 0 -5
-10 -6 -21 -3 -14 5 -19 4 -15 -4 5 -7 1 -8 -10 -4 -15 6 -15 7 -1 18 11 8 13
15 6 22 -8 8 -7 13 0 17 6 4 11 12 11 19 0 6 -7 2 -15 -9 -8 -10 -15 -15 -15
-10 0 6 -16 -6 -36 -25 -27 -25 -34 -28 -25 -11 11 20 98 96 120 104 5 1 11
17 13 33 2 24 -1 31 -19 33 -14 2 -20 8 -16 18 7 18 -6 18 -30 -1 -21 -15 -47
-10 -47 10 0 15 -31 25 -80 25 -66 0 -110 12 -111 29 -1 9 -6 1 -11 -16 -6
-18 -15 -33 -19 -33 -17 0 -9 -48 9 -53 15 -4 15 -5 0 -6 -9 0 -20 4 -23 9 -3
6 -13 10 -22 10 -10 0 -5 -10 16 -29 30 -28 41 -61 21 -61 -5 0 -7 -7 -3 -16
5 -14 3 -15 -15 -5 -16 8 -22 9 -22 1 0 -6 -4 -8 -10 -5 -6 3 -7 -1 -4 -9 4
-10 1 -16 -7 -17 -8 0 28 -9 80 -19 90 -19 103 -25 153 -77 11 -12 25 -20 29
-18 4 3 10 -4 14 -15 3 -11 10 -20 15 -20 5 0 15 -18 21 -40 7 -22 16 -40 20
-40 4 0 3 -17 -2 -37 -26 -105 -30 -113 -55 -119 -14 -4 -23 -8 -21 -11 13
-13 246 47 370 95 66 26 84 41 50 43 -11 0 -13 3 -5 6 14 6 16 49 2 58 -16 10
-50 -5 -50 -21 0 -8 -4 -14 -8 -14 -16 0 -30 23 -25 39 4 9 -3 5 -15 -9 -22
-24 -22 -25 -37 -6 -15 20 -21 76 -7 76 10 0 36 60 28 67 -3 3 -1 12 4 18 8 9
3 21 -15 43 -14 16 -25 38 -25 47 0 17 2 17 22 -1 12 -10 18 -13 14 -6 -17 29
14 7 72 -50 60 -60 131 -175 115 -187 -10 -7 -17 -61 -8 -61 7 0 137 59 143
65 2 2 -12 19 -32 37 -39 35 -45 53 -22 61 12 5 13 11 3 37 -9 24 -9 34 1 48
25 34 43 84 37 103 -8 25 -31 24 -47 0 -9 -14 -16 -17 -24 -10 -9 8 -11 5 -7
-10 4 -15 1 -21 -11 -21 -9 0 -16 -4 -16 -9 0 -5 -10 -7 -22 -3 -14 3 -19 2
-14 -6 4 -7 3 -12 -3 -12 -6 0 -13 -11 -17 -25 -3 -14 -10 -22 -15 -19 -13 8
-11 52 4 57 7 3 5 6 -5 6 -25 1 -22 18 7 45 14 13 25 30 25 39 0 8 15 24 32
36 l33 20 13 -22 13 -22 -4 22 c-6 29 56 87 84 80 13 -3 19 0 19 10 0 11 -7
14 -23 11 -23 -4 -23 -3 -16 36 5 23 8 44 9 47 0 13 -29 18 -36 7 -4 -6 -3 -8
4 -4 6 3 13 3 16 -2 9 -15 -9 -29 -46 -35 -37 -6 -38 -5 -38 24 0 32 -46 82
-79 84 -9 1 -27 5 -40 9 -18 6 -22 5 -16 -4z m-105 -150 c0 -5 -2 -10 -4 -10
-3 0 -8 5 -11 10 -3 6 -1 10 4 10 6 0 11 -4 11 -10z m310 0 c0 -5 -2 -10 -4
-10 -3 0 -8 5 -11 10 -3 6 -1 10 4 10 6 0 11 -4 11 -10z m-60 -10 c0 -5 -7
-10 -16 -10 -8 0 -13 -4 -9 -9 3 -5 0 -13 -6 -16 -17 -11 -22 1 -9 24 11 21
40 29 40 11z m-510 -119 c11 -16 20 -33 19 -38 -1 -4 1 -16 5 -25 8 -18 -20
-53 -43 -53 -8 0 -16 -6 -19 -14 -3 -9 0 -11 8 -6 8 5 11 4 7 -3 -8 -12 -47
-4 -47 9 0 5 -8 9 -17 9 -14 0 -22 16 -33 64 -15 63 -15 65 5 75 11 5 37 10
57 10 30 1 41 -5 58 -28z m230 -87 c0 -2 -7 -4 -15 -4 -8 0 -15 4 -15 10 0 5
7 7 15 4 8 -4 15 -8 15 -10z m-26 -26 c-3 -4 3 -8 13 -8 10 0 24 -9 31 -20 10
-17 10 -20 -3 -20 -9 0 -18 7 -21 15 -4 8 -12 15 -19 15 -7 0 -15 6 -18 13 -3
8 1 14 9 14 7 0 11 -4 8 -9z m140 -4 c3 -8 2 -12 -4 -9 -6 3 -10 10 -10 16 0
14 7 11 14 -7z m-294 -34 c0 -5 -4 -10 -10 -10 -5 0 -10 5 -10 10 0 6 5 10 10
10 6 0 10 -4 10 -10z m-46 -76 c9 -8 16 -23 16 -31 0 -14 -3 -14 -20 2 -11 10
-20 24 -20 32 0 17 5 17 24 -3z m96 -64 c0 -5 -4 -10 -9 -10 -6 0 -13 5 -16
10 -3 6 1 10 9 10 9 0 16 -4 16 -10z m235 -100 c-3 -5 -10 -10 -16 -10 -5 0
-9 5 -9 10 0 6 7 10 16 10 8 0 12 -4 9 -10z"/>
<path d="M1410 880 c0 -5 5 -10 10 -10 6 0 10 5 10 10 0 6 -4 10 -10 10 -5 0
-10 -4 -10 -10z"/>
<path d="M1655 1170 c-3 -5 -1 -10 4 -10 6 0 11 5 11 10 0 6 -2 10 -4 10 -3 0
-8 -4 -11 -10z"/>
<path d="M1390 1140 c-10 -6 -11 -10 -2 -10 6 0 12 -4 12 -9 0 -5 -6 -11 -12
-14 -7 -2 -3 -2 10 0 15 2 22 -2 22 -12 0 -18 21 -20 39 -2 11 10 13 9 8 -5
-7 -21 3 -23 22 -5 8 7 11 7 8 1 -5 -8 4 -11 25 -9 18 1 34 7 36 13 5 15 32 3
32 -13 0 -8 -8 -16 -17 -18 -14 -4 -12 -5 5 -6 12 0 22 -5 22 -11 0 -5 7 -7
15 -4 8 4 12 10 9 15 -3 5 1 9 8 9 7 1 1 8 -14 16 -16 8 -28 19 -28 25 0 6 -4
8 -9 4 -5 -3 -12 -1 -16 5 -4 6 -11 8 -16 5 -5 -4 -9 -1 -9 6 0 8 -4 8 -15 -1
-8 -7 -15 -9 -15 -4 0 4 -5 3 -12 -4 -17 -17 -43 5 -27 24 8 10 8 14 1 14 -6
0 -14 -4 -17 -10 -3 -5 -15 -10 -26 -10 -11 0 -17 5 -14 10 8 13 -5 13 -25 0z"/>
<path d="M2086 1134 c-4 -9 -4 -19 -1 -22 2 -3 7 3 11 12 4 9 4 19 1 22 -2 3
-7 -3 -11 -12z"/>
<path d="M2120 1085 c0 -8 4 -15 10 -15 5 0 7 7 4 15 -4 8 -8 15 -10 15 -2 0
-4 -7 -4 -15z"/>
<path d="M1328 1073 c7 -3 16 -2 19 1 4 3 -2 6 -13 5 -11 0 -14 -3 -6 -6z"/>
<path d="M971 1050 c-1 -12 -10 -15 -38 -13 -38 4 -38 4 -13 -11 15 -8 27 -10
31 -5 3 6 15 2 27 -8 18 -16 19 -20 7 -31 -8 -7 -15 -8 -15 -3 0 11 -56 41
-76 41 -7 0 -14 5 -16 11 -2 7 -18 -1 -37 -17 -32 -27 -32 -28 -12 -36 27 -10
28 -32 1 -23 -21 7 -23 3 -21 -50 0 -16 -2 -24 -5 -17 -3 6 -13 12 -21 12 -13
0 -13 3 -2 18 7 9 9 14 4 9 -5 -4 -22 5 -37 20 -22 21 -28 23 -22 9 5 -13 4
-17 -4 -12 -6 4 -22 1 -34 -5 -21 -11 -22 -11 -9 4 11 14 11 20 1 32 -10 12
-9 15 6 16 18 0 18 1 -1 9 -28 12 -37 12 -30 0 3 -5 -2 -10 -13 -10 -10 0 -22
-3 -26 -7 -4 -5 -11 -8 -14 -8 -4 0 -21 -7 -39 -15 -32 -15 -36 -21 -48 -98
-6 -36 -69 -135 -79 -125 -3 4 -6 1 -6 -6 0 -9 -4 -9 -14 1 -10 9 -11 18 -4
31 5 10 7 21 4 25 -3 3 -6 0 -6 -7 0 -7 -5 -9 -10 -6 -6 4 -8 11 -5 16 4 5 -3
9 -14 9 -12 0 -21 -4 -21 -9 0 -5 -3 -17 -7 -27 -4 -12 -3 -15 5 -10 8 5 12
-1 12 -18 0 -32 42 -116 72 -142 13 -11 53 -42 91 -68 37 -26 67 -51 67 -57 0
-5 4 -9 9 -9 5 0 12 19 16 43 16 91 53 135 136 157 24 7 47 17 51 24 6 8 8 8
8 -1 0 -7 7 -10 15 -7 8 4 22 1 30 -6 22 -18 71 -5 100 26 19 21 25 23 25 10
0 -9 -7 -16 -15 -16 -20 0 -19 -16 1 -24 22 -9 24 -8 24 11 0 15 2 14 14 -3
11 -14 11 -21 3 -26 -9 -6 -9 -8 0 -8 15 0 5 -37 -13 -44 -8 -3 -29 3 -47 13
-17 10 -38 16 -44 14 -7 -3 -13 0 -13 5 0 6 -12 9 -26 7 -14 -1 -28 3 -30 9
-5 14 -84 9 -84 -5 0 -6 -6 -9 -12 -8 -28 3 -36 -2 -63 -41 -36 -52 -49 -124
-26 -144 29 -26 211 -63 244 -50 25 9 21 27 -4 19 -18 -6 -20 -4 -12 10 10 18
-4 65 -19 65 -15 0 -8 38 8 44 8 3 12 10 9 16 -3 6 4 10 17 10 18 0 20 2 8 10
-22 14 7 22 61 17 l44 -4 3 -45 c3 -39 7 -47 27 -52 13 -3 32 -3 42 0 16 6 16
5 -2 -9 -18 -15 -18 -16 -2 -17 21 0 22 -29 2 -56 -8 -10 -15 -22 -15 -26 0
-8 53 -3 157 13 66 11 71 13 60 30 -7 11 -21 19 -32 19 -18 0 -23 10 -32 67
-11 63 -10 70 13 120 14 29 30 53 35 53 5 0 9 9 9 20 0 18 -3 19 -22 9 -13 -7
-26 -17 -30 -23 -5 -7 -8 -4 -8 6 0 10 -9 22 -19 28 -26 13 -44 13 -35 -1 4
-8 1 -8 -13 -1 -14 8 -27 7 -46 -3 -25 -13 -27 -12 -27 5 0 23 54 87 80 95 22
7 16 35 -7 35 -8 0 -12 -4 -9 -9 3 -5 -1 -14 -8 -20 -12 -10 -15 -8 -19 11 -4
22 -4 22 -6 -2 l-1 -25 -13 25 c-7 14 -19 25 -27 25 -8 0 -26 6 -39 13 -12 8
-31 12 -41 9 -15 -4 -17 -1 -11 17 10 25 41 34 41 12 0 -9 7 -16 15 -16 21 0
19 9 -10 36 -29 27 -30 30 -9 38 8 3 13 2 10 -2 -2 -4 2 -15 9 -25 12 -16 13
-16 17 7 4 21 -2 30 -33 52 -21 14 -40 36 -42 47 -2 12 -5 15 -6 7z m-309
-102 c-9 -9 -12 -7 -12 12 0 19 3 21 12 12 9 -9 9 -15 0 -24z m312 -29 c-12
-14 -19 -15 -29 -6 -11 10 -10 13 1 15 8 2 14 7 14 12 0 5 7 7 15 3 14 -5 14
-7 -1 -24z m-130 -15 c11 -28 6 -38 -9 -18 -8 10 -15 22 -15 27 0 13 18 7 24
-9z m-79 -14 c-3 -6 1 -7 9 -4 9 3 16 1 16 -5 0 -6 7 -11 15 -11 8 0 15 -8 14
-17 0 -11 -3 -13 -6 -5 -7 17 -23 15 -23 -3 0 -9 7 -18 15 -21 8 -4 12 -10 9
-15 -5 -9 -93 31 -94 43 0 4 7 5 15 2 8 -4 23 -3 33 1 15 6 14 8 -6 16 -22 8
-22 29 -1 29 6 0 7 -4 4 -10z m5 -100 c14 -11 19 -20 13 -20 -7 0 -22 9 -33
20 -26 26 -13 26 20 0z m70 -19 c0 -12 -20 -25 -27 -18 -7 7 6 27 18 27 5 0 9
-4 9 -9z m125 -41 c4 -6 -12 -10 -42 -9 -39 1 -43 3 -23 9 36 11 58 11 65 0z
m100 -32 c13 -13 -22 -15 -39 -2 -17 12 -16 13 8 10 14 -1 28 -5 31 -8z m186
-25 c-12 -20 -14 -14 -5 12 4 9 9 14 11 11 3 -2 0 -13 -6 -23z m-21 -23 c0 -5
-4 -10 -10 -10 -5 0 -10 5 -10 10 0 6 5 10 10 10 6 0 10 -4 10 -10z m-142 -54
c8 -26 12 -50 9 -52 -2 -3 -16 0 -31 5 -27 11 -32 32 -20 79 10 34 27 21 42
-32z m-262 11 c1 -30 -10 -34 -32 -13 -22 23 -18 46 9 42 16 -2 22 -10 23 -29z
m-16 -67 c0 -5 -4 -10 -10 -10 -5 0 -10 5 -10 10 0 6 5 10 10 10 6 0 10 -4 10
-10z"/>
<path d="M2086 1033 c5 -19 4 -24 -6 -18 -9 6 -10 1 -5 -16 11 -37 24 -45 75
-48 12 -1 12 -3 2 -10 -11 -7 -10 -10 3 -15 24 -9 37 -7 30 4 -3 6 2 10 11 10
16 0 16 1 -1 14 -18 13 -17 14 8 14 15 0 25 -4 22 -7 -2 -4 10 -5 28 -3 18 3
26 7 19 9 -6 3 -10 8 -8 12 3 4 -4 12 -15 19 -13 8 -19 9 -19 1 0 -6 -7 -3
-16 5 -8 9 -23 16 -32 16 -9 0 -28 6 -42 13 -55 29 -61 29 -54 0z"/>
<path d="M1027 1039 c-18 -10 -16 -14 18 -41 28 -23 33 -33 23 -39 -10 -7 -10
-9 2 -10 8 -1 18 -1 23 0 4 0 7 -6 7 -14 0 -13 -4 -14 -20 -5 -14 7 -20 7 -20
0 0 -5 4 -10 10 -10 5 0 7 -6 4 -14 -4 -11 5 -13 43 -10 26 2 52 3 56 4 5 0 5
5 2 10 -3 6 2 10 12 11 11 0 13 3 5 6 -6 2 -10 8 -7 13 3 5 -2 16 -11 24 -8 9
-12 16 -8 16 3 0 1 7 -6 15 -7 9 -19 14 -27 11 -9 -4 -13 0 -11 11 2 12 -4 17
-19 16 -13 0 -24 -2 -25 -3 -2 -1 -14 -3 -27 -6 -20 -4 -22 -2 -11 11 15 18
12 18 -13 4z m108 -79 c3 -5 2 -10 -4 -10 -5 0 -13 5 -16 10 -3 6 -2 10 4 10
5 0 13 -4 16 -10z"/>
<path d="M2035 1030 c-3 -5 -1 -10 4 -10 6 0 11 5 11 10 0 6 -2 10 -4 10 -3 0
-8 -4 -11 -10z"/>
<path d="M1221 1014 c0 -11 3 -14 6 -6 3 7 2 16 -1 19 -3 4 -6 -2 -5 -13z"/>
<path d="M488 923 c-14 -16 -38 -96 -25 -83 6 7 47 100 43 100 -2 0 -10 -8
-18 -17z"/>
<path d="M1225 931 c-3 -5 -1 -12 5 -16 5 -3 10 1 10 9 0 18 -6 21 -15 7z"/>
<path d="M1940 936 c0 -2 7 -6 15 -10 8 -3 15 -1 15 4 0 6 -7 10 -15 10 -8 0
-15 -2 -15 -4z"/>
<path d="M2314 875 c19 -14 36 -12 36 6 0 5 -12 9 -27 9 -27 -1 -27 -1 -9 -15z"/>
<path d="M2376 881 c-4 -7 -5 -15 -2 -18 9 -9 19 4 14 18 -4 11 -6 11 -12 0z"/>
<path d="M1558 854 c-3 -5 -2 -18 2 -28 3 -11 9 -15 12 -10 3 5 2 18 -2 28 -3
11 -9 15 -12 10z"/>
<path d="M2250 796 c0 -27 15 -42 25 -26 8 13 -3 50 -16 50 -5 0 -9 -11 -9
-24z"/>
<path d="M1365 780 c-3 -5 -1 -10 4 -10 6 0 11 5 11 10 0 6 -2 10 -4 10 -3 0
-8 -4 -11 -10z"/>
<path d="M1253 765 c0 -8 7 -15 15 -15 12 0 12 3 2 15 -7 8 -13 15 -15 15 -1
0 -2 -7 -2 -15z"/>
<path d="M1220 760 c0 -5 5 -10 11 -10 5 0 7 5 4 10 -3 6 -8 10 -11 10 -2 0
-4 -4 -4 -10z"/>
<path d="M2583 723 c15 -2 37 -2 50 0 12 2 0 4 -28 4 -27 0 -38 -2 -22 -4z"/>
<path d="M1831 674 c0 -11 3 -14 6 -6 3 7 2 16 -1 19 -3 4 -6 -2 -5 -13z"/>
<path d="M2200 610 c-34 -11 -456 -140 -660 -202 -225 -68 -641 -205 -664
-219 -15 -9 -25 -6 -49 12 -24 18 -29 19 -24 5 4 -10 1 -19 -8 -22 -8 -3 -13
-15 -11 -26 2 -16 12 -21 42 -24 22 -2 61 -10 87 -18 26 -8 47 -10 47 -5 0 5
5 9 10 9 6 0 10 -8 10 -17 0 -14 2 -15 9 -5 6 11 10 10 15 -4 11 -28 -13 -43
-31 -19 -14 18 -15 18 -9 2 3 -10 6 -21 6 -23 0 -2 16 -4 35 -4 30 0 35 3 35
23 0 16 -3 18 -9 9 -7 -11 -10 -10 -15 3 -9 25 -7 32 9 32 8 0 15 -5 15 -11 0
-6 5 -4 10 4 8 13 10 12 10 -2 0 -21 22 -19 32 2 4 10 7 5 8 -15 2 -30 2 -30
10 -5 8 25 8 25 9 2 1 -19 5 -22 24 -17 31 10 45 25 22 25 -30 0 -11 10 29 15
33 5 51 -8 24 -17 -7 -3 -8 -9 -3 -18 6 -10 11 -6 22 14 16 31 29 33 36 6 4
-15 14 -20 40 -20 48 0 73 10 55 21 -10 7 -9 9 5 9 9 0 17 -5 17 -12 0 -6 7
-3 16 8 8 10 13 14 10 8 -3 -6 1 -11 8 -11 7 0 13 7 13 14 0 10 -11 13 -36 11
-33 -3 -36 0 -39 25 -3 21 1 27 17 27 11 0 23 -5 26 -10 3 -6 0 -10 -7 -10 -9
0 -9 -3 2 -10 25 -16 34 -11 52 30 19 47 32 50 53 13 14 -25 15 -26 9 -4 -5
21 -3 23 14 19 14 -4 22 0 25 11 4 15 5 15 6 -1 1 -11 7 -15 22 -11 12 4 25 0
31 -8 7 -10 8 -8 3 8 -6 21 -3 22 59 19 35 -1 62 2 60 6 -3 4 20 8 51 8 31 0
54 4 51 9 -4 5 4 7 16 4 18 -5 20 -3 11 7 -7 7 -30 11 -62 9 -27 -2 -46 0 -42
4 4 4 42 9 84 10 43 1 77 5 77 10 0 4 -14 7 -32 7 -41 0 -29 12 14 15 18 1 60
3 93 4 49 3 55 5 30 11 -29 7 -28 9 15 23 8 3 2 6 -15 7 l-30 1 25 14 c16 9
20 15 10 15 -8 1 -1 8 15 15 17 7 33 11 37 9 4 -3 5 2 2 10 -3 9 3 17 18 21
55 17 108 47 108 61 0 8 6 17 14 20 8 3 17 16 20 30 4 13 11 24 16 24 6 0 10
8 10 18 0 20 -30 25 -70 12z m-222 -267 c-10 -2 -26 -2 -35 0 -10 3 -2 5 17 5
19 0 27 -2 18 -5z m-253 -93 c3 -5 -1 -10 -9 -10 -9 0 -16 5 -16 10 0 6 4 10
9 10 6 0 13 -4 16 -10z m-135 -20 c0 -5 -5 -10 -11 -10 -5 0 -7 5 -4 10 3 6 8
10 11 10 2 0 4 -4 4 -10z m-152 -27 c-10 -2 -28 -2 -40 0 -13 2 -5 4 17 4 22
1 32 -1 23 -4z m-602 -36 c2 -14 -1 -15 -17 -6 -11 5 -17 15 -13 20 9 14 27 6
30 -14z m380 -12 c-3 -9 -11 -13 -16 -10 -8 5 -7 11 1 21 14 18 24 11 15 -11z
m31 6 c0 -11 -5 -17 -9 -15 -11 7 -10 34 1 34 6 0 9 -9 8 -19z m20 -3 c-3 -8
-6 -5 -6 6 -1 11 2 17 5 13 3 -3 4 -12 1 -19z m-392 2 c3 -6 -1 -7 -9 -4 -18
7 -21 14 -7 14 6 0 13 -4 16 -10z"/>
<path d="M1272 490 c0 -14 2 -19 5 -12 2 6 2 18 0 25 -3 6 -5 1 -5 -13z"/>
<path d="M1375 433 c-19 -15 -18 -15 14 -9 18 3 39 6 45 6 6 0 4 5 -4 10 -21
13 -32 12 -55 -7z"/>
<path d="M918 383 c7 -3 16 -2 19 1 4 3 -2 6 -13 5 -11 0 -14 -3 -6 -6z"/>
<path d="M633 308 c-2 -16 1 -18 10 -9 7 7 8 14 1 21 -6 6 -10 2 -11 -12z"/>
<path d="M605 310 c-3 -5 -1 -10 4 -10 6 0 11 5 11 10 0 6 -2 10 -4 10 -3 0
-8 -4 -11 -10z"/>
<path d="M681 279 c21 -18 22 -20 4 -14 -34 11 -39 10 -42 -5 -2 -11 5 -15 27
-16 20 -1 37 -9 46 -23 16 -22 58 -29 70 -10 10 16 -17 29 -37 18 -23 -12 -29
-11 -29 1 0 6 7 10 16 10 14 0 14 3 4 15 -7 9 -15 13 -17 11 -3 -2 -13 4 -24
15 -10 10 -24 19 -30 19 -6 0 -1 -9 12 -21z"/>
<path d="M680 215 c0 -8 2 -15 4 -15 2 0 6 7 10 15 3 8 1 15 -4 15 -6 0 -10
-7 -10 -15z"/>
<path d="M1768 223 c7 -3 16 -2 19 1 4 3 -2 6 -13 5 -11 0 -14 -3 -6 -6z"/>
<path d="M701 194 c0 -11 3 -14 6 -6 3 7 2 16 -1 19 -3 4 -6 -2 -5 -13z"/>
<path d="M741 172 c-1 -25 20 -26 27 -1 3 12 2 12 -6 0 -8 -11 -11 -10 -15 5
-4 16 -5 15 -6 -4z"/>
<path d="M1525 150 c-3 -5 -2 -10 4 -10 5 0 13 5 16 10 3 6 2 10 -4 10 -5 0
-13 -4 -16 -10z"/>
<path d="M830 70 c0 -5 5 -10 10 -10 6 0 10 5 10 10 0 6 -4 10 -10 10 -5 0
-10 -4 -10 -10z"/>
<path d="M910 60 c0 -5 5 -10 10 -10 6 0 10 5 10 10 0 6 -4 10 -10 10 -5 0
-10 -4 -10 -10z"/>
</g>
</svg>
