<?xml version="1.0" standalone="no"?>
<!DOCTYPE svg PUBLIC "-//W3C//DTD SVG 20010904//EN"
 "http://www.w3.org/TR/2001/REC-SVG-20010904/DTD/svg10.dtd">
<svg version="1.0" xmlns="http://www.w3.org/2000/svg"
 width="259.000000pt" height="194.000000pt" viewBox="0 0 259.000000 194.000000"
 preserveAspectRatio="xMidYMid meet">

<g transform="translate(0.000000,194.000000) scale(0.100000,-0.100000)"
fill="#000000" stroke="none">
<path d="M0 1670 l0 -271 73 40 c294 161 764 286 1250 332 93 9 130 16 134 26
6 16 113 67 121 58 3 -3 -3 -14 -13 -25 -26 -28 -13 -35 39 -20 32 9 49 9 64
1 12 -7 79 -11 164 -11 208 0 465 -17 706 -46 l52 -7 0 97 0 96 -1295 0 -1295
0 0 -270z"/>
<path d="M1301 1691 c-14 -26 -3 -33 25 -14 13 8 30 13 39 10 8 -4 17 -2 20 2
5 9 -27 21 -57 21 -10 0 -22 -8 -27 -19z"/>
<path d="M1451 1701 c-10 -7 -8 -10 8 -16 27 -8 36 -2 18 13 -7 6 -18 7 -26 3z"/>
<path d="M2221 1681 c-19 -19 -61 -120 -61 -146 0 -8 -9 -15 -19 -15 -12 0
-21 -10 -26 -27 -7 -26 -8 -26 -15 -8 -4 11 -5 32 -3 48 4 17 1 27 -7 27 -7 0
-10 7 -7 15 5 11 0 13 -25 8 -20 -4 -29 -3 -25 4 4 6 -7 13 -25 17 -29 6 -30
7 -13 20 17 12 14 14 -31 24 -27 6 -68 11 -92 10 -37 -1 -43 -4 -39 -19 3 -10
-1 -20 -9 -23 -18 -7 -44 3 -44 18 0 6 -5 4 -10 -4 -6 -10 -4 -20 7 -32 17
-19 11 -48 -9 -49 -23 -1 26 -18 56 -18 32 -1 108 38 100 51 -3 4 0 8 5 8 6 0
11 -5 11 -11 0 -7 10 -9 24 -5 25 6 46 -9 24 -17 -7 -2 3 -7 22 -12 52 -11 53
-14 21 -46 -18 -18 -35 -27 -45 -23 -9 3 -16 1 -16 -5 0 -6 -8 -12 -17 -12
-10 -1 4 -5 30 -9 27 -5 51 -11 54 -14 12 -11 -11 -26 -48 -32 -37 -6 -38 -7
-18 -18 12 -6 24 -17 27 -24 3 -11 0 -12 -17 -3 -18 10 -21 9 -21 -6 0 -10
-12 -24 -28 -31 -23 -10 -29 -10 -38 3 -7 9 -18 13 -28 9 -19 -7 -59 28 -48
42 4 5 -3 1 -15 -10 -35 -29 -74 -130 -43 -111 13 8 13 -1 -1 -26 -5 -11 -15
-17 -21 -13 -6 4 -9 1 -6 -6 4 -14 -25 -50 -41 -50 -5 0 -12 -8 -15 -17 -6
-15 -8 -15 -16 -3 -10 16 -14 9 -24 -40 -2 -14 -4 -8 -2 13 1 26 -2 37 -12 37
-7 0 -10 -5 -6 -11 3 -6 0 -15 -7 -20 -22 -14 -56 -10 -63 7 -9 25 -6 31 5 11
10 -18 12 -18 30 -1 28 25 24 31 -20 30 -25 0 -37 -5 -34 -12 2 -7 -11 -14
-32 -18 -34 -7 -35 -8 -19 -21 25 -18 4 -44 -32 -37 -17 3 -31 -2 -45 -17 -11
-11 -15 -21 -10 -21 6 0 22 -11 36 -25 14 -14 25 -21 25 -15 0 6 16 26 35 46
19 19 35 32 35 28 0 -3 6 -1 14 5 14 12 46 5 58 -12 8 -13 -13 -47 -30 -47 -7
0 -17 -11 -22 -24 -5 -14 -18 -30 -29 -35 -25 -14 -101 -14 -101 -1 0 6 5 10
11 10 18 0 -19 30 -38 31 -16 0 -16 1 2 9 l20 9 -20 1 c-28 3 -27 3 -57 -4
-17 -4 -28 -2 -28 4 0 5 7 10 15 10 8 0 15 4 15 9 0 13 -57 6 -75 -9 -8 -7
-15 -18 -15 -26 0 -8 -18 -15 -45 -20 -28 -4 -45 -11 -45 -20 0 -15 -10 -17
-34 -8 -8 3 -12 12 -9 20 8 20 23 17 17 -3 -5 -15 -4 -15 4 -3 6 8 8 18 6 22
-3 4 4 9 15 9 12 1 27 2 34 3 6 1 16 7 20 14 4 6 14 12 21 12 8 0 16 10 20 23
3 14 18 27 40 35 19 7 40 19 46 27 10 13 8 15 -11 15 -19 0 -21 2 -9 10 11 7
11 10 2 10 -8 0 -10 5 -6 13 6 10 4 10 -7 0 -7 -7 -21 -13 -32 -13 -10 0 -16
-4 -13 -9 3 -5 -1 -11 -9 -15 -8 -3 -15 -16 -15 -29 0 -17 -9 -26 -35 -36 -19
-7 -35 -18 -35 -24 0 -7 -4 -6 -11 3 -8 11 -12 12 -16 3 -2 -7 -12 -13 -21
-14 -11 0 -12 -2 -4 -6 6 -2 12 -9 12 -14 0 -6 -5 -7 -10 -4 -6 4 -18 1 -26
-6 -12 -10 -17 -8 -29 7 -12 17 -11 19 7 22 11 2 35 12 52 21 17 10 40 17 51
15 20 -3 20 -3 0 12 -20 15 -19 16 4 12 21 -2 29 6 55 55 29 55 33 58 63 55
18 -2 33 -3 33 -1 0 1 -12 15 -27 30 -18 18 -36 27 -50 25 -13 -2 -23 1 -23 7
0 6 -7 8 -15 5 -8 -4 -12 -10 -9 -15 5 -9 -7 -16 -41 -21 -10 -2 -27 -11 -37
-20 -10 -10 -32 -18 -48 -18 -16 0 -30 -5 -30 -11 0 -6 -9 -9 -20 -6 -10 3
-21 0 -23 -7 -2 -6 -8 -8 -11 -4 -4 3 1 15 12 26 17 17 18 21 6 26 -10 4 -18
-4 -26 -24 -5 -17 -14 -30 -18 -30 -13 0 -18 24 -8 43 5 10 5 17 -1 17 -5 0
-12 -7 -15 -16 -3 -9 -13 -14 -21 -10 -8 3 -17 1 -20 -5 -4 -5 -11 -7 -16 -4
-5 4 -9 0 -9 -7 0 -10 -2 -10 -9 1 -5 7 -14 10 -20 6 -18 -10 -63 3 -55 17 5
7 2 9 -9 5 -9 -3 -19 -2 -22 3 -7 12 -55 13 -72 2 -14 -9 -5 -26 20 -35 24 -9
12 -27 -19 -27 -21 0 -29 9 -25 32 0 4 -6 5 -14 2 -8 -4 -15 -2 -15 4 0 5 -22
17 -49 26 -43 14 -53 14 -84 1 -33 -14 -52 -38 -48 -61 1 -7 -5 -14 -13 -17
-11 -4 -13 -13 -7 -34 4 -15 7 -38 6 -50 -1 -19 5 -22 59 -29 34 -4 69 -7 78
-5 9 1 30 -5 47 -13 16 -9 47 -16 68 -17 l38 -1 -32 -9 c-24 -7 -33 -17 -38
-39 -7 -32 -88 -96 -106 -84 -13 7 -59 -34 -59 -53 0 -7 -6 -12 -12 -11 -7 2
-12 -5 -10 -14 2 -12 -4 -18 -17 -18 -11 0 -22 -4 -26 -9 -11 -18 -68 -41
-102 -41 -33 0 -34 -1 -28 -29 4 -21 2 -30 -9 -34 -9 -4 -16 -11 -16 -16 0
-17 60 -18 108 -2 26 9 59 16 74 16 17 -1 44 12 69 32 23 18 46 33 52 33 5 0
27 18 49 41 22 23 65 53 96 67 32 14 63 32 71 39 7 8 19 12 26 9 14 -5 27 28
19 49 -4 9 -15 10 -43 4 -44 -10 -96 2 -96 22 0 8 6 13 13 12 6 -2 12 1 12 6
0 5 15 5 36 1 37 -9 64 -4 64 10 0 5 3 16 7 26 6 15 1 17 -50 10 -59 -6 -81 8
-29 20 15 3 35 8 45 11 9 2 24 -3 33 -12 13 -12 29 -15 65 -12 54 5 67 -8 36
-35 -11 -10 -17 -18 -12 -18 4 0 -3 -9 -16 -20 l-24 -19 32 11 c17 7 37 23 44
37 l12 26 6 -23 c7 -26 20 -30 32 -11 4 8 11 10 16 5 4 -4 0 -12 -10 -17 -9
-6 -15 -14 -12 -20 6 -9 -8 -13 -30 -10 -5 1 8 -15 30 -36 24 -24 43 -35 47
-28 5 6 8 3 8 -7 0 -20 20 -24 36 -8 13 13 44 3 44 -14 0 -7 7 -21 15 -32 11
-14 14 -15 9 -3 -3 10 -1 20 5 24 10 6 15 -6 12 -31 -1 -6 12 -9 31 -7 18 2
27 0 21 -3 -18 -8 -16 -24 1 -24 8 0 18 10 22 23 8 29 34 58 45 51 5 -3 9 1 9
8 0 16 63 78 79 78 20 0 12 -29 -15 -53 -21 -19 -23 -25 -11 -30 9 -3 18 1 22
11 6 15 8 14 16 -6 10 -27 2 -52 -17 -52 -8 0 -14 -10 -14 -26 0 -14 -9 -33
-20 -42 -11 -10 -23 -30 -26 -47 -3 -16 -9 -34 -15 -39 -5 -6 -9 -19 -9 -30 0
-16 -3 -17 -12 -8 -7 7 -18 12 -26 12 -13 0 -12 -12 5 -57 2 -6 -5 -14 -16
-18 -12 -3 -24 -17 -27 -31 -8 -31 -40 -54 -75 -54 -15 0 -29 -6 -32 -12 -2
-7 -17 -13 -33 -13 -21 0 -29 -5 -28 -17 1 -10 -3 -16 -8 -15 -5 1 -17 -8 -25
-20 -15 -23 -15 -23 16 -12 18 6 45 9 61 5 16 -3 32 -1 35 3 3 5 35 25 71 45
45 25 77 36 102 35 95 -4 262 18 259 34 -1 6 6 13 17 15 11 2 16 0 12 -7 -4
-6 0 -11 9 -11 9 0 13 5 9 11 -4 7 -1 10 7 7 8 -3 30 6 49 19 19 12 40 23 47
23 7 0 13 5 13 11 0 6 7 9 15 5 8 -3 15 -1 15 4 0 6 8 10 17 10 22 0 11 10
-17 15 -37 7 -34 13 18 35 77 33 102 71 74 111 -9 13 -16 40 -17 62 -1 21 -5
41 -11 45 -5 4 -14 16 -20 27 -6 11 -22 26 -36 32 -14 7 -31 19 -37 27 -10 12
-3 16 39 25 28 6 65 11 82 11 41 0 29 11 -19 19 -34 6 -38 10 -41 39 -2 18 2
40 9 48 10 13 10 17 -1 24 -12 7 -11 10 3 16 10 4 16 13 13 20 -8 22 25 17 51
-8 l23 -21 0 20 c0 12 6 23 13 26 7 2 0 10 -15 17 -16 7 -28 17 -28 21 0 4
-10 5 -21 2 -15 -4 -20 -2 -17 7 6 18 109 57 197 75 44 9 80 22 86 31 35 54
76 80 104 65 10 -6 21 -7 25 -4 3 3 6 1 6 -5 0 -15 29 -42 45 -42 8 0 12 6 10
13 -3 6 1 30 9 52 12 36 21 43 77 67 42 17 65 33 67 45 3 25 -55 123 -73 123
-8 0 -15 9 -15 20 0 14 -5 18 -16 13 -13 -5 -15 -2 -10 15 6 18 4 21 -9 16
-11 -5 -18 0 -22 15 -7 27 -46 28 -72 2z m-1281 -523 c0 -5 -8 -8 -17 -9 -14
0 -13 -3 5 -12 19 -8 25 -8 33 4 5 8 9 12 10 9 0 -3 2 -14 4 -25 1 -11 6 -34
10 -52 6 -25 4 -32 -11 -36 -12 -3 -8 -5 11 -6 17 -1 39 -8 49 -16 19 -15 19
-15 -1 -15 -11 0 -23 -7 -27 -15 -7 -18 -26 -20 -26 -2 0 13 -40 43 -52 39
-14 -4 -9 15 7 28 8 7 12 16 9 21 -3 5 0 18 6 29 8 16 8 20 -4 20 -8 0 -16 -4
-18 -9 -1 -5 -12 -11 -23 -13 -16 -2 -21 3 -23 29 -4 41 15 65 40 49 10 -6 18
-14 18 -18z m876 -15 c-7 -7 -26 7 -26 19 0 6 6 6 15 -2 9 -7 13 -15 11 -17z
m-936 -52 c0 -20 -13 -41 -25 -41 -10 0 -11 5 -2 25 12 25 27 34 27 16z m810
-351 c0 -5 -2 -10 -4 -10 -3 0 -8 5 -11 10 -3 6 -1 10 4 10 6 0 11 -4 11 -10z
m1 -153 c-1 -12 -15 -9 -19 4 -3 6 1 10 8 8 6 -3 11 -8 11 -12z"/>
<path d="M2120 1670 c-9 -6 -10 -10 -3 -10 6 0 15 5 18 10 8 12 4 12 -15 0z"/>
<path d="M2044 1635 c-18 -14 -18 -14 8 -15 32 0 58 9 58 21 0 14 -44 10 -66
-6z"/>
<path d="M1071 1626 c-18 -21 4 -30 40 -16 16 7 29 15 29 19 0 13 -58 11 -69
-3z"/>
<path d="M1480 1626 c0 -4 9 -21 20 -36 13 -18 16 -31 10 -35 -7 -4 -7 -12 0
-26 9 -16 22 -19 97 -19 l86 0 -19 21 c-10 12 -20 16 -22 10 -2 -7 -17 7 -34
30 -17 24 -35 39 -43 35 -8 -3 -15 0 -17 6 -3 8 -11 7 -28 -2 -20 -11 -25 -10
-37 6 -7 10 -13 14 -13 10z"/>
<path d="M2510 1613 c0 -4 5 -15 10 -23 8 -13 10 -13 10 2 0 9 -4 20 -10 23
-5 3 -10 3 -10 -2z"/>
<path d="M1214 1586 c6 -16 2 -18 -30 -11 -52 9 -60 -10 -23 -57 30 -37 31
-37 51 -19 11 11 17 24 14 30 -4 5 -2 12 4 16 5 3 10 2 10 -3 0 -6 9 -8 19 -5
16 4 17 8 8 18 -7 7 -14 11 -16 9 -2 -2 -12 7 -23 19 -17 19 -19 19 -14 3z"/>
<path d="M1716 1566 c21 -15 30 -14 19 3 -3 6 -14 11 -23 11 -13 0 -13 -2 4
-14z"/>
<path d="M2551 1541 c-12 -8 -12 -12 -2 -25 10 -11 10 -16 2 -16 -9 0 -9 -5
-1 -20 20 -37 40 -24 40 25 0 46 -10 54 -39 36z"/>
<path d="M1704 1525 c8 -8 18 -15 22 -15 3 0 1 7 -6 15 -7 8 -17 15 -22 15 -5
0 -3 -7 6 -15z"/>
<path d="M1946 1521 c-4 -7 -5 -15 -2 -18 9 -9 19 4 14 18 -4 11 -6 11 -12 0z"/>
<path d="M800 1510 c-21 -7 -21 -8 -5 -9 11 0 27 4 35 9 18 11 5 11 -30 0z"/>
<path d="M1750 1500 c0 -6 7 -10 15 -10 8 0 15 2 15 4 0 2 -7 6 -15 10 -8 3
-15 1 -15 -4z"/>
<path d="M1900 1496 c-9 -12 -7 -17 9 -26 18 -9 21 -8 21 9 0 26 -15 34 -30
17z"/>
<path d="M743 1493 c-22 -8 -14 -23 13 -23 15 0 24 5 22 12 -5 14 -18 18 -35
11z"/>
<path d="M1830 1478 c0 -7 5 -20 10 -28 8 -12 10 -9 10 13 0 15 -4 27 -10 27
-5 0 -10 -6 -10 -12z"/>
<path d="M943 1463 c4 -3 1 -13 -6 -22 -11 -14 -10 -14 5 -2 16 12 16 31 1 31
-4 0 -3 -3 0 -7z"/>
<path d="M1246 1435 c-10 -7 -15 -18 -12 -23 3 -5 -1 -15 -9 -22 -13 -11 -18
-10 -28 4 -11 15 -16 14 -59 -6 -29 -13 -48 -28 -48 -38 0 -19 -65 -80 -86
-80 -8 0 -14 -4 -14 -10 0 -5 4 -10 9 -10 6 0 13 5 16 10 3 6 23 10 43 10 20
0 46 7 56 15 11 8 28 15 38 15 21 0 43 16 123 94 33 32 49 51 36 42 -21 -13
-26 -13 -35 -1 -9 12 -14 12 -30 0z"/>
<path d="M646 1431 c-3 -5 -3 -23 0 -41 5 -22 11 -29 21 -26 8 4 23 6 34 6 24
0 27 55 3 64 -23 9 -52 7 -58 -3z"/>
<path d="M740 1414 c0 -14 4 -23 10 -19 17 11 11 -7 -7 -21 -16 -12 -15 -13
15 -14 17 0 31 3 30 8 -2 11 13 42 22 42 4 0 11 -7 14 -16 3 -8 2 -12 -3 -9
-5 3 -12 1 -16 -5 -3 -5 3 -10 14 -10 28 0 27 -18 -1 -22 -13 -2 -27 -13 -33
-26 -5 -12 -18 -25 -28 -28 -14 -5 -16 -9 -6 -20 7 -8 20 -12 30 -9 14 5 19 1
20 -12 2 -17 4 -37 8 -58 0 -5 6 -4 13 3 7 7 21 12 31 12 13 0 17 5 13 15 -3
8 -2 15 3 15 18 0 18 37 -1 49 -10 6 -16 16 -13 21 7 12 26 13 24 3 -3 -20 2
-26 11 -13 9 13 10 13 10 0 0 -9 14 -21 30 -27 27 -10 30 -9 30 8 0 10 -6 19
-14 19 -8 0 -21 9 -29 21 -11 15 -16 17 -20 7 -4 -9 -6 -9 -6 -1 -1 6 4 15 9
18 21 13 9 41 -22 54 -18 8 -39 13 -45 12 -7 -1 -13 3 -13 8 0 6 -7 8 -15 5
-8 -4 -15 -1 -15 5 0 6 -11 11 -25 11 -20 0 -25 -5 -25 -26z m120 -34 c0 -5
-4 -10 -10 -10 -5 0 -10 5 -10 10 0 6 5 10 10 10 6 0 10 -4 10 -10z"/>
<path d="M730 1330 c0 -5 5 -10 10 -10 6 0 10 5 10 10 0 6 -4 10 -10 10 -5 0
-10 -4 -10 -10z"/>
<path d="M645 1310 c-3 -5 -21 -10 -38 -11 -30 0 -30 -1 -9 -10 13 -5 21 -13
17 -18 -18 -29 82 -13 108 17 10 13 8 14 -11 8 -16 -6 -22 -3 -22 8 0 18 -35
22 -45 6z m-5 -40 c0 -5 -5 -10 -11 -10 -5 0 -7 5 -4 10 3 6 8 10 11 10 2 0 4
-4 4 -10z"/>
<path d="M445 1303 c-16 -2 -37 -6 -45 -9 -13 -4 -13 -6 0 -15 13 -8 13 -11
-2 -19 -14 -8 -15 -16 -6 -48 13 -47 26 -62 38 -42 5 8 10 24 10 35 0 11 15
30 33 43 17 12 26 22 19 22 -9 0 -11 7 -7 20 3 11 3 19 -2 19 -4 -1 -21 -4
-38 -6z"/>
<path d="M515 1289 c-4 -6 -5 -12 -2 -15 2 -3 7 2 10 11 7 17 1 20 -8 4z"/>
<path d="M1610 1290 c0 -5 4 -10 9 -10 6 0 13 5 16 10 3 6 -1 10 -9 10 -9 0
-16 -4 -16 -10z"/>
<path d="M2314 1283 c13 -4 15 -7 7 -13 -8 -4 -1 -12 21 -21 18 -7 41 -21 52
-31 10 -9 33 -20 50 -24 16 -3 39 -12 49 -18 15 -9 21 -7 32 7 10 14 20 17 37
11 22 -6 22 -7 4 -14 -19 -6 -19 -7 2 -12 13 -4 22 -2 22 5 -1 27 -20 39 -67
41 -27 1 -56 6 -64 10 -8 4 -5 0 5 -8 40 -33 -10 -16 -55 17 -53 41 -83 57
-101 56 -7 -1 -4 -4 6 -6z m206 -99 c0 -2 -7 -4 -15 -4 -8 0 -15 4 -15 10 0 5
7 7 15 4 8 -4 15 -8 15 -10z"/>
<path d="M2410 1270 c-13 -8 -12 -10 3 -10 9 0 17 5 17 10 0 12 -1 12 -20 0z"/>
<path d="M558 1248 c9 -9 15 -9 24 0 9 9 7 12 -12 12 -19 0 -21 -3 -12 -12z"/>
<path d="M2070 1237 c8 -7 17 -23 19 -37 1 -14 11 -42 21 -62 18 -37 18 -38
-1 -38 -10 0 -19 -4 -19 -10 0 -5 13 -7 30 -4 26 6 30 3 35 -22 4 -16 8 -34
10 -41 4 -13 -17 -23 -48 -22 l-22 0 22 9 c27 11 21 54 -7 47 -10 -2 -24 -1
-31 4 -10 6 -20 1 -31 -14 -15 -19 -18 -19 -18 -5 0 10 9 23 20 30 11 7 20 21
20 31 0 11 4 15 12 11 6 -4 0 8 -15 28 -15 19 -24 38 -20 41 3 4 -14 7 -39 7
-37 0 -47 -4 -55 -23 -10 -22 -9 -23 12 -19 26 4 34 -5 37 -41 1 -14 5 -24 9
-21 16 9 21 -20 6 -31 -10 -7 -14 -20 -10 -33 6 -23 18 -28 27 -13 8 12 46 2
46 -13 0 -23 -15 -35 -30 -26 -24 15 -45 13 -31 -3 6 -8 8 -16 5 -19 -15 -16
80 -148 105 -148 6 0 11 -5 11 -11 0 -5 5 -7 10 -4 6 3 10 2 10 -3 0 -5 10 -8
22 -7 12 1 38 -6 57 -16 35 -17 37 -17 68 2 27 17 52 20 158 22 112 2 125 4
125 20 0 22 -47 23 -116 2 -55 -17 -98 -20 -75 -6 8 5 -10 8 -48 7 -37 -1 -60
3 -57 9 1 6 10 9 20 7 9 -2 16 2 16 9 0 7 -9 9 -26 5 -14 -4 -32 -2 -39 4 -10
8 -20 4 -40 -15 -16 -14 -29 -25 -31 -25 -9 0 5 55 15 58 6 2 11 10 11 19 0
12 -10 14 -45 11 -43 -3 -44 -3 -30 19 12 17 12 23 1 32 -7 6 -16 8 -19 4 -4
-3 -7 -4 -7 -1 0 3 14 15 31 26 l32 20 28 -33 c30 -34 122 -80 139 -70 5 3 18
1 29 -4 10 -6 39 -12 63 -15 23 -2 55 -6 71 -10 15 -3 38 -8 52 -11 l25 -5 0
126 c0 126 0 126 -22 120 -13 -3 -27 -6 -31 -6 -5 0 -6 -3 -4 -7 3 -5 -20 -8
-51 -9 -33 0 -57 -5 -60 -12 -6 -19 -21 -14 -19 8 1 10 3 17 6 15 2 -3 9 -1
15 4 18 14 48 22 41 11 -3 -6 2 -10 11 -10 10 0 14 3 11 7 -4 3 -1 13 6 21 10
13 9 14 -1 8 -7 -4 -20 -2 -28 5 -11 9 -18 9 -22 2 -10 -16 -44 -20 -49 -5 -3
7 4 12 18 12 22 0 22 0 3 15 -19 14 -43 21 -31 8 8 -7 -11 -33 -24 -33 -5 0
-9 7 -9 15 0 18 -5 19 -29 3 -15 -9 -26 -9 -47 1 -15 6 -30 8 -33 4 -12 -17
-68 -15 -75 2 -3 10 -2 14 5 10 5 -4 16 -1 24 5 11 9 12 15 2 25 -10 11 -13
10 -19 -4 -5 -11 -7 -8 -7 11 -1 21 -5 26 -21 23 -11 -2 -20 1 -20 7 0 7 -7 3
-15 -8 -14 -19 -14 -19 -15 2 0 12 -7 25 -16 28 -24 9 -30 7 -14 -7z m-7 -112
c1 -6 -10 -11 -25 -13 -31 -4 -39 14 -10 21 23 6 33 4 35 -8z m312 -65 c3 -5
1 -10 -4 -10 -6 0 -11 5 -11 10 0 6 2 10 4 10 3 0 8 -4 11 -10z m-290 -110
c-3 -5 -1 -10 6 -10 7 0 10 -3 6 -6 -3 -4 -14 -3 -24 0 -15 6 -15 8 -3 16 19
12 23 12 15 0z m30 -79 c-7 -12 25 -30 42 -24 17 6 27 -17 14 -30 -9 -9 -14
-9 -19 -1 -4 7 -16 13 -27 15 -11 3 -20 11 -21 19 0 17 5 30 12 30 3 0 3 -4
-1 -9z"/>
<path d="M615 1230 c3 -5 8 -10 11 -10 2 0 4 5 4 10 0 6 -5 10 -11 10 -5 0 -7
-4 -4 -10z"/>
<path d="M1030 1220 c0 -13 20 -13 40 0 12 8 9 10 -12 10 -16 0 -28 -4 -28
-10z"/>
<path d="M1691 1216 c-11 -13 -11 -20 -3 -28 15 -15 24 -5 20 23 -3 21 -4 21
-17 5z"/>
<path d="M1988 1223 c6 -2 18 -2 25 0 6 3 1 5 -13 5 -14 0 -19 -2 -12 -5z"/>
<path d="M1890 1194 c-34 -16 -34 -16 -13 -26 17 -8 28 -7 48 6 50 33 26 47
-35 20z"/>
<path d="M1380 1099 c0 -5 5 -7 10 -4 6 3 10 8 10 11 0 2 -4 4 -10 4 -5 0 -10
-5 -10 -11z"/>
<path d="M275 970 c-3 -5 -1 -10 4 -10 6 0 11 5 11 10 0 6 -2 10 -4 10 -3 0
-8 -4 -11 -10z"/>
<path d="M840 950 c0 -6 7 -10 15 -10 8 0 15 2 15 4 0 2 -7 6 -15 10 -8 3 -15
1 -15 -4z"/>
<path d="M1908 953 c6 -2 18 -2 25 0 6 3 1 5 -13 5 -14 0 -19 -2 -12 -5z"/>
<path d="M2165 910 c-3 -6 1 -7 9 -4 18 7 21 14 7 14 -6 0 -13 -4 -16 -10z"/>
<path d="M220 901 c0 -5 7 -12 16 -15 14 -5 15 -4 4 9 -14 17 -20 19 -20 6z"/>
<path d="M220 870 c0 -5 5 -10 11 -10 5 0 7 5 4 10 -3 6 -8 10 -11 10 -2 0 -4
-4 -4 -10z"/>
<path d="M94 830 c-28 -42 -27 -65 1 -37 8 9 24 18 34 22 12 4 18 14 17 30 -2
36 -22 30 -52 -15z"/>
<path d="M1255 740 c3 -5 11 -10 16 -10 6 0 7 5 4 10 -3 6 -11 10 -16 10 -6 0
-7 -4 -4 -10z"/>
<path d="M630 674 c0 -22 2 -24 14 -14 8 6 12 18 9 26 -9 23 -23 16 -23 -12z"/>
<path d="M610 605 c-8 -25 -9 -40 -2 -47 7 -7 12 4 17 32 9 53 0 62 -15 15z"/>
<path d="M225 610 c-3 -5 1 -10 10 -10 9 0 13 5 10 10 -3 6 -8 10 -10 10 -2 0
-7 -4 -10 -10z"/>
<path d="M2573 612 c-13 -8 -6 -62 8 -62 5 0 9 16 9 35 0 38 0 38 -17 27z"/>
<path d="M996 582 c-9 -11 -18 -29 -21 -41 -2 -11 -7 -26 -11 -32 -4 -7 1 -10
12 -7 11 2 20 12 20 23 4 53 3 51 14 35 9 -13 11 -13 20 0 21 32 -7 51 -34 22z"/>
<path d="M735 564 c-15 -14 -24 -28 -21 -32 4 -3 21 8 39 26 37 38 22 44 -18
6z"/>
<path d="M240 570 c0 -5 5 -10 10 -10 6 0 10 5 10 10 0 6 -4 10 -10 10 -5 0
-10 -4 -10 -10z"/>
<path d="M855 470 c-3 -5 1 -10 10 -10 9 0 13 5 10 10 -3 6 -8 10 -10 10 -2 0
-7 -4 -10 -10z"/>
<path d="M865 268 l-20 -21 23 12 c12 6 22 16 22 21 0 13 -2 12 -25 -12z"/>
<path d="M800 239 c-10 -18 -9 -20 12 -17 12 2 24 11 26 21 5 24 -25 22 -38
-4z"/>
<path d="M728 203 c7 -3 16 -2 19 1 4 3 -2 6 -13 5 -11 0 -14 -3 -6 -6z"/>
</g>
</svg>
