<?xml version="1.0" standalone="no"?>
<!DOCTYPE svg PUBLIC "-//W3C//DTD SVG 20010904//EN"
 "http://www.w3.org/TR/2001/REC-SVG-20010904/DTD/svg10.dtd">
<svg version="1.0" xmlns="http://www.w3.org/2000/svg"
 width="278.000000pt" height="182.000000pt" viewBox="0 0 278.000000 182.000000"
 preserveAspectRatio="xMidYMid meet">

<g transform="translate(0.000000,182.000000) scale(0.100000,-0.100000)"
fill="#000000" stroke="none">
<path d="M934 1748 c-13 -20 -12 -62 2 -78 6 -8 14 -24 16 -35 2 -12 10 -19
20 -17 16 2 68 -51 68 -69 0 -6 7 -17 15 -25 8 -8 19 -23 24 -32 5 -9 13 -13
18 -9 4 5 0 14 -10 21 -17 13 -25 32 -8 22 34 -22 -1 80 -37 106 -10 7 -21 20
-25 28 -17 36 -44 74 -55 78 -14 4 -16 -14 -2 -23 17 -10 12 -35 -6 -28 -12 4
-15 14 -11 39 6 36 3 42 -9 22z"/>
<path d="M1689 1738 c-1 -7 -1 -20 0 -28 2 -13 0 -13 -8 -1 -7 11 -15 3 -33
-35 -19 -41 -22 -57 -16 -99 4 -27 4 -52 0 -55 -4 -3 -8 -11 -10 -19 -3 -12 0
-12 12 -2 12 10 17 9 25 -8 6 -11 11 -22 11 -25 0 -11 -36 -6 -48 6 -8 8 -12
8 -12 1 0 -6 7 -16 15 -23 8 -7 15 -19 15 -27 0 -9 6 -13 15 -9 8 3 15 1 15
-5 0 -5 -12 -14 -27 -20 -15 -6 -31 -16 -36 -22 -5 -7 -6 -2 -3 13 3 14 3 19
0 13 -9 -20 -24 -15 -24 7 0 27 -21 70 -31 64 -5 -3 -6 -16 -3 -30 5 -18 2
-24 -10 -24 -9 0 -16 5 -16 11 0 8 -4 8 -12 2 -7 -5 -25 -8 -40 -7 -16 2 -28
0 -28 -4 1 -13 27 -42 39 -42 6 0 11 -7 11 -15 0 -18 12 -19 27 -4 6 6 24 13
42 15 24 4 30 2 25 -9 -3 -8 2 -40 11 -71 13 -45 19 -55 30 -46 10 8 14 7 17
-2 6 -17 -22 -45 -30 -31 -4 6 -24 14 -45 18 -29 6 -37 12 -37 29 0 27 -28 68
-43 63 -7 -2 -20 0 -29 4 -11 6 -22 4 -33 -7 -12 -13 -19 -14 -28 -5 -6 6 -20
11 -32 11 -15 0 -12 -4 13 -17 32 -16 68 -75 56 -94 -3 -5 2 -9 10 -9 10 0 16
-9 16 -25 0 -18 7 -28 25 -35 14 -5 25 -13 25 -18 0 -5 16 -24 35 -43 19 -19
35 -40 35 -47 0 -12 28 -62 41 -72 3 -3 9 -19 12 -37 4 -22 2 -33 -8 -37 -14
-5 -11 -33 4 -46 3 -3 13 -18 21 -35 9 -17 25 -31 38 -33 12 -2 38 -19 57 -39
18 -19 38 -32 44 -29 5 4 14 -1 19 -10 13 -23 69 -46 75 -31 2 7 10 0 17 -15
7 -16 19 -28 26 -28 7 0 19 -3 28 -6 21 -8 71 69 61 93 -7 17 -8 16 -13 -2 -6
-30 -22 -45 -45 -45 -11 0 -17 3 -14 7 4 3 1 13 -6 21 -9 13 -9 14 0 8 10 -5
12 1 9 26 -2 18 1 39 7 46 8 10 7 16 -2 21 -7 5 -11 19 -9 32 2 19 -3 24 -34
32 -28 7 -40 17 -53 44 -9 19 -14 41 -11 49 4 10 2 12 -5 8 -7 -4 -10 -1 -7 7
3 8 0 19 -6 26 -29 33 -36 43 -36 53 0 5 -7 10 -15 10 -8 0 -15 5 -15 10 0 6
7 10 15 10 22 0 18 18 -5 25 -20 6 -24 15 -21 48 3 25 -5 21 -34 -17 -21 -28
-24 -38 -15 -60 10 -28 4 -33 -20 -13 -22 18 -23 44 -2 59 10 7 21 21 25 31 5
15 2 18 -15 15 -11 -2 -23 3 -26 11 -2 8 0 11 5 8 12 -8 11 36 -1 45 -6 4 3
12 18 19 34 16 49 -1 41 -46 -3 -19 -2 -25 4 -16 7 11 9 11 13 0 5 -15 77 -20
75 -5 -1 6 7 12 17 14 15 3 18 0 13 -17 -3 -14 0 -21 10 -21 8 0 13 -8 12 -17
-3 -33 1 -43 17 -43 9 0 14 -6 11 -12 -2 -7 5 -21 15 -30 20 -17 20 -17 -1
-39 -24 -26 -29 -48 -6 -29 12 10 20 9 42 -6 16 -9 33 -25 40 -33 11 -14 13
-13 13 9 1 14 3 33 5 42 2 9 -3 22 -11 29 -16 13 -19 44 -4 34 6 -4 8 -11 5
-16 -4 -5 -2 -9 3 -9 11 0 30 45 35 82 3 30 43 78 64 78 21 0 93 24 93 31 0 4
-7 9 -15 13 -8 3 -15 11 -14 18 0 10 2 10 6 1 7 -18 33 -16 33 2 0 22 21 18
27 -6 5 -17 11 -19 37 -14 52 11 66 16 66 25 0 4 8 6 19 3 10 -3 22 0 25 6 4
6 16 11 27 11 11 0 29 9 41 20 20 18 20 20 3 26 -17 7 -17 8 1 21 10 7 26 13
36 13 10 0 18 6 18 14 0 18 -50 12 -62 -7 -11 -18 -42 5 -46 33 -3 15 0 20 8
15 8 -5 11 -3 8 5 -6 18 -46 20 -59 3 -6 -7 -9 -20 -5 -28 3 -9 2 -13 -4 -10
-6 3 -10 16 -10 28 0 18 -2 19 -10 7 -5 -8 -10 -10 -10 -5 0 18 30 55 45 55 8
0 19 -8 24 -17 7 -13 10 -14 11 -4 0 11 4 11 18 -2 14 -13 21 -14 30 -5 19 19
14 26 -19 33 -19 4 -33 15 -37 27 -4 15 -10 18 -31 13 -14 -4 -29 -11 -32 -17
-4 -7 -8 -6 -11 2 -5 15 -56 22 -64 9 -3 -6 -15 -7 -27 -4 -16 5 -18 4 -8 -3
8 -6 9 -12 3 -16 -6 -3 -13 -2 -17 4 -8 12 -137 74 -149 71 -5 -1 -12 2 -15 7
-8 13 -191 102 -191 94 0 -4 -5 1 -11 11 -6 9 -15 15 -20 11 -6 -3 -21 6 -34
20 -13 14 -31 26 -40 26 -8 0 -15 5 -15 10 0 15 -30 12 -31 -2z m45 -49 c-6
-11 -24 -2 -24 11 0 5 7 7 15 4 8 -4 12 -10 9 -15z m31 -29 c-3 -5 -12 -10
-18 -10 -7 0 -6 4 3 10 19 12 23 12 15 0z m-24 -83 c-10 -9 -11 -8 -5 6 3 10
9 15 12 12 3 -3 0 -11 -7 -18z m533 -112 c11 -8 16 -15 10 -15 -5 0 -18 7 -28
15 -11 8 -16 15 -10 15 5 0 18 -7 28 -15z m-130 -231 c8 -22 8 -24 -8 -24 -18
0 -29 16 -21 30 9 15 22 12 29 -6z m-507 -129 c0 -8 -4 -15 -9 -15 -4 0 -8 7
-8 15 0 8 4 15 8 15 5 0 9 -7 9 -15z m45 -302 c-6 -2 -9 -10 -6 -15 4 -7 2 -8
-4 -4 -18 11 -14 26 6 25 10 0 12 -3 4 -6z m208 -57 c0 -2 -7 -7 -16 -10 -8
-3 -12 -2 -9 4 6 10 25 14 25 6z"/>
<path d="M1081 1714 c0 -11 3 -14 6 -6 3 7 2 16 -1 19 -3 4 -6 -2 -5 -13z"/>
<path d="M1101 1673 c1 -15 4 -39 8 -53 7 -22 8 -21 13 15 3 26 0 45 -9 53
-11 11 -13 9 -12 -15z"/>
<path d="M825 1650 c5 -15 3 -18 -9 -14 -9 3 -13 10 -10 15 3 5 0 9 -5 9 -18
0 -12 -15 14 -40 l25 -23 0 26 c0 15 6 27 13 27 8 0 7 4 -3 10 -23 15 -32 12
-25 -10z"/>
<path d="M900 1640 c8 -5 20 -10 25 -10 6 0 3 5 -5 10 -8 5 -19 10 -25 10 -5
0 -3 -5 5 -10z"/>
<path d="M1080 1635 c0 -5 5 -17 10 -25 5 -8 10 -10 10 -5 0 6 -5 17 -10 25
-5 8 -10 11 -10 5z"/>
<path d="M915 1590 c4 -13 2 -20 -7 -20 -7 0 1 -9 17 -20 21 -14 25 -20 13
-20 -10 0 -18 -4 -18 -10 0 -5 8 -10 18 -10 9 0 24 -5 32 -10 12 -7 12 -12 2
-22 -18 -18 -15 -28 8 -28 11 0 20 -4 20 -10 0 -15 -57 -12 -63 3 -3 7 -6 5
-6 -5 -1 -12 -9 -18 -23 -18 -19 0 -20 2 -8 10 13 8 12 13 -7 32 -13 12 -23
17 -23 10 0 -6 -10 -12 -21 -12 -16 0 -20 -5 -16 -20 3 -11 2 -20 -1 -20 -13
1 -42 27 -36 32 3 4 -1 6 -8 5 -32 -1 -49 4 -43 12 3 5 1 12 -5 16 -5 3 -10
-3 -10 -14 0 -12 7 -21 15 -21 8 0 15 -3 15 -7 0 -10 62 -47 73 -45 16 4 5 -9
-14 -16 -20 -8 -21 -9 -3 -26 14 -15 15 -22 6 -37 -17 -26 -15 -37 2 -14 14
19 15 19 27 -8 7 -15 16 -27 21 -27 23 0 48 23 48 43 0 14 3 18 8 10 5 -8 22
-10 52 -6 53 7 82 7 113 -1 18 -4 22 -1 24 21 0 16 -2 21 -7 14 -5 -9 -9 -4
-12 13 -6 28 7 45 15 24 3 -7 6 -3 6 10 1 21 31 33 31 12 0 -5 5 -10 10 -10
19 0 10 21 -12 29 -16 6 -28 4 -41 -7 -16 -14 -17 -13 -11 15 5 28 3 31 -26
36 -17 4 -29 11 -25 17 3 5 2 10 -3 10 -5 0 -14 11 -22 24 -7 14 -18 22 -26
19 -8 -3 -14 -1 -14 5 0 12 -50 62 -62 62 -5 0 -6 -9 -3 -20z m35 -21 c0 -6
-4 -7 -10 -4 -5 3 -10 11 -10 16 0 6 5 7 10 4 6 -3 10 -11 10 -16z m54 -55
c17 -7 22 -34 6 -34 -5 0 -10 6 -10 14 0 8 -6 17 -12 19 -7 3 -10 6 -6 6 3 1
13 -2 22 -5z m56 -85 c0 -5 -4 -7 -10 -4 -5 3 -12 -7 -16 -22 -9 -44 -12 -50
-13 -26 -1 27 -20 40 -32 22 -7 -11 -9 -10 -9 5 0 13 5 17 20 13 10 -3 24 1
31 9 14 17 29 18 29 3z m-117 -29 c-3 -11 -9 -20 -15 -20 -5 0 -4 9 2 20 6 11
12 20 14 20 2 0 2 -9 -1 -20z"/>
<path d="M240 1590 c0 -5 5 -10 10 -10 6 0 10 5 10 10 0 6 -4 10 -10 10 -5 0
-10 -4 -10 -10z"/>
<path d="M170 1573 c-13 -15 -12 -16 4 -10 10 4 22 7 27 7 5 0 9 5 9 10 0 15
-23 11 -40 -7z"/>
<path d="M865 1580 c3 -5 11 -10 16 -10 6 0 7 5 4 10 -3 6 -11 10 -16 10 -6 0
-7 -4 -4 -10z"/>
<path d="M320 1550 c0 -13 18 -22 24 -11 3 5 -1 11 -9 15 -8 3 -15 1 -15 -4z"/>
<path d="M115 1540 c-3 -5 -15 -10 -26 -10 -13 0 -19 -7 -19 -21 0 -16 3 -19
13 -11 10 8 13 5 15 -14 2 -21 -1 -24 -19 -19 -21 7 -58 -24 -60 -52 -2 -21
-4 -27 -11 -38 -8 -13 26 -55 44 -55 8 0 6 5 -6 11 -15 9 -16 13 -5 20 8 5 24
9 35 9 12 0 25 7 28 16 5 12 2 15 -11 9 -47 -19 -53 -18 -53 9 0 16 4 25 10
21 6 -4 8 -11 5 -16 -7 -11 8 -12 19 -1 4 4 25 7 47 7 21 0 39 -3 39 -7 0 -5
-7 -8 -15 -8 -25 0 -17 -14 18 -30 36 -16 58 -15 70 6 11 19 44 17 92 -6 22
-11 48 -19 57 -20 9 0 20 -4 23 -10 3 -5 13 -10 22 -10 11 0 14 7 11 23 -4 20
-1 23 20 19 17 -3 23 -1 18 7 -4 6 -2 11 4 11 6 0 19 8 28 17 16 16 16 16 0
10 -42 -16 -53 -19 -39 -9 18 13 -2 25 -32 18 -14 -3 -13 -1 6 6 20 9 26 17
21 30 -3 11 0 18 8 18 10 0 10 2 -1 9 -12 8 -12 12 -2 25 9 11 10 16 2 16 -6
0 -11 -4 -11 -9 0 -5 -6 -9 -12 -8 -50 2 -59 -3 -48 -23 6 -11 8 -21 5 -21
-24 -6 -75 -3 -95 4 -14 6 -30 9 -37 8 -6 -1 -23 10 -37 24 -26 25 -56 25 -56
-1 0 -8 -4 -14 -9 -14 -13 0 -32 26 -24 33 3 4 1 7 -5 7 -7 0 -12 -5 -12 -11
0 -5 -5 -7 -10 -4 -7 4 -7 13 0 26 11 19 6 27 -5 9z m260 -120 c-3 -5 -21 -10
-38 -10 -24 0 -28 3 -17 10 20 13 63 13 55 0z m45 -36 c0 -2 -7 -4 -15 -4 -8
0 -15 4 -15 10 0 5 7 7 15 4 8 -4 15 -8 15 -10z"/>
<path d="M712 1516 c7 -8 15 -11 18 -7 3 3 9 9 14 14 5 4 -3 7 -18 7 -22 0
-25 -2 -14 -14z"/>
<path d="M1515 1510 c3 -5 8 -10 11 -10 2 0 4 5 4 10 0 6 -5 10 -11 10 -5 0
-7 -4 -4 -10z"/>
<path d="M1553 1505 c-19 -21 -16 -27 9 -23 13 2 24 11 26 21 4 20 -18 22 -35
2z"/>
<path d="M660 1485 c0 -8 2 -15 4 -15 2 0 6 7 10 15 3 8 1 15 -4 15 -6 0 -10
-7 -10 -15z"/>
<path d="M2526 1478 c-4 -15 0 -27 11 -35 9 -7 12 -13 7 -13 -6 0 -15 5 -21
11 -8 8 -13 7 -18 -1 -9 -15 13 -30 32 -23 7 3 13 -1 13 -10 0 -8 -4 -17 -9
-19 -14 -5 -21 -42 -12 -57 14 -23 34 -2 27 30 -4 21 -2 29 8 29 8 0 13 8 12
18 -1 11 5 16 17 14 9 -2 17 3 17 9 0 7 3 10 6 6 9 -9 29 14 37 42 4 18 3 21
-6 12 -14 -14 -89 -15 -104 0 -7 7 -12 4 -17 -13z m78 -17 c3 -4 -5 -13 -18
-19 -19 -8 -25 -8 -30 3 -7 20 37 35 48 16z"/>
<path d="M507 1459 c7 -23 37 -41 78 -46 17 -2 43 -8 59 -13 39 -13 46 -13 46
5 0 8 -6 15 -14 15 -8 0 -17 8 -20 17 -5 11 -10 14 -14 6 -4 -6 -18 -9 -32 -8
-14 1 -37 3 -52 4 -17 0 -28 7 -28 15 0 8 -6 16 -14 19 -10 4 -12 0 -9 -14z"/>
<path d="M476 1433 c-6 -14 -5 -15 5 -6 7 7 10 15 7 18 -3 3 -9 -2 -12 -12z"/>
<path d="M1260 1431 c0 -6 4 -11 8 -11 12 0 9 -40 -3 -40 -5 -1 0 -9 13 -19
12 -11 22 -24 22 -29 0 -16 27 -34 35 -22 3 5 2 10 -3 10 -11 0 -24 35 -25 67
0 13 -5 19 -12 16 -8 -2 -12 3 -12 13 1 9 -4 19 -10 21 -7 3 -13 0 -13 -6z"/>
<path d="M2445 1420 c-3 -5 -1 -10 4 -10 6 0 11 5 11 10 0 6 -2 10 -4 10 -3 0
-8 -4 -11 -10z"/>
<path d="M750 1410 c0 -5 5 -10 10 -10 6 0 10 5 10 10 0 6 -4 10 -10 10 -5 0
-10 -4 -10 -10z"/>
<path d="M706 1394 c-3 -9 -3 -20 0 -25 8 -13 34 9 34 27 0 19 -26 18 -34 -2z"/>
<path d="M123 1349 c9 -5 17 -16 17 -23 0 -16 46 -40 83 -42 28 -2 67 -29 67
-46 0 -5 -9 -6 -20 -3 -28 9 -25 -10 5 -33 33 -26 20 -37 -15 -12 -15 11 -35
17 -47 14 -30 -8 -66 30 -57 59 6 19 5 20 -10 5 -9 -9 -16 -21 -16 -27 0 -5
-16 -13 -35 -17 -37 -7 -43 -26 -9 -33 10 -2 22 -8 25 -14 10 -15 83 -38 87
-27 2 5 13 5 27 0 14 -5 38 -5 60 1 30 8 40 7 54 -5 28 -26 32 -19 11 19 -17
30 -18 36 -5 40 8 3 23 7 32 10 22 8 33 -13 22 -42 -5 -13 -5 -22 0 -19 4 3 8
-8 7 -24 -1 -30 -16 -43 -16 -14 0 8 -5 12 -11 9 -6 -4 -8 -13 -5 -21 3 -9 -2
-14 -14 -14 -11 0 -20 -7 -20 -15 0 -8 -6 -15 -14 -15 -21 0 -31 -21 -15 -31
9 -5 10 -9 2 -9 -8 0 -10 -17 -7 -52 3 -29 5 -61 5 -71 0 -9 13 -31 29 -48 31
-35 58 -34 67 1 9 35 22 22 29 -30 4 -31 11 -47 17 -43 6 4 8 0 5 -9 -5 -11 0
-14 19 -10 25 5 26 3 20 -31 -4 -29 -1 -39 19 -58 30 -28 30 -39 1 -39 -30 0
-55 27 -63 68 -4 18 -11 32 -16 32 -5 0 -6 -4 -3 -10 3 -6 1 -10 -4 -10 -6 0
-11 15 -11 33 -1 27 -2 29 -11 14 -6 -9 -14 -15 -20 -12 -14 9 -11 -23 4 -37
8 -7 12 -20 9 -30 -3 -12 1 -18 12 -18 9 0 29 -20 44 -45 15 -24 30 -45 35
-45 4 0 39 -24 78 -53 178 -136 367 -195 654 -204 208 -7 205 -9 195 119 -1
10 -9 18 -18 18 -16 1 -15 2 1 11 9 5 22 7 28 3 7 -4 10 3 9 17 -1 13 -2 30
-1 38 2 25 37 -16 50 -59 6 -21 19 -46 27 -55 9 -9 15 -17 13 -19 -56 -39 -61
-46 -41 -46 19 0 139 38 246 77 47 18 73 43 44 43 -14 0 -54 58 -45 66 3 3 11
6 19 8 19 2 58 38 52 47 -2 5 -11 6 -19 2 -8 -3 -15 -1 -15 5 0 5 -9 12 -20
15 -11 3 -20 1 -20 -4 0 -5 5 -9 10 -9 6 0 10 -7 10 -15 0 -22 -13 -18 -38 10
-12 14 -18 25 -14 25 12 0 10 44 -2 52 -6 4 -21 8 -33 8 -18 0 -23 6 -23 25 0
15 -6 25 -14 25 -8 0 -14 -6 -13 -12 2 -58 -3 -68 -32 -68 -17 0 -32 -4 -36
-9 -8 -14 26 -43 45 -38 13 3 16 0 13 -14 -4 -14 -1 -16 16 -12 24 6 29 -12 7
-24 -8 -4 -16 -19 -18 -32 -4 -35 -26 -38 -27 -4 -1 70 0 68 -25 44 -28 -26
-38 -26 -62 0 -16 17 -16 22 -4 30 8 5 21 7 28 4 38 -14 -10 30 -56 51 -2 1 4
18 12 37 11 27 11 37 3 41 -7 4 1 4 16 1 18 -4 33 0 43 10 9 8 11 15 5 15 -5
0 -13 -4 -16 -10 -3 -6 -11 -10 -16 -10 -6 0 -7 4 -4 10 3 5 1 19 -6 31 -9 17
-8 23 2 30 15 9 7 22 -15 25 -8 1 -16 -9 -19 -22 -3 -16 0 -24 9 -24 18 0 18
-14 -1 -30 -12 -10 -15 -9 -15 4 0 10 -13 21 -29 27 -35 12 -40 23 -36 73 3
51 30 70 58 41 12 -11 17 -12 21 -2 5 9 7 9 12 0 10 -21 33 -15 27 7 -7 28 23
37 47 15 19 -18 20 -17 20 13 0 24 -5 31 -22 34 -15 2 -24 13 -30 36 -5 17
-13 32 -19 32 -5 0 -15 12 -22 28 -25 57 -57 62 -57 9 0 -41 -9 -54 -43 -62
-44 -11 -41 -24 5 -19 40 3 41 2 18 -9 -14 -6 -28 -15 -31 -20 -7 -10 -49 9
-49 23 0 5 12 21 26 35 18 18 26 37 27 63 0 20 4 42 9 48 6 8 0 13 -16 16 -30
6 -51 -5 -44 -23 7 -18 -27 -54 -37 -40 -3 6 1 25 9 43 23 52 29 78 16 78 -7
0 -9 8 -5 20 5 15 2 20 -14 20 -10 0 -26 3 -35 6 -9 3 -16 1 -16 -5 0 -6 8
-11 17 -11 16 0 16 -1 0 -17 -15 -16 -18 -15 -38 8 -12 13 -26 23 -33 21 -8
-3 -8 0 1 9 9 9 7 16 -7 32 -24 25 -54 16 -45 -14 5 -16 0 -28 -21 -46 -16
-14 -39 -29 -50 -33 -27 -10 -39 -48 -15 -46 9 0 23 -14 32 -31 9 -18 22 -39
29 -47 12 -15 5 -60 -9 -52 -4 3 -15 -4 -24 -15 -9 -10 -23 -19 -31 -19 -8 0
-16 -3 -19 -7 -2 -5 -2 -3 -1 4 5 19 -13 25 -20 7 -10 -25 -7 -31 14 -37 24
-6 26 -29 4 -62 -20 -30 -30 -32 -30 -5 0 11 5 20 11 20 12 0 -16 20 -28 20
-5 0 -5 -9 -2 -20 5 -15 2 -20 -12 -20 -11 0 -24 -5 -30 -11 -8 -8 -14 -6 -22
9 -8 15 -8 23 0 27 7 5 3 14 -10 26 -21 20 -41 21 -53 4 -4 -5 -8 4 -8 22 0
17 5 33 11 35 6 2 12 19 14 38 2 19 3 37 4 39 1 2 8 -3 18 -10 17 -15 63 -20
63 -7 0 4 -8 11 -17 17 -17 9 -17 11 2 25 15 12 16 15 5 16 -12 0 -12 2 -2 8
14 10 3 37 -34 85 -26 32 -34 34 -34 6 0 -11 -4 -18 -9 -14 -5 3 -12 1 -16 -5
-10 -16 -23 -12 -30 10 -3 11 -9 19 -13 19 -15 -2 -52 14 -52 22 0 5 -12 4
-27 -2 -20 -7 -28 -6 -35 3 -6 10 -8 10 -8 1 0 -7 -7 -13 -15 -13 -12 0 -14 4
-7 17 7 11 6 23 -1 34 -8 13 -6 24 7 45 16 23 16 26 3 21 -9 -3 -19 -1 -23 4
-3 6 -20 -5 -39 -25 -18 -20 -38 -36 -45 -36 -7 0 -10 -8 -8 -18 4 -15 1 -18
-21 -14 -14 3 -32 11 -39 19 -8 7 -17 11 -22 8 -5 -3 -10 0 -12 6 -2 7 -13 9
-27 4 -14 -4 -20 -12 -17 -21 8 -22 -40 -18 -84 7 -24 14 -36 27 -33 36 4 10
9 11 19 2 9 -7 14 -8 14 -1 0 5 -7 12 -15 16 -8 3 -15 12 -15 21 0 17 -16 20
-25 5 -4 -6 -16 -8 -27 -4 -13 4 -18 2 -14 -5 10 -15 -62 -11 -94 6 -29 15
-53 17 -27 2z m127 -39 c0 -5 -2 -10 -4 -10 -3 0 -8 5 -11 10 -3 6 -1 10 4 10
6 0 11 -4 11 -10z m225 -90 c3 -5 1 -10 -4 -10 -6 0 -11 5 -11 10 0 6 2 10 4
10 3 0 8 -4 11 -10z m94 -26 c13 -12 -8 -10 -29 2 l-25 15 25 -7 c14 -3 27 -8
29 -10z m-325 -20 c3 -8 2 -12 -4 -9 -6 3 -10 10 -10 16 0 14 7 11 14 -7z
m527 -11 c10 -11 10 -14 2 -9 -8 4 -13 2 -13 -8 0 -8 -10 -18 -22 -22 -12 -3
-28 -13 -36 -20 -16 -17 -32 -18 -32 -3 0 5 6 7 13 3 10 -6 10 -4 0 7 -19 20
-16 27 20 49 39 24 51 25 68 3z m44 -23 c-3 -5 -11 -10 -16 -10 -6 0 -7 5 -4
10 3 6 11 10 16 10 6 0 7 -4 4 -10z m5 -23 c0 -1 -4 -17 -9 -35 -6 -18 -6 -30
-1 -27 4 3 6 -14 3 -37 -5 -36 -4 -40 10 -35 10 4 17 2 17 -2 0 -14 -28 -21
-34 -8 -4 9 -8 8 -12 -2 -9 -20 -34 43 -34 86 0 30 3 35 20 30 15 -4 20 0 20
14 0 10 5 19 10 19 6 0 10 -1 10 -3z m-90 -37 c0 -11 4 -20 9 -20 5 0 7 -9 4
-21 -4 -13 -8 -16 -13 -10 -3 7 -14 9 -22 6 -22 -9 -28 25 -8 47 20 22 30 22
30 -2z m-320 -11 c0 -6 -4 -7 -10 -4 -5 3 -10 11 -10 16 0 6 5 7 10 4 6 -3 10
-11 10 -16z m940 -3 c0 -8 6 -16 13 -19 6 -2 9 -8 5 -12 -12 -13 -38 4 -38 25
0 11 5 20 10 20 6 0 10 -6 10 -14z m-931 -38 c39 -40 43 -42 55 -25 16 21 26
22 26 2 0 -9 7 -18 16 -22 8 -3 13 -12 10 -19 -3 -7 -1 -16 4 -19 6 -4 10 -12
10 -18 0 -7 -10 3 -22 21 -14 23 -27 32 -39 29 -10 -3 -27 4 -38 14 -24 22
-43 21 -53 -3 -4 -10 -12 -18 -18 -18 -6 0 -10 8 -9 18 1 9 -1 25 -6 35 -8 19
0 47 14 47 5 0 27 -19 50 -42z m408 -20 c-3 -8 -6 -5 -6 6 -1 11 2 17 5 13 3
-3 4 -12 1 -19z m417 -12 c18 -3 36 -16 36 -27 0 -6 -4 -7 -10 -4 -5 3 -10 -1
-10 -9 0 -8 5 -18 12 -22 7 -4 8 -3 4 4 -4 7 -3 12 3 12 6 0 13 -12 17 -27 11
-51 26 -83 40 -83 8 0 14 -5 14 -11 0 -5 -5 -7 -11 -3 -11 7 8 -36 21 -46 13
-10 42 -84 45 -115 2 -18 8 -42 14 -53 13 -24 7 -95 -8 -100 -20 -7 -63 47
-57 71 7 31 -6 47 -32 41 -18 -5 -20 -10 -11 -25 6 -13 6 -19 -1 -19 -9 0 -12
14 -9 36 0 4 -5 11 -13 15 -8 6 5 9 35 9 44 0 60 11 37 25 -5 3 -10 15 -10 27
0 11 -18 40 -40 65 -22 25 -40 52 -40 60 0 8 -4 11 -10 8 -5 -3 -10 -1 -10 4
0 6 -10 11 -22 12 -19 0 -20 2 -6 7 13 5 15 11 8 22 -14 22 -12 50 4 50 9 0
12 7 9 20 -3 11 -10 20 -15 20 -13 0 -38 26 -38 40 0 7 8 9 21 5 12 -4 27 -8
33 -9z m-750 -78 c-7 -11 -34 3 -34 18 0 12 4 12 19 2 11 -7 18 -15 15 -20z
m922 15 c-4 -25 -26 -28 -26 -4 0 12 6 21 14 21 8 0 13 -8 12 -17z m34 7 c0
-5 -5 -10 -11 -10 -5 0 -7 5 -4 10 3 6 8 10 11 10 2 0 4 -4 4 -10z m40 -20 c0
-5 -4 -10 -9 -10 -6 0 -13 5 -16 10 -3 6 1 10 9 10 9 0 16 -4 16 -10z m-1066
-8 c-6 -4 -14 -14 -17 -22 -4 -10 -6 -8 -6 8 -1 15 5 22 17 22 10 0 13 -3 6
-8z m101 -12 c3 -6 -1 -7 -9 -4 -18 7 -21 14 -7 14 6 0 13 -4 16 -10z m120
-32 c6 -4 0 -8 -12 -8 -16 0 -21 4 -16 15 3 9 8 12 12 8 3 -4 11 -11 16 -15z
m479 -33 c4 -19 11 -35 15 -35 14 0 24 -32 26 -87 2 -40 -1 -53 -11 -53 -8 0
-14 6 -14 13 0 8 -11 19 -24 25 -19 8 -32 7 -60 -6 -19 -9 -35 -23 -36 -29 0
-7 -5 -13 -11 -13 -6 0 -9 9 -6 20 4 16 0 20 -20 20 -21 0 -23 -3 -14 -14 6
-8 11 -18 10 -22 -1 -5 1 -17 6 -27 9 -22 3 -29 -20 -21 -14 6 -16 16 -12 57
2 27 11 53 18 59 11 7 11 11 2 15 -18 7 -16 23 2 23 8 0 15 5 15 10 0 6 6 10
13 10 17 0 59 44 51 52 -10 11 6 47 24 51 25 5 39 -9 46 -48z m-298 24 c4 -8
9 -7 15 2 7 12 11 12 17 1 6 -9 18 -11 35 -7 28 7 30 6 42 -49 l6 -29 -26 17
c-15 10 -30 14 -33 10 -4 -4 -1 -9 6 -11 13 -5 17 -63 4 -63 -5 0 -9 6 -10 13
-7 70 -11 82 -25 81 -9 -1 -26 9 -38 22 -12 13 -17 24 -11 24 6 0 14 -5 18
-11z m-111 -36 c-8 -15 -12 -30 -9 -35 3 -4 0 -8 -5 -8 -16 0 -13 22 5 48 21
30 26 28 9 -5z m89 11 c5 -14 4 -15 -9 -4 -12 10 -15 9 -15 -6 0 -13 -3 -15
-11 -7 -6 6 -8 16 -5 22 11 16 33 13 40 -5z m53 -68 c-4 -9 -10 -16 -14 -16
-10 0 -33 57 -26 64 10 10 45 -33 40 -48z m-120 -13 c-17 -18 -22 -8 -11 22 5
12 10 13 17 6 8 -8 6 -16 -6 -28z m-148 -12 c8 -5 11 -16 8 -25 -7 -18 -37
-22 -37 -5 0 5 -4 8 -9 4 -5 -3 -12 -1 -16 4 -3 5 3 14 12 20 22 13 25 13 42
2z m717 -4 c4 -4 0 -7 -9 -7 -9 0 -18 4 -21 9 -7 10 20 9 30 -2z m-186 -61 c0
-17 -34 -31 -50 -21 -16 10 8 35 31 35 11 0 19 -6 19 -14z m-145 -106 c-3 -5
-11 -10 -16 -10 -6 0 -7 5 -4 10 3 6 11 10 16 10 6 0 7 -4 4 -10z m51 -14 c8
-8 14 -18 14 -22 0 -5 -5 -3 -12 4 -7 7 -17 8 -30 1 -21 -11 -23 -4 -5 16 15
18 16 18 33 1z m4 -51 c0 -18 17 -20 23 -2 3 9 8 9 17 1 13 -13 3 -41 -25 -64
-13 -11 -19 -9 -40 10 -14 13 -28 20 -32 17 -3 -4 -1 -7 5 -7 7 0 12 -7 12
-15 0 -18 -20 -20 -21 -2 0 6 -5 3 -10 -8 -8 -17 -9 -16 -6 8 3 15 -1 27 -6
27 -7 0 -7 4 1 12 9 9 18 9 39 -1 21 -9 25 -9 16 -1 -9 10 -9 16 0 26 16 18
27 17 27 -1z m171 -56 c9 -18 9 -19 -10 -7 -12 7 -21 19 -21 26 0 17 17 7 31
-19z m-15 -66 c-7 -17 -8 -17 -17 0 -12 21 -2 44 13 29 6 -6 8 -19 4 -29z"/>
<path d="M812 1255 c13 -29 23 -32 32 -9 8 21 -1 34 -24 34 -17 0 -18 -3 -8
-25z"/>
<path d="M1033 1204 c-7 -19 2 -28 22 -21 19 8 19 23 0 31 -9 3 -18 -1 -22
-10z"/>
<path d="M1766 1132 c-6 -10 5 -26 22 -30 10 -2 10 2 2 18 -12 22 -16 24 -24
12z"/>
<path d="M2041 1084 c0 -11 3 -14 6 -6 3 7 2 16 -1 19 -3 4 -6 -2 -5 -13z"/>
<path d="M2060 1025 c-1 -5 -2 -13 -2 -16 1 -4 -9 -5 -21 -2 -21 4 -21 4 -4
-10 14 -11 15 -16 5 -20 -7 -3 -3 -6 10 -6 21 -1 22 -2 7 -17 -8 -9 -22 -29
-30 -45 -14 -27 -14 -29 12 -53 31 -29 43 -21 43 29 0 23 -3 27 -10 15 -6 -9
-10 -10 -10 -3 0 6 5 15 10 18 6 3 10 21 9 38 -1 34 -16 89 -19 72z"/>
<path d="M979 1003 c12 -24 31 -39 31 -25 0 5 -10 17 -21 28 -22 19 -22 19
-10 -3z"/>
<path d="M220 931 c0 -6 5 -13 10 -16 6 -3 10 1 10 9 0 9 -4 16 -10 16 -5 0
-10 -4 -10 -9z"/>
<path d="M1870 931 c0 -4 9 -16 20 -26 11 -10 20 -14 20 -9 0 5 -9 17 -20 27
-11 9 -20 13 -20 8z"/>
<path d="M171 868 c0 -31 3 -37 8 -24 7 18 3 66 -5 66 -2 0 -4 -19 -3 -42z"/>
<path d="M110 859 c0 -17 4 -28 10 -24 6 3 10 17 10 31 0 13 -4 24 -10 24 -5
0 -10 -14 -10 -31z"/>
<path d="M1544 857 c-4 -10 -13 -16 -20 -13 -15 6 -17 1 -8 -31 3 -12 12 -19
18 -17 7 3 25 0 40 -5 24 -10 26 -9 17 8 -8 13 -18 17 -37 13 -19 -3 -25 -1
-20 7 4 6 22 11 39 11 29 1 30 2 12 12 -11 6 -23 16 -27 22 -4 6 -10 4 -14 -7z"/>
<path d="M91 844 c0 -11 3 -14 6 -6 3 7 2 16 -1 19 -3 4 -6 -2 -5 -13z"/>
<path d="M190 746 c0 -8 5 -18 10 -21 6 -3 10 1 10 9 0 8 -4 18 -10 21 -5 3
-10 -1 -10 -9z"/>
<path d="M1568 713 c7 -3 16 -2 19 1 4 3 -2 6 -13 5 -11 0 -14 -3 -6 -6z"/>
<path d="M259 658 c-6 -19 -5 -269 1 -273 4 -3 6 12 3 34 -3 23 -1 41 6 45 7
5 11 -8 11 -41 0 -56 -13 -85 -25 -56 -6 15 -9 12 -16 -17 -9 -40 -2 -80 14
-80 6 0 7 -3 4 -6 -4 -4 -13 -2 -21 5 -11 10 -15 2 -21 -46 -4 -32 -10 -69
-12 -83 -2 -14 -4 -41 -4 -60 0 -19 -5 -37 -11 -41 -6 -4 -8 -14 -5 -23 8 -20
103 -23 110 -3 4 9 6 9 6 -1 1 -10 119 -12 576 -12 l575 1 0 45 c0 42 2 45 30
51 17 3 33 10 36 14 3 5 14 9 24 9 10 0 26 13 36 29 12 20 23 27 35 24 11 -3
19 0 19 6 0 6 -7 11 -15 11 -8 0 -15 4 -15 8 0 11 47 53 84 77 33 20 82 75 79
87 -2 4 11 15 27 23 17 9 30 18 30 20 0 3 -26 -8 -57 -24 -211 -105 -515 -148
-756 -106 -72 13 -213 53 -279 80 -11 4 -18 3 -18 -5 0 -6 14 -17 30 -23 35
-13 39 -27 9 -27 -13 0 -18 4 -13 12 5 7 2 9 -9 5 -12 -4 -19 3 -27 27 -11 36
-54 64 -66 44 -4 -7 -3 -8 4 -4 6 3 16 -3 22 -14 8 -15 8 -20 -2 -20 -9 0 -9
-3 2 -10 10 -6 11 -10 3 -10 -7 0 -13 -8 -14 -17 0 -14 -2 -15 -6 -3 -10 26
-34 49 -48 44 -16 -6 -28 23 -13 32 7 5 8 2 3 -6 -6 -10 -4 -12 7 -7 9 3 22 0
29 -6 8 -7 3 1 -11 16 -14 16 -41 36 -60 45 -19 9 -38 18 -42 20 -5 2 -8 -9
-9 -25 0 -15 -3 -22 -6 -15 -3 7 -2 24 1 37 6 23 8 24 34 12 27 -12 40 -21 67
-44 7 -7 20 -13 27 -13 20 0 -43 48 -79 60 -19 7 -33 19 -33 28 -1 33 -30 -20
-30 -54 0 -18 -5 -36 -10 -39 -11 -7 -4 62 11 102 7 18 2 30 -22 58 -17 19
-35 32 -40 29 -5 -3 -6 1 -3 9 3 8 -3 20 -12 28 -16 13 -17 12 -12 -9 4 -12 2
-20 -3 -16 -5 3 -9 0 -9 -5 0 -6 5 -11 10 -11 6 0 10 -4 10 -10 0 -5 -7 -10
-15 -10 -8 0 -14 -3 -13 -7 3 -16 -15 -43 -28 -43 -8 0 -14 -6 -14 -12 0 -8
-7 -5 -15 6 -8 11 -15 25 -15 30 0 6 5 4 10 -4 15 -23 12 -6 -4 25 -9 18 -16
22 -20 13 -3 -7 -5 1 -4 17 2 52 -2 75 -12 75 -5 0 -10 -1 -11 -2z m186 -109
c-4 -5 -1 -9 4 -9 6 0 11 -5 11 -11 0 -8 -5 -8 -15 1 -17 14 -21 45 -5 35 6
-4 8 -11 5 -16z m-19 -10 c4 -7 -1 -16 -10 -21 -9 -5 -16 -15 -16 -22 0 -7 -7
-21 -16 -32 -13 -16 -15 -16 -10 -2 3 10 1 20 -4 23 -6 4 -10 -1 -10 -9 0 -9
-4 -16 -10 -16 -15 0 -12 8 18 51 28 39 45 48 58 28z m-126 -49 c0 -5 -5 -10
-11 -10 -5 0 -7 5 -4 10 3 6 8 10 11 10 2 0 4 -4 4 -10z m147 -97 c-3 -10 -5
-2 -5 17 0 19 2 27 5 18 2 -10 2 -26 0 -35z m-128 -20 c0 -10 -3 -36 -8 -58
l-7 -40 -7 49 c-4 26 -4 52 -1 57 9 15 24 10 23 -8z m148 -15 c-3 -8 -6 -5 -6
6 -1 11 2 17 5 13 3 -3 4 -12 1 -19z m90 0 c-3 -8 -6 -5 -6 6 -1 11 2 17 5 13
3 -3 4 -12 1 -19z m1182 -21 c-13 -13 -37 -27 -54 -31 -27 -7 -26 -4 15 23 54
37 72 40 39 8z m-1394 -7 c3 -5 1 -10 -4 -10 -6 0 -11 5 -11 10 0 6 2 10 4 10
3 0 8 -4 11 -10z m-85 -15 c0 -8 -4 -15 -10 -15 -5 0 -7 7 -4 15 4 8 8 15 10
15 2 0 4 -7 4 -15z m177 -7 c-3 -8 -6 -5 -6 6 -1 11 2 17 5 13 3 -3 4 -12 1
-19z m300 -22 c3 -3 -1 -6 -10 -6 -19 0 -23 -15 -6 -25 6 -4 17 1 24 11 8 11
15 14 15 9 0 -6 -5 -16 -12 -23 -17 -17 -2 -15 26 3 19 13 23 13 23 1 0 -8 -6
-12 -14 -9 -7 3 -13 0 -13 -6 0 -6 5 -11 10 -11 19 0 25 -2 40 -13 12 -9 13
-9 3 3 -18 20 -16 50 4 50 9 0 13 -3 10 -7 -4 -3 -3 -11 2 -17 4 -6 11 -25 14
-42 6 -29 4 -31 -23 -30 -15 1 -26 4 -24 8 6 9 -36 32 -44 24 -3 -3 0 -6 6 -6
7 0 12 -5 12 -11 0 -8 -5 -8 -15 1 -8 7 -12 16 -10 21 5 7 -53 45 -65 42 -3
-1 -6 9 -6 22 -2 19 3 23 22 20 14 -1 28 -5 31 -9z m46 -1 c-3 -9 -8 -14 -10
-11 -3 3 -2 9 2 15 9 16 15 13 8 -4z m887 -5 c-8 -5 -19 -10 -25 -10 -5 0 -3
5 5 10 8 5 20 10 25 10 6 0 3 -5 -5 -10z m-1303 -52 c-3 -8 -6 -5 -6 6 -1 11
2 17 5 13 3 -3 4 -12 1 -19z m104 -34 c-6 -28 -9 -32 -10 -14 -1 30 11 79 16
64 2 -6 -1 -28 -6 -50z m1014 -22 c5 -17 -1 -30 -28 -57 -19 -19 -33 -36 -31
-37 1 -2 -7 -4 -19 -5 -12 -1 -44 -4 -72 -7 -27 -3 -42 -3 -32 0 9 3 17 9 17
12 0 4 18 8 40 9 42 3 92 30 86 48 -4 15 -69 25 -84 13 -9 -8 -11 -7 -6 6 4
12 0 16 -15 16 -12 0 -21 -6 -21 -15 0 -8 -4 -15 -10 -15 -5 0 -10 5 -10 10 0
6 -11 10 -25 10 -29 0 -34 -16 -7 -23 13 -4 11 -5 -5 -6 -18 -1 -23 5 -24 27
-1 27 -1 27 -8 3 -4 -14 -12 -26 -19 -27 -7 -1 -8 0 -2 3 19 9 10 23 -15 23
-14 0 -25 -4 -25 -10 0 -5 -4 -10 -10 -10 -5 0 -10 7 -10 15 0 8 -9 15 -21 15
-11 0 -18 4 -15 9 10 16 -26 22 -55 9 -35 -15 -37 -27 -6 -29 21 -2 21 -2 -2
-6 -73 -14 -45 -59 46 -73 60 -10 81 -20 41 -20 -47 0 -127 30 -147 56 -24 30
-17 59 21 87 22 16 43 19 154 19 71 -1 161 2 199 6 62 6 73 5 91 -13 12 -11
25 -30 29 -43z m-1228 36 c-3 -8 -6 -5 -6 6 -1 11 2 17 5 13 3 -3 4 -12 1 -19z
m-21 -44 c-13 -28 -21 -14 -11 23 4 19 9 23 14 14 5 -7 3 -23 -3 -37z m54 11
c0 -8 -4 -15 -10 -15 -5 0 -7 7 -4 15 4 8 8 15 10 15 2 0 4 -7 4 -15z m-17
-50 c-7 -21 -12 -19 -10 4 0 11 5 18 9 15 4 -3 5 -11 1 -19z"/>
<path d="M1210 200 c0 -5 -9 -10 -20 -10 -11 0 -20 -4 -20 -10 0 -5 11 -10 25
-10 14 0 25 6 25 13 0 7 9 13 20 13 13 0 19 -5 16 -13 -6 -14 4 -16 28 -7 15
6 15 8 -1 20 -21 16 -73 19 -73 4z"/>
<path d="M1364 188 c-3 -4 2 -8 10 -8 8 0 17 4 20 8 3 5 -2 9 -10 9 -8 0 -17
-4 -20 -9z"/>
<path d="M1399 174 c-12 -14 -11 -16 5 -13 11 2 21 10 24 17 5 17 -13 15 -29
-4z"/>
<path d="M317 624 c-11 -11 -8 -26 3 -19 6 3 10 1 10 -5 0 -6 5 -8 10 -5 6 3
10 11 10 16 0 6 -4 8 -9 5 -5 -4 -11 -1 -13 5 -2 5 -7 7 -11 3z"/>
<path d="M327 562 c1 -8 3 -21 3 -30 0 -15 2 -15 10 -2 5 8 10 24 10 35 0 15
-2 17 -9 6 -5 -7 -11 -9 -13 -5 -3 5 -3 3 -1 -4z"/>
<path d="M1846 557 c3 -10 9 -15 12 -12 3 3 0 11 -7 18 -10 9 -11 8 -5 -6z"/>
<path d="M231 524 c0 -11 3 -14 6 -6 3 7 2 16 -1 19 -3 4 -6 -2 -5 -13z"/>
<path d="M7 473 c-12 -11 -8 -40 7 -52 11 -10 15 -8 19 6 3 14 6 12 12 -10 6
-22 3 -32 -16 -48 -18 -15 -24 -33 -27 -82 -4 -56 -3 -61 12 -48 14 11 16 11
16 -2 0 -8 5 -17 12 -19 7 -3 14 -37 18 -84 4 -46 8 -61 8 -36 1 23 6 42 10
42 5 0 8 -23 6 -51 -2 -45 -1 -48 12 -32 7 10 14 34 15 53 2 31 2 32 6 7 6
-38 23 -24 23 19 0 24 5 34 15 34 10 0 15 10 15 30 0 17 5 39 11 49 8 11 9 29
4 47 -6 21 -9 24 -12 11 -3 -9 -9 -15 -14 -12 -5 4 -9 -3 -9 -13 0 -15 -6 -20
-25 -18 -19 1 -25 7 -25 24 0 33 -52 182 -62 176 -4 -3 -8 0 -8 5 0 12 -13 14
-23 4z m63 -153 c0 -11 -4 -20 -9 -20 -5 0 -7 9 -4 20 3 11 7 20 9 20 2 0 4
-9 4 -20z"/>
<path d="M140 471 c0 -6 5 -13 10 -16 6 -3 10 1 10 9 0 9 -4 16 -10 16 -5 0
-10 -4 -10 -9z"/>
<path d="M207 425 c-4 -8 -2 -17 3 -20 6 -4 10 3 10 14 0 25 -6 27 -13 6z"/>
<path d="M2 390 c0 -14 2 -19 5 -12 2 6 2 18 0 25 -3 6 -5 1 -5 -13z"/>
<path d="M201 364 c0 -11 3 -14 6 -6 3 7 2 16 -1 19 -3 4 -6 -2 -5 -13z"/>
<path d="M1 204 c0 -11 3 -14 6 -6 3 7 2 16 -1 19 -3 4 -6 -2 -5 -13z"/>
<path d="M1831 208 c0 -7 4 -22 9 -33 8 -18 9 -17 9 7 1 15 -3 30 -9 33 -5 3
-10 0 -9 -7z"/>
<path d="M1810 159 c0 -30 6 -51 15 -59 12 -10 15 -10 15 3 0 9 -4 18 -9 21
-5 3 -7 15 -4 25 3 11 0 28 -6 38 -8 15 -10 9 -11 -28z"/>
<path d="M2451 154 c0 -11 3 -14 6 -6 3 7 2 16 -1 19 -3 4 -6 -2 -5 -13z"/>
<path d="M1600 156 c0 -2 11 -6 25 -8 14 -3 25 -1 25 3 0 5 -11 9 -25 9 -14 0
-25 -2 -25 -4z"/>
<path d="M1644 116 c-5 -13 -3 -21 4 -24 7 -2 12 -11 12 -19 0 -9 3 -14 6 -11
3 3 1 21 -4 39 -8 30 -11 31 -18 15z"/>
<path d="M1561 94 c0 -11 3 -14 6 -6 3 7 2 16 -1 19 -3 4 -6 -2 -5 -13z"/>
<path d="M1705 100 c3 -5 8 -10 11 -10 2 0 4 5 4 10 0 6 -5 10 -11 10 -5 0 -7
-4 -4 -10z"/>
<path d="M1781 94 c0 -11 3 -14 6 -6 3 7 2 16 -1 19 -3 4 -6 -2 -5 -13z"/>
<path d="M2216 92 c-4 -13 -5 -26 -2 -29 10 -11 18 4 14 29 l-4 23 -8 -23z"/>
<path d="M36 68 c-3 -13 -5 -34 -5 -48 1 -15 5 -7 10 19 9 47 6 68 -5 29z"/>
<path d="M1510 70 c0 -5 5 -10 11 -10 5 0 7 5 4 10 -3 6 -8 10 -11 10 -2 0 -4
-4 -4 -10z"/>
<path d="M1483 35 c0 -22 2 -30 4 -17 2 12 2 30 0 40 -3 9 -5 -1 -4 -23z"/>
</g>
</svg>
