<?xml version="1.0" standalone="no"?>
<!DOCTYPE svg PUBLIC "-//W3C//DTD SVG 20010904//EN"
 "http://www.w3.org/TR/2001/REC-SVG-20010904/DTD/svg10.dtd">
<svg version="1.0" xmlns="http://www.w3.org/2000/svg"
 width="275.000000pt" height="183.000000pt" viewBox="0 0 275.000000 183.000000"
 preserveAspectRatio="xMidYMid meet">

<g transform="translate(0.000000,183.000000) scale(0.100000,-0.100000)"
fill="#000000" stroke="none">
<path d="M0 915 l0 -915 1375 0 1375 0 0 915 0 915 -1375 0 -1375 0 0 -915z
m1520 745 c0 -5 -5 -10 -11 -10 -5 0 -7 5 -4 10 3 6 8 10 11 10 2 0 4 -4 4
-10z m-177 -37 c4 -3 -1 -12 -11 -20 -15 -12 -14 -13 11 -7 16 4 27 2 27 -5 0
-6 -7 -8 -16 -4 -13 5 -15 2 -9 -17 4 -13 3 -20 -2 -17 -5 3 -10 -3 -10 -14
-2 -18 1 -17 19 7 20 25 22 25 34 9 9 -12 19 -15 31 -10 12 5 14 9 6 12 -7 3
-13 14 -12 26 0 21 1 21 8 2 5 -11 13 -21 20 -21 24 -3 24 -4 5 -19 -16 -13
-16 -14 -1 -9 21 8 23 -12 2 -33 -17 -16 -16 -34 2 -40 10 -4 30 51 25 68 0 3
10 4 24 1 19 -3 22 -7 12 -13 -10 -7 -10 -9 0 -9 7 0 22 16 34 37 12 20 24 31
26 25 2 -6 -8 -31 -22 -55 -14 -24 -23 -46 -20 -50 9 -9 -6 -46 -27 -65 -11
-11 -19 -31 -18 -53 0 -19 0 -52 0 -74 0 -24 -6 -44 -15 -50 -8 -6 -17 -24
-20 -39 -3 -16 -8 -31 -12 -35 -4 -3 -4 2 -1 12 5 12 1 17 -12 17 -22 0 -45
-25 -36 -40 3 -5 0 -10 -8 -10 -15 0 -32 27 -28 43 1 5 -3 6 -8 3 -5 -4 -11
-2 -13 4 -2 6 -9 1 -16 -11 -8 -12 -9 -18 -3 -14 12 7 12 6 16 -40 2 -16 4
-32 5 -35 1 -3 2 -8 1 -13 -1 -8 58 -23 74 -18 5 1 1 -7 -9 -18 -14 -15 -22
-18 -32 -10 -10 8 -12 4 -9 -20 4 -28 2 -30 -15 -21 -18 10 -20 7 -20 -24 0
-39 -18 -57 -31 -33 -8 13 -62 47 -76 47 -1 0 -3 -7 -3 -16 0 -10 6 -14 15
-10 9 3 15 0 15 -10 0 -9 9 -18 19 -21 20 -5 20 -5 0 -26 -20 -22 -25 -37 -10
-37 16 0 -1 -50 -26 -75 -14 -14 -29 -25 -34 -25 -5 0 -6 -7 -4 -15 16 -49 15
-48 30 -35 9 7 26 10 41 6 17 -5 24 -3 19 4 -4 7 2 14 14 17 21 5 25 16 21 66
-1 17 5 34 16 41 12 9 17 25 16 50 -1 20 2 36 7 36 5 0 11 9 14 20 5 21 27 28
27 9 0 -5 5 -7 10 -4 6 3 10 18 10 33 0 15 4 34 10 42 8 12 10 12 16 -3 3 -9
10 -17 16 -17 5 0 7 4 3 9 -8 14 34 40 56 36 11 -2 17 0 14 6 -4 5 -11 7 -16
4 -5 -4 -9 0 -9 9 0 8 4 16 10 18 6 2 1 29 -12 66 -17 51 -19 65 -8 75 10 10
11 9 5 -2 -5 -9 2 -7 18 5 15 10 27 22 27 27 0 4 9 7 21 7 11 0 29 5 40 11 20
10 20 12 3 30 -15 17 -15 19 0 25 9 3 13 10 10 15 -3 5 2 6 10 3 12 -4 16 0
16 16 0 13 5 20 13 18 22 -8 18 -34 -8 -46 -14 -6 -25 -16 -25 -22 0 -6 10 -4
23 4 15 10 27 12 37 6 11 -7 11 -10 2 -10 -7 0 -11 -4 -7 -10 3 -5 -3 -18 -15
-30 -22 -22 -26 -35 -7 -24 10 6 10 4 0 -7 -19 -20 -16 -24 17 -25 17 -1 30 3
30 8 0 5 -4 7 -9 3 -19 -11 -20 13 -4 46 21 42 38 60 48 51 4 -4 6 5 3 20 -3
15 -1 25 3 22 10 -6 50 32 42 40 -4 3 2 15 12 26 10 11 13 20 7 20 -5 0 -8 9
-4 22 4 16 2 19 -8 13 -9 -5 -11 -4 -6 3 12 20 26 13 26 -12 0 -14 5 -28 11
-32 8 -5 8 -8 0 -13 -8 -5 -6 -13 5 -27 8 -10 13 -13 9 -7 -3 7 8 26 25 43 30
29 47 39 35 21 -3 -5 -1 -12 5 -16 13 -8 -2 -36 -45 -84 -33 -36 -33 -37 -13
-50 17 -10 19 -20 15 -53 -4 -31 -2 -38 9 -34 20 8 44 -4 44 -20 0 -8 -7 -17
-15 -20 -13 -5 -13 -10 0 -40 8 -19 11 -34 7 -34 -3 0 -1 -5 6 -12 7 -7 12
-16 12 -21 0 -11 -43 16 -71 44 -10 10 -29 19 -42 19 -20 0 -24 -5 -24 -32 0
-37 14 -61 30 -51 5 3 7 1 3 -5 -3 -5 -1 -12 6 -14 17 -6 -18 -78 -37 -78 -9
0 -12 -6 -8 -17 4 -14 3 -15 -6 -7 -9 8 -21 2 -48 -23 -40 -36 -63 -42 -63
-17 0 8 -7 23 -16 32 -15 15 -18 14 -30 -3 -13 -17 -19 -14 -15 8 1 5 -3 6 -8
3 -5 -3 -14 7 -21 23 -14 35 -35 46 -37 20 -1 -11 2 -17 7 -14 5 3 16 -8 25
-25 9 -17 25 -40 36 -51 19 -19 19 -19 -3 -41 l-21 -21 21 5 c20 6 21 5 7 -15
-8 -12 -15 -33 -15 -48 0 -15 -6 -32 -14 -38 -11 -9 -14 -4 -19 24 -7 45 -48
85 -93 92 -26 4 -32 8 -22 15 9 7 6 8 -10 5 -12 -3 -20 -1 -17 3 3 5 -4 14
-15 20 -19 10 -19 9 -8 -17 18 -41 30 -55 45 -49 14 6 83 -37 95 -58 8 -14 6
-36 -5 -53 -4 -6 -4 -18 -1 -27 5 -12 10 -13 26 -5 11 6 19 7 16 2 -26 -52
-32 -62 -40 -57 -8 5 -11 -4 -12 -45 -1 -30 -25 -40 -33 -13 -3 14 -11 18 -24
15 -13 -4 -19 0 -19 11 0 9 -8 19 -17 23 -10 3 -30 19 -44 35 -27 29 -59 38
-59 15 0 -7 15 -18 33 -26 21 -8 27 -15 18 -18 -11 -4 -9 -10 8 -22 12 -9 23
-27 24 -39 0 -12 7 -24 14 -26 17 -7 17 -26 0 -26 -8 0 -20 -11 -27 -26 l-14
-25 -33 36 c-18 20 -33 41 -33 47 0 7 -7 3 -15 -8 -10 -12 -14 -14 -12 -4 2 8
2 12 0 9 -5 -8 -44 1 -60 13 -7 5 -17 7 -22 4 -6 -4 -13 9 -17 29 -3 19 -10
35 -16 35 -5 0 -7 4 -3 9 3 5 1 12 -5 16 -5 3 -10 15 -10 26 0 10 -4 19 -9 19
-6 0 -8 -9 -6 -19 2 -11 -3 -22 -11 -25 -9 -3 -12 -11 -8 -18 4 -7 4 -10 0 -6
-5 4 -17 -2 -29 -13 -27 -25 -62 -26 -53 -2 4 10 4 14 0 10 -4 -4 -13 -2 -19
3 -7 6 -20 7 -30 4 -15 -6 -16 -9 -4 -18 17 -13 21 -46 7 -46 -6 0 -5 -7 2
-16 10 -11 24 -14 54 -9 63 10 76 15 76 31 0 9 7 14 18 12 9 -2 16 -11 14 -21
-2 -12 2 -15 13 -11 9 4 25 -2 35 -11 13 -11 20 -14 20 -6 0 7 5 9 13 4 6 -4
17 -8 22 -8 24 -2 46 -19 41 -31 -3 -8 -1 -14 5 -14 6 0 9 -7 5 -15 -3 -8 -2
-15 2 -15 12 0 12 -53 0 -90 -6 -19 -20 -41 -30 -50 -11 -9 -21 -31 -23 -52
-4 -42 -11 -58 -26 -58 -6 0 -7 5 -4 10 3 6 -1 10 -10 10 -9 0 -14 -4 -11 -9
13 -21 -95 -27 -174 -11 -25 6 -72 15 -105 21 -33 5 -70 17 -83 25 -12 8 -28
12 -35 8 -9 -5 -9 -4 0 6 10 11 18 10 45 -3 18 -9 34 -14 36 -13 1 2 4 17 7
35 3 30 -7 42 -20 20 -5 -7 -14 -4 -27 8 -11 9 -19 13 -18 8 5 -22 -1 -32 -26
-43 -31 -15 -59 -8 -143 31 -46 21 -60 32 -50 39 9 6 5 7 -12 3 -22 -6 -29 -1
-46 28 -14 23 -18 39 -12 50 6 10 5 18 -1 22 -5 3 -10 15 -10 26 0 11 -5 17
-10 14 -6 -3 -13 1 -17 11 -14 36 92 87 112 54 3 -6 -1 -13 -9 -16 -9 -3 -16
-10 -16 -15 0 -16 21 -9 42 14 11 12 17 16 13 10 -8 -17 5 -16 28 1 11 8 14
15 7 18 -6 2 0 13 14 26 14 12 26 19 26 16 0 -4 6 -2 13 4 7 6 18 7 26 3 9 -6
10 -11 2 -15 -6 -4 -11 -2 -11 5 0 19 -13 1 -17 -24 -2 -12 -8 -26 -13 -31
-14 -14 0 -36 24 -35 11 0 15 3 9 6 -7 2 -13 16 -13 29 0 14 3 23 8 21 12 -8
29 17 27 41 -1 12 5 28 14 35 12 9 13 9 7 0 -4 -7 -2 -13 3 -13 6 0 11 6 11
14 0 16 31 31 39 19 10 -14 61 -9 61 5 0 10 -8 12 -30 7 -34 -7 -42 10 -10 20
11 3 20 11 20 16 0 6 4 8 9 5 11 -7 36 22 28 31 -11 10 -83 -27 -113 -58 -32
-34 -44 -36 -44 -10 0 21 56 71 80 71 18 0 22 40 6 53 -7 5 -1 7 12 4 18 -4
22 -2 18 9 -7 18 4 17 28 -1 19 -14 19 -15 1 -35 -12 -14 -14 -20 -5 -20 22 0
39 32 29 57 -6 17 -5 23 6 23 7 0 17 -5 21 -11 4 -8 10 -6 17 6 6 11 12 13 16
7 4 -6 14 2 23 19 9 16 13 29 7 29 -6 0 -7 6 -2 13 8 13 10 18 12 42 0 8 5 15
10 15 6 0 22 11 37 25 15 14 29 23 32 20 3 -3 -3 -13 -14 -22 -18 -17 -30 -43
-19 -43 24 0 95 102 95 135 0 14 4 25 10 25 5 0 6 7 3 17 -4 10 -2 14 4 10 11
-7 73 67 73 86 0 5 -11 6 -24 3 -16 -4 -37 1 -59 14 l-35 21 -5 -21 c-3 -11
-1 -20 4 -20 16 0 10 -25 -11 -47 -14 -15 -16 -23 -7 -27 8 -3 9 -7 2 -13 -6
-4 -17 -21 -25 -37 -8 -16 -26 -36 -40 -44 -14 -9 -35 -25 -47 -36 -13 -11
-23 -15 -23 -9 0 6 7 16 15 23 8 7 21 24 28 39 13 26 13 28 -15 39 -15 5 -28
7 -28 2 0 -5 6 -10 12 -12 7 -3 2 -7 -10 -10 -12 -4 -20 -2 -16 3 3 5 1 9 -5
9 -5 0 -11 -5 -13 -11 -5 -14 -78 -23 -78 -9 0 14 -33 13 -49 -2 -11 -11 -13
-10 -7 5 3 10 6 25 6 32 0 7 19 23 42 35 24 12 58 35 75 51 27 23 37 27 57 19
13 -5 26 -7 28 -4 3 2 20 5 38 7 21 3 40 13 48 26 19 28 -3 29 -33 1 l-22 -20
-18 20 c-18 19 -18 20 2 20 26 0 37 45 17 65 -8 7 -14 18 -14 23 0 6 -6 12
-12 15 -9 3 -6 11 9 26 33 32 91 61 108 55 18 -7 15 0 21 -58 5 -41 3 -48 -10
-43 -10 4 -16 1 -16 -9 0 -18 27 -12 78 17 36 20 46 23 39 12 -3 -5 10 -16 28
-25 l34 -17 19 39 19 39 -32 74 c-43 99 -49 126 -30 133 8 3 12 10 9 15 -6 10
9 12 19 2z m185 -65 c-2 -6 -10 -13 -16 -14 -7 -1 -8 0 -2 3 5 2 8 9 4 14 -3
5 0 9 6 9 7 0 10 -5 8 -12z m106 -79 c11 18 26 13 26 -9 0 -15 -7 -20 -25 -20
-19 0 -25 5 -25 23 0 16 3 18 9 8 6 -9 11 -10 15 -2z m609 -356 c13 5 39 -18
30 -26 -8 -8 7 -48 16 -42 4 2 17 -4 27 -14 11 -9 25 -16 32 -13 12 4 16 -9
13 -36 -1 -8 5 -22 14 -32 8 -9 13 -24 10 -33 -4 -10 1 -17 13 -21 31 -10 35
-35 10 -57 -13 -10 -26 -18 -30 -19 -5 0 -8 -7 -8 -16 0 -8 4 -13 9 -10 5 3
15 -2 22 -11 11 -13 11 -17 2 -20 -7 -3 -13 -17 -13 -32 0 -16 -11 -40 -25
-55 -23 -25 -25 -25 -25 -7 0 11 8 25 18 31 15 10 14 10 -5 5 -13 -4 -26 0
-35 10 -7 9 -21 25 -30 36 -10 10 -18 24 -18 30 0 6 -6 9 -14 6 -23 -9 -12 22
15 40 13 9 36 27 52 41 15 14 27 22 27 18 0 -4 5 -4 10 -1 7 4 6 13 -1 26 -12
22 -56 23 -51 1 1 -8 -2 -11 -9 -6 -8 5 -10 2 -6 -8 4 -12 1 -14 -15 -10 -18
4 -20 2 -14 -21 5 -21 3 -27 -10 -27 -9 0 -32 -9 -50 -21 -19 -11 -37 -18 -42
-15 -5 3 -7 25 -6 50 2 34 -1 44 -11 40 -8 -3 -12 1 -12 12 1 11 -7 20 -23 24
-16 4 -21 8 -13 13 7 5 22 3 33 -3 17 -9 20 -8 20 9 0 25 -20 38 -31 20 -6 -9
-8 -4 -6 16 1 21 -3 30 -13 30 -8 0 -14 -6 -12 -13 2 -10 -2 -10 -18 0 -18 12
-18 14 -4 36 17 26 6 24 -28 -5 -9 -9 -31 -13 -54 -11 -36 3 -37 4 -20 21 10
9 28 17 40 17 30 0 116 38 116 50 0 18 22 10 27 -10 3 -13 17 -22 39 -26 19
-3 31 -10 28 -15 -3 -5 0 -9 6 -9 7 0 9 7 6 16 -3 9 -6 22 -6 29 0 8 -7 11
-20 8 -11 -3 -20 -1 -20 4 0 18 13 22 32 12 11 -6 25 -9 31 -6z m-293 -7 c0
-3 -4 -8 -10 -11 -5 -3 -10 -1 -10 4 0 6 5 11 10 11 6 0 10 -2 10 -4z m-70
-38 c0 -4 -7 -8 -15 -8 -8 0 -15 4 -15 8 0 5 7 9 15 9 8 0 15 -4 15 -9z
m-1130 -28 c0 -25 5 -25 38 0 18 15 28 17 33 9 4 -7 17 -9 29 -6 13 3 19 2 14
-3 -5 -5 -15 -10 -21 -12 -28 -7 -123 -105 -123 -126 0 -12 -6 -22 -12 -22 -7
0 -3 -8 9 -18 32 -25 11 -49 -42 -46 -27 1 -54 -6 -84 -22 -48 -27 -55 -29
-46 -14 3 6 2 10 -4 10 -5 0 -15 -8 -20 -17 -6 -10 -11 -15 -11 -10 0 4 6 16
12 27 10 16 10 24 1 40 -11 16 -10 18 1 14 8 -3 17 -1 21 5 8 14 -20 14 -45 1
-16 -8 -18 -7 -14 4 6 17 -12 31 -21 16 -3 -5 -11 -10 -16 -10 -6 0 3 14 19
30 17 17 38 30 47 30 9 0 29 6 43 14 30 15 59 28 115 50 20 8 39 22 42 31 3 8
7 22 10 30 7 22 25 18 25 -5z m247 -7 c5 -14 -39 -25 -50 -14 -5 5 -6 14 -3
20 8 13 49 8 53 -6z m1020 -63 c6 -12 17 -26 25 -31 7 -5 13 -14 13 -21 0 -7
10 -14 23 -16 24 -4 29 -17 10 -28 -7 -5 -8 -3 -3 6 6 10 3 12 -13 8 -13 -4
-23 0 -26 8 -3 8 -10 14 -16 14 -6 0 -9 -4 -6 -9 3 -5 0 -14 -8 -20 -11 -9
-14 -8 -12 6 0 10 -4 17 -9 16 -6 -1 -11 13 -10 30 0 20 5 31 13 30 6 -2 12 1
12 6 0 6 -9 9 -19 8 -11 0 -18 -4 -15 -8 2 -4 -1 -11 -8 -15 -7 -4 -10 -4 -6
1 4 4 2 15 -5 23 -8 11 -8 14 0 9 6 -4 15 -3 18 3 10 16 28 7 42 -20z m-1074
-30 c6 -22 0 -28 -42 -40 -26 -7 -29 -6 -29 19 0 29 13 41 44 41 13 0 24 -8
27 -20z m-85 -65 c-1 -13 -6 -21 -10 -19 -4 3 -8 -1 -8 -9 0 -8 -6 -17 -14
-20 -10 -4 -14 0 -13 14 1 10 4 19 7 19 12 0 7 30 -4 31 -6 0 -2 4 9 8 27 11
35 5 33 -24z m138 -7 c-13 -18 -16 -19 -16 -5 0 9 5 17 10 17 6 0 10 8 11 18
0 10 3 12 6 5 2 -7 -3 -23 -11 -35z m339 2 c3 -5 2 -10 -4 -10 -5 0 -13 5 -16
10 -3 6 -2 10 4 10 5 0 13 -4 16 -10z m655 -17 c0 -15 -2 -16 -10 -3 -8 13
-10 13 -10 -2 0 -25 37 -41 78 -34 30 4 41 0 76 -30 70 -60 71 -60 64 -42 -4
10 -1 19 8 22 21 8 43 -4 37 -20 -3 -9 -12 -13 -19 -10 -17 6 -17 4 -3 -28 6
-13 22 -27 35 -30 13 -4 24 -13 24 -21 0 -8 8 -19 18 -24 12 -6 19 -22 20 -40
0 -17 4 -36 8 -43 11 -18 12 -48 2 -54 -4 -3 -8 -13 -8 -22 0 -9 -13 -26 -29
-37 -16 -10 -27 -23 -25 -27 3 -4 -1 -5 -9 -2 -8 3 -23 -5 -33 -18 -20 -25
-63 -58 -76 -58 -5 0 -8 6 -8 14 0 8 -7 16 -15 20 -8 3 -15 17 -15 31 0 37
-29 78 -45 65 -10 -8 -15 -6 -20 9 -6 19 -17 25 -37 22 -5 0 -8 4 -8 9 0 6 -6
10 -14 10 -8 0 -17 7 -20 16 -3 8 -14 14 -25 12 -11 -2 -32 11 -52 32 -20 21
-41 34 -51 32 -10 -2 -18 -5 -18 -7 0 -10 29 -68 30 -57 0 16 15 16 32 0 7 -7
22 -15 33 -16 11 -2 25 -8 30 -14 7 -8 6 -9 -2 -4 -8 4 -7 -2 2 -21 12 -23 12
-29 2 -31 -10 -2 -12 -19 -9 -62 5 -70 -10 -116 -38 -116 -11 0 -20 6 -20 12
0 7 -9 16 -20 19 -11 3 -20 15 -20 26 0 11 -24 43 -53 72 -29 28 -57 61 -61
72 -5 11 -10 15 -13 9 -5 -14 -49 -6 -64 12 -8 10 -8 14 -1 14 6 0 9 6 6 14
-7 19 -64 18 -64 0 0 -19 41 -65 52 -58 4 3 8 0 8 -6 0 -7 6 -10 14 -7 8 3 21
-4 30 -18 20 -31 20 -45 -1 -45 -14 0 -15 -2 -1 -17 8 -10 18 -30 22 -45 6
-26 29 -35 69 -29 4 0 7 -6 7 -15 0 -8 7 -22 16 -31 13 -13 13 -18 2 -28 -22
-21 -185 -46 -339 -52 -138 -5 -146 -5 -147 13 -2 43 24 133 55 192 18 35 32
67 30 71 -1 5 15 24 35 43 28 27 43 34 62 31 16 -3 26 -1 26 6 0 6 12 16 26
21 15 6 25 17 23 27 -4 41 0 47 20 29 14 -13 24 -14 45 -7 14 6 26 13 26 16 0
4 -4 3 -10 0 -5 -3 -10 3 -10 14 0 11 5 23 12 27 7 5 9 2 5 -9 -3 -9 1 -18 9
-21 26 -10 33 -7 29 14 -5 26 16 35 44 20 28 -15 28 6 0 36 -19 20 -20 27 -10
57 9 28 17 34 39 34 37 0 84 12 99 25 7 5 24 7 38 4 25 -6 57 12 54 31 -3 17
1 23 16 23 8 0 15 -8 15 -17z m-1560 -18 c0 -14 5 -25 10 -25 7 0 6 -8 -2 -22
-7 -13 -11 -29 -9 -37 1 -7 -2 -10 -7 -7 -6 3 -12 -1 -16 -9 -9 -23 -30 -18
-54 15 -27 36 -28 60 -2 67 11 3 17 9 14 14 -10 16 7 29 37 29 24 0 29 -4 29
-25z m535 15 c3 -5 1 -10 -4 -10 -6 0 -11 5 -11 10 0 6 2 10 4 10 3 0 8 -4 11
-10z m711 -15 c3 -8 -1 -21 -9 -29 -12 -13 -14 -11 -13 15 1 31 13 39 22 14z
m-965 -84 c-14 -16 -29 -24 -32 -19 -4 5 -16 -6 -28 -26 -32 -52 -44 -44 -14
9 22 40 47 57 94 64 4 1 -5 -12 -20 -28z m-176 -71 c3 -6 -1 -7 -9 -4 -18 7
-21 14 -7 14 6 0 13 -4 16 -10z m-94 -43 c-10 -9 -11 -8 -5 6 3 10 9 15 12 12
3 -3 0 -11 -7 -18z m146 -39 c-3 -7 -5 -2 -5 12 0 14 2 19 5 13 2 -7 2 -19 0
-25z m-34 -10 c6 -20 -6 -31 -52 -47 -38 -12 -58 -14 -48 -4 4 3 2 12 -3 19
-8 9 -4 17 14 32 32 24 83 24 89 0z m104 -22 c-4 -9 -11 -16 -17 -16 -11 0
-14 33 -3 44 11 10 26 -11 20 -28z m1100 -181 c0 -8 -4 -15 -9 -15 -10 0 -11
14 -1 23 9 10 10 9 10 -8z m-1070 -121 c-5 -5 -57 13 -57 20 0 3 14 0 31 -6
16 -6 28 -12 26 -14z m63 -19 c19 -7 28 -14 20 -14 -8 0 -28 6 -45 14 -39 17
-21 18 25 0z"/>
<path d="M1267 1255 c5 -14 3 -17 -10 -12 -9 3 -17 2 -17 -3 0 -12 37 -13 44
-1 3 5 -1 14 -9 21 -13 11 -14 10 -8 -5z"/>
<path d="M1431 1224 c0 -11 3 -14 6 -6 3 7 2 16 -1 19 -3 4 -6 -2 -5 -13z"/>
<path d="M1713 1218 c-2 -16 0 -19 6 -9 5 7 14 10 20 7 6 -4 11 0 11 8 0 26
-36 19 -37 -6z"/>
<path d="M1682 1133 c-5 -10 -6 -27 -2 -38 6 -17 8 -15 15 13 8 38 1 52 -13
25z"/>
<path d="M1074 888 c-3 -4 2 -8 11 -8 12 0 15 -6 11 -22 -3 -13 -3 -18 0 -11
3 7 11 10 19 7 17 -7 30 15 16 29 -13 13 -50 17 -57 5z"/>
<path d="M1041 871 c-8 -5 -9 -11 -3 -15 5 -3 12 1 16 9 6 17 6 18 -13 6z"/>
<path d="M1147 861 c-3 -14 -1 -18 9 -14 10 4 14 -3 14 -21 0 -26 13 -35 25
-16 3 6 -1 17 -9 25 -8 9 -13 22 -10 30 4 9 0 15 -9 15 -8 0 -17 -9 -20 -19z"/>
<path d="M1270 639 c0 -5 5 -7 10 -4 6 3 10 8 10 11 0 2 -4 4 -10 4 -5 0 -10
-5 -10 -11z"/>
<path d="M1030 510 c-12 -8 -11 -10 7 -10 12 0 25 5 28 10 8 13 -15 13 -35 0z"/>
<path d="M1016 481 c-4 -5 3 -7 14 -4 23 6 26 13 6 13 -8 0 -17 -4 -20 -9z"/>
<path d="M793 466 c3 -7 0 -19 -6 -25 -8 -8 -7 -11 5 -11 21 0 30 37 11 44
-10 4 -13 2 -10 -8z"/>
<path d="M1028 453 c7 -3 16 -2 19 1 4 3 -2 6 -13 5 -11 0 -14 -3 -6 -6z"/>
<path d="M980 420 c0 -5 5 -10 10 -10 6 0 10 5 10 10 0 6 -4 10 -10 10 -5 0
-10 -4 -10 -10z"/>
<path d="M910 410 c0 -5 6 -10 13 -10 8 0 9 -3 1 -8 -6 -4 -14 -22 -17 -40 -6
-31 -6 -32 10 -16 16 15 17 15 23 -1 5 -15 8 -14 23 8 23 35 22 51 -3 44 -13
-3 -21 1 -25 14 -7 20 -25 26 -25 9z"/>
<path d="M2130 1020 c0 -12 7 -20 16 -20 13 0 14 3 5 13 -6 8 -8 17 -4 20 3 4
1 7 -5 7 -7 0 -12 -9 -12 -20z"/>
<path d="M616 903 c2 -6 -4 -14 -12 -17 -8 -3 -14 0 -14 6 0 6 -3 9 -6 5 -3
-3 -3 -15 1 -27 l7 -21 24 23 c23 22 33 45 15 34 -5 -4 -11 -3 -14 1 -2 5 -2
3 -1 -4z"/>
<path d="M2003 936 c0 -11 1 -15 4 -8 3 6 9 10 14 6 5 -3 9 -1 9 4 0 21 -26
19 -27 -2z"/>
<path d="M1850 710 c8 -5 22 -9 30 -9 10 0 8 3 -5 9 -27 12 -43 12 -25 0z"/>
<path d="M1821 674 c0 -11 3 -14 6 -6 3 7 2 16 -1 19 -3 4 -6 -2 -5 -13z"/>
<path d="M2070 650 c0 -5 5 -10 11 -10 5 0 7 5 4 10 -3 6 -8 10 -11 10 -2 0
-4 -4 -4 -10z"/>
<path d="M1533 419 c1 -18 7 -20 38 -17 21 2 35 0 33 -4 -3 -5 2 -8 10 -8 26
0 18 18 -14 35 -42 22 -69 20 -67 -6z"/>
<path d="M1445 411 c-3 -6 -11 -9 -16 -6 -5 4 -9 2 -9 -4 0 -18 17 -21 30 -6
7 9 10 18 7 21 -3 3 -8 0 -12 -5z"/>
</g>
</svg>
