<?xml version="1.0" standalone="no"?>
<!DOCTYPE svg PUBLIC "-//W3C//DTD SVG 20010904//EN"
 "http://www.w3.org/TR/2001/REC-SVG-20010904/DTD/svg10.dtd">
<svg version="1.0" xmlns="http://www.w3.org/2000/svg"
 width="255.000000pt" height="197.000000pt" viewBox="0 0 255.000000 197.000000"
 preserveAspectRatio="xMidYMid meet">

<g transform="translate(0.000000,197.000000) scale(0.100000,-0.100000)"
fill="#000000" stroke="none">
<path d="M0 1955 c0 -12 16 -15 85 -15 47 0 85 -4 85 -8 0 -5 -38 -6 -85 -4
l-85 4 0 -57 0 -57 30 6 c17 3 72 11 123 17 50 6 99 18 108 25 8 8 21 14 27
14 7 0 12 5 12 10 0 6 -11 10 -25 10 -14 0 -25 5 -25 10 0 6 28 10 65 10 54 0
68 -4 83 -21 23 -27 90 -62 108 -55 28 11 13 34 -36 55 -28 12 -48 26 -45 31
4 6 234 10 605 10 l599 0 7 -37 c4 -21 8 -49 8 -61 1 -22 12 -27 116 -59 333
-100 559 -273 639 -486 34 -94 25 -239 -22 -332 -102 -204 -399 -385 -748
-454 -215 -43 -417 -51 -633 -26 -183 21 -464 93 -451 115 3 5 -5 6 -17 3 -19
-4 -20 -3 -8 7 12 9 11 10 -6 5 -14 -4 -24 0 -27 10 -4 9 -13 12 -23 8 -12 -4
-15 -3 -10 5 5 8 1 10 -10 5 -13 -5 -15 -3 -9 7 6 10 4 12 -8 7 -10 -3 -17 -2
-17 4 0 6 -4 8 -9 4 -5 -3 -16 1 -24 9 -8 8 -17 13 -19 10 -3 -2 -11 2 -18 11
-7 8 -19 15 -26 15 -8 0 -13 6 -11 12 1 7 -6 12 -15 10 -9 -1 -19 2 -23 8 -3
5 -1 10 5 10 7 0 8 6 0 19 -13 26 -13 31 3 31 7 0 13 9 13 19 0 11 -4 17 -9
14 -7 -4 0 42 9 58 2 4 20 14 41 24 36 17 37 17 55 -5 10 -12 18 -31 18 -41 0
-10 7 -19 15 -19 8 0 15 4 15 10 0 17 39 31 58 21 12 -6 23 -5 37 5 10 8 15
14 11 14 -4 0 -1 7 8 15 14 15 30 13 73 -7 16 -8 31 -7 54 2 l31 13 -23 18
c-13 10 -20 19 -16 19 5 0 23 -15 39 -32 l31 -33 -5 32 -4 32 30 -25 c17 -13
36 -29 43 -34 16 -14 26 -13 17 2 -4 7 -3 8 4 4 7 -4 12 -14 12 -21 0 -8 9
-19 20 -25 11 -6 20 -17 20 -25 0 -8 9 -15 20 -15 17 0 19 3 11 19 -6 10 -17
21 -26 25 -8 3 -15 11 -15 18 0 9 3 8 10 -2 7 -10 10 -11 10 -2 0 7 -8 16 -17
19 -24 9 -33 23 -33 53 0 18 -3 21 -9 11 -6 -10 -19 -11 -52 -5 -24 4 -55 9
-69 10 -14 1 -34 2 -46 3 -12 0 -26 11 -32 24 -6 12 -11 17 -11 10 -1 -7 -7
-10 -15 -7 -10 4 2 22 40 60 30 30 59 52 64 49 6 -3 29 7 52 23 24 16 53 32
66 36 12 4 20 11 17 15 -5 10 29 44 37 36 2 -3 10 6 17 19 7 13 25 29 39 35
19 9 22 15 14 23 -7 7 -12 16 -12 22 0 5 6 1 14 -10 14 -18 15 -18 58 11 24
17 61 39 83 48 40 18 45 21 100 57 17 11 41 20 55 19 23 0 23 -1 5 -9 -11 -5
-29 -11 -40 -15 l-20 -7 20 -8 c12 -4 26 -3 34 4 8 6 35 9 61 8 27 -2 51 1 54
7 5 8 13 8 27 1 24 -13 25 -31 2 -24 -15 5 -16 4 -3 -5 8 -6 29 -8 47 -5 24 5
40 0 65 -17 18 -13 35 -27 36 -32 2 -4 10 -3 18 4 11 9 18 8 31 -2 11 -10 17
-11 20 -3 2 7 13 4 28 -10 21 -19 22 -22 7 -28 -14 -5 -13 -7 6 -7 14 -1 22 5
23 17 0 9 23 35 50 57 27 22 58 48 69 58 25 21 34 21 65 1 14 -9 34 -14 45
-11 10 3 24 -1 31 -9 6 -8 8 -14 3 -14 -4 0 1 -6 12 -14 17 -13 20 -12 31 7 9
15 12 17 13 7 0 -9 -4 -20 -10 -26 -7 -7 0 -22 19 -44 26 -31 35 -35 77 -35
33 0 49 -4 52 -15 5 -13 3 -13 -12 -1 -9 8 -20 10 -24 6 -4 -4 -1 -10 6 -12
10 -4 10 -8 1 -19 -16 -19 -29 -18 -50 7 -10 11 -23 18 -28 15 -14 -9 -54 32
-47 49 2 7 -3 19 -12 27 -16 12 -16 11 -3 -7 8 -11 1 -5 -17 13 -44 46 -80 43
-49 -3 7 -11 24 -38 36 -60 l23 -40 -32 35 c-21 22 -34 30 -37 23 -3 -7 -14
-13 -26 -13 -12 0 -30 -7 -39 -14 -16 -11 -12 -15 35 -36 29 -13 70 -27 91
-30 50 -7 57 -26 12 -34 -33 -6 -110 19 -101 34 2 3 -5 7 -16 7 -10 1 -19 -2
-19 -8 0 -5 6 -9 14 -9 7 0 16 -10 20 -22 8 -32 7 -53 -1 -44 -4 4 -8 15 -8
24 0 13 -10 17 -45 18 -41 2 -42 1 -10 -5 27 -4 35 -11 36 -27 1 -22 -10 -25
-33 -11 -7 5 -13 4 -13 -2 0 -5 -8 -17 -17 -27 -10 -9 -18 -24 -19 -32 -2 -8
-10 -22 -20 -31 -15 -15 -16 -15 -11 2 11 32 -8 18 -21 -15 -10 -27 -14 -30
-22 -18 -8 13 -11 11 -16 -7 -4 -13 -12 -23 -19 -23 -7 0 -15 -5 -17 -10 -2
-6 -13 -12 -26 -13 -13 -1 -21 -6 -18 -14 5 -13 -60 -37 -76 -27 -4 3 -8 -1
-8 -10 0 -8 -6 -16 -12 -19 -10 -3 -9 -8 2 -22 16 -20 17 -20 -39 3 -10 4 -13
1 -8 -11 3 -8 1 -17 -6 -20 -6 -2 -12 -13 -12 -25 0 -12 -3 -22 -7 -22 -37 0
-40 1 -34 16 6 15 4 15 -18 1 -17 -12 -26 -13 -28 -5 -6 16 -28 1 -28 -18 0
-11 9 -15 33 -13 53 3 66 0 78 -22 9 -17 8 -20 -3 -13 -7 4 -5 -2 5 -13 19
-22 14 -35 -11 -26 -11 5 -14 2 -9 -10 4 -11 -1 -20 -14 -28 -16 -8 -18 -13
-9 -25 14 -15 5 -49 -9 -39 -19 11 -19 -12 0 -28 22 -20 36 -22 41 -6 3 8 16
6 43 -6 37 -15 39 -17 22 -30 -28 -20 -7 -25 67 -14 74 10 89 16 81 29 -8 13
5 38 23 45 10 3 23 -3 37 -18 l20 -25 85 25 c103 29 231 85 241 104 4 8 10 26
14 41 5 27 35 40 35 16 0 -6 8 -4 19 6 11 10 31 16 45 14 40 -5 161 118 209
213 70 138 73 262 7 395 -29 59 -104 156 -118 151 -4 -1 -44 24 -89 56 -68 48
-176 105 -333 175 -54 25 34 -1 105 -30 86 -36 184 -93 261 -153 l59 -47 -49
47 c-215 202 -717 328 -1141 286 -368 -37 -659 -154 -845 -340 -74 -74 -102
-120 -137 -221 -55 -160 -8 -313 141 -463 39 -39 64 -68 58 -66 -7 2 -46 38
-88 79 -81 80 -137 175 -153 260 -7 37 -9 27 -7 -51 2 -68 7 -103 19 -119 8
-12 13 -29 10 -38 -5 -11 -3 -13 7 -7 10 6 12 4 7 -9 -19 -50 140 -293 277
-423 78 -74 254 -203 278 -203 4 0 5 -7 2 -15 -3 -8 -9 -14 -12 -13 -20 4 -42
-16 -37 -32 5 -15 1 -17 -17 -13 -21 4 -20 2 7 -21 17 -14 27 -26 23 -26 -14
0 -78 42 -78 52 0 5 -4 7 -9 3 -11 -6 -228 93 -385 176 -55 29 -96 47 -92 40
4 -6 31 -23 59 -37 58 -29 91 -59 82 -74 -8 -13 40 -31 62 -24 14 5 15 4 4 -4
-11 -8 -11 -11 0 -18 7 -4 14 -3 16 3 3 7 29 -3 64 -24 69 -41 90 -63 30 -32
-22 11 -45 18 -51 14 -5 -3 -7 0 -4 8 5 15 -21 31 -37 22 -4 -3 -55 19 -113
50 -57 30 -107 55 -110 55 -3 0 -6 -18 -6 -40 0 -30 5 -42 18 -47 9 -3 42 -18
72 -31 30 -14 62 -26 70 -27 18 -2 80 -33 80 -40 0 -2 -7 -2 -15 1 -11 4 -15
0 -15 -16 0 -21 -2 -20 -37 11 -31 27 -148 89 -168 89 -4 0 -5 -21 -3 -48 l3
-47 64 -31 c35 -18 67 -37 71 -44 4 -7 12 -10 17 -7 6 4 23 -7 38 -23 28 -29
31 -30 124 -30 87 1 94 2 71 14 -25 14 -116 96 -106 96 15 0 86 -44 121 -75
l39 -34 828 -1 c651 0 828 2 828 12 0 27 -25 118 -32 118 -5 0 -8 9 -8 20 0
21 -39 132 -49 140 -4 3 -12 18 -19 34 -13 29 -12 30 91 130 57 56 114 116
128 135 13 19 33 46 44 60 11 14 27 39 35 54 8 16 16 24 18 19 2 -6 14 1 28
15 19 19 22 28 14 33 -7 4 9 5 35 3 33 -4 50 -2 55 7 5 7 18 14 29 15 12 1 28
10 36 21 15 19 15 19 30 0 13 -18 15 27 15 420 l0 439 -168 1 c-133 1 -185 6
-257 23 -121 29 -224 61 -230 71 -3 5 -12 7 -20 3 -8 -3 -15 0 -15 7 0 6 -5 8
-10 5 -5 -3 -10 -1 -10 4 0 6 -4 11 -10 11 -18 0 -163 130 -155 139 3 3 20
-11 38 -30 51 -56 60 -60 96 -48 17 6 31 15 31 19 0 4 36 20 81 34 66 21 99
26 189 26 81 0 109 -3 113 -13 3 -9 16 -12 36 -9 19 2 31 0 31 -7 0 -12 32
-15 43 -4 4 3 2 12 -4 20 -22 26 35 13 69 -16 30 -26 38 -28 70 -19 61 15 82
29 82 55 l0 23 -1275 0 c-1127 0 -1275 -2 -1275 -15z m210 -25 c0 -5 -4 -10
-10 -10 -5 0 -10 5 -10 10 0 6 5 10 10 10 6 0 10 -4 10 -10z m55 3 c-11 -3
-23 -10 -27 -17 -5 -7 -8 -7 -8 0 0 16 11 24 34 23 20 -1 20 -1 1 -6z m-170
-33 c-3 -5 -10 -10 -16 -10 -5 0 -9 5 -9 10 0 6 7 10 16 10 8 0 12 -4 9 -10z
m1003 -443 c8 -10 6 -13 -10 -14 -12 -1 -24 -7 -28 -13 -4 -6 -13 -10 -20 -8
-8 2 -14 -3 -15 -9 0 -13 -38 -44 -58 -47 -21 -4 -57 -31 -57 -43 0 -7 -9 -17
-20 -23 -15 -8 -21 -6 -30 10 -16 30 -8 64 15 69 11 2 31 11 45 21 14 10 43
23 65 29 22 6 51 18 65 26 31 18 35 18 48 2z m242 -21 c0 -2 -9 -6 -20 -9 -11
-3 -20 -1 -20 4 0 5 9 9 20 9 11 0 20 -2 20 -4z m-505 -106 c-3 -5 -2 -10 3
-10 5 0 12 -9 15 -20 3 -11 1 -18 -4 -14 -5 3 -9 -2 -9 -10 0 -8 -6 -13 -13
-10 -7 2 -23 -7 -35 -21 -12 -14 -27 -25 -33 -25 -5 0 -8 -4 -5 -8 3 -5 -5 -8
-17 -7 -12 1 -23 9 -25 18 -5 24 17 59 33 53 7 -2 19 2 25 10 7 8 19 14 26 14
8 0 14 6 14 14 0 12 10 20 28 25 2 1 0 -3 -3 -9z m1000 -70 c3 -6 -1 -7 -9 -4
-18 7 -21 14 -7 14 6 0 13 -4 16 -10z m115 -30 c0 -5 -4 -10 -10 -10 -5 0 -10
5 -10 10 0 6 5 10 10 10 6 0 10 -4 10 -10z m-1221 -44 c-12 -10 -59 -15 -59
-6 0 5 14 10 32 10 17 0 29 -2 27 -4z m1295 -78 c31 -23 56 -46 56 -51 0 -10
-29 9 -42 28 -4 6 -8 6 -8 1 0 -5 -9 3 -21 18 -19 24 -58 38 -44 16 7 -11 -18
-14 -28 -4 -6 6 13 33 24 34 4 0 32 -19 63 -42z m-1527 -4 c-3 -3 -12 -4 -19
-1 -8 3 -5 6 6 6 11 1 17 -2 13 -5z m1332 -17 c6 -8 8 -16 5 -20 -3 -3 3 -12
15 -19 25 -15 27 -36 5 -53 -15 -10 -15 -13 0 -28 15 -15 15 -17 -1 -25 -10
-5 -24 -7 -32 -4 -10 3 -12 0 -8 -11 3 -9 2 -19 -3 -22 -6 -4 -10 -13 -10 -21
0 -7 -38 -52 -84 -98 -60 -59 -88 -81 -97 -75 -8 5 -26 9 -40 9 -14 0 -34 9
-44 20 -10 11 -25 20 -33 20 -12 0 -10 6 8 25 13 14 27 25 32 25 4 0 27 14 50
30 22 17 46 30 52 30 11 0 17 10 49 75 8 17 26 43 41 58 14 15 26 30 26 33 0
11 41 64 49 64 5 0 14 -6 20 -13z m171 -7 c-6 -4 -11 -10 -11 -14 3 -20 -1
-25 -16 -19 -16 6 -16 5 -4 -10 12 -15 12 -17 -2 -11 -14 5 -15 1 -7 -25 6
-21 5 -31 -3 -35 -7 -2 -4 -5 5 -5 20 -1 14 -28 -6 -28 -9 0 -12 11 -9 33 2
21 -5 46 -19 70 l-22 37 43 -6 c38 -5 41 -4 29 11 -10 12 -10 14 0 8 7 -4 12
-2 12 4 0 6 5 8 11 4 8 -5 8 -9 -1 -14z m-1470 -11 c0 -6 -11 -24 -25 -41 -29
-34 -32 -26 -9 20 15 31 34 43 34 21z m104 -1 c-16 -28 -27 -37 -36 -31 -6 3
-1 14 13 24 29 22 33 23 23 7z m-204 -38 c0 -5 -4 -10 -10 -10 -5 0 -10 5 -10
10 0 6 5 10 10 10 6 0 10 -4 10 -10z m-299 -184 c73 -80 161 -144 284 -208
102 -54 107 -63 9 -18 -191 86 -335 213 -394 347 -31 70 -24 74 10 6 17 -33
58 -90 91 -127z m1919 150 c0 -3 -4 -8 -10 -11 -5 -3 -10 -1 -10 4 0 6 5 11
10 11 6 0 10 -2 10 -4z m-1265 -64 c-3 -3 -11 0 -18 7 -9 10 -8 11 6 5 10 -3
15 -9 12 -12z m735 -32 c0 -5 -5 -10 -11 -10 -5 0 -7 5 -4 10 3 6 8 10 11 10
2 0 4 -4 4 -10z m650 -10 c0 -15 -41 -48 -56 -46 -8 1 -14 5 -14 9 0 4 0 13 0
20 0 7 12 18 28 23 28 11 42 9 42 -6z m-258 -44 c-9 -19 -21 -32 -25 -29 -10
6 2 46 17 55 23 15 25 7 8 -26z m-99 -79 c3 -8 -7 -18 -24 -24 -23 -9 -29 -9
-29 2 0 8 8 19 18 24 23 14 29 13 35 -2z m-89 -93 c8 -3 12 -12 9 -20 -3 -8
-9 -11 -14 -8 -5 3 -6 10 -3 16 5 8 1 9 -10 5 -10 -4 -15 -3 -11 3 7 12 9 12
29 4z m-264 -29 c0 -8 8 -15 17 -15 9 0 13 -3 10 -7 -4 -3 -1 -13 6 -22 10
-14 10 -14 -4 -4 -9 7 -18 10 -22 7 -3 -3 -8 3 -11 14 -5 14 -13 18 -26 15
-11 -3 -20 -1 -20 5 0 9 15 17 43 21 4 0 7 -6 7 -14z m310 -50 c-7 -9 -15 -13
-17 -11 -7 7 7 26 19 26 6 0 6 -6 -2 -15z m-1099 -402 c13 -16 12 -17 -3 -4
-17 13 -22 21 -14 21 2 0 10 -8 17 -17z"/>
<path d="M1708 903 c7 -3 16 -2 19 1 4 3 -2 6 -13 5 -11 0 -14 -3 -6 -6z"/>
<path d="M1535 780 c-3 -5 -2 -10 4 -10 5 0 13 5 16 10 3 6 2 10 -4 10 -5 0
-13 -4 -16 -10z"/>
<path d="M2360 1890 c0 -5 5 -10 11 -10 5 0 7 5 4 10 -3 6 -8 10 -11 10 -2 0
-4 -4 -4 -10z"/>
<path d="M2535 1891 c-3 -5 -1 -12 5 -16 5 -3 10 1 10 9 0 18 -6 21 -15 7z"/>
<path d="M1935 1850 c3 -5 11 -10 16 -10 6 0 7 5 4 10 -3 6 -11 10 -16 10 -6
0 -7 -4 -4 -10z"/>
<path d="M713 1829 c11 -7 23 -7 35 0 14 9 11 10 -18 10 -29 0 -32 -1 -17 -10z"/>
<path d="M1830 1821 c0 -5 13 -14 30 -19 37 -14 52 4 15 18 -33 12 -45 13 -45
1z"/>
<path d="M2510 1815 c-7 -8 -22 -15 -34 -16 -11 0 -15 -3 -9 -6 17 -6 83 16
83 28 0 14 -26 11 -40 -6z"/>
<path d="M568 1803 c-21 -9 -38 -20 -38 -25 0 -4 18 1 40 12 22 11 40 23 40
25 0 3 -1 5 -2 4 -2 -1 -20 -8 -40 -16z"/>
<path d="M335 1732 c-50 -37 -116 -81 -147 -96 -32 -16 -58 -34 -58 -41 0 -8
-3 -21 -6 -30 -5 -13 -1 -15 26 -10 19 3 38 9 44 12 6 3 -19 -25 -56 -63 -90
-93 -138 -185 -137 -262 l1 -57 8 50 c20 137 135 288 300 395 41 27 89 60 106
74 18 14 42 26 55 26 33 0 57 16 44 29 -7 7 -32 -1 -78 -24 -76 -39 -77 -39
-77 -25 0 6 20 25 45 42 25 18 45 35 45 40 0 20 -32 3 -115 -60z"/>
<path d="M2186 1715 c-28 -12 -28 -12 -5 -18 24 -7 44 4 38 21 -2 5 -16 4 -33
-3z"/>
<path d="M0 1565 c0 -24 2 -25 55 -23 30 2 55 6 55 9 0 9 -42 27 -77 33 -30 5
-33 3 -33 -19z"/>
<path d="M1108 1347 c-2 -12 -7 -22 -13 -21 -10 0 -20 -7 -50 -34 -8 -7 -15
-10 -15 -6 0 4 -9 -2 -19 -13 -11 -11 -33 -27 -50 -34 -17 -8 -31 -20 -31 -26
0 -7 -6 -13 -12 -13 -7 0 -26 -11 -42 -25 -17 -14 -40 -28 -53 -31 -13 -4 -23
-12 -23 -20 0 -7 -8 -18 -17 -24 -14 -9 -11 -10 19 -5 24 4 41 1 50 -9 10 -10
19 -11 32 -4 15 8 17 7 14 -8 -3 -14 -12 -18 -31 -17 -17 1 -27 -3 -27 -12 0
-7 -3 -15 -7 -18 -5 -2 -2 -2 5 -1 6 2 12 -4 12 -14 0 -13 2 -14 9 -4 4 7 20
20 34 27 23 12 27 12 27 -1 0 -8 9 -14 19 -14 27 0 16 36 -17 58 l-24 16 22
18 c30 24 15 23 -27 -3 -18 -12 -33 -17 -32 -13 3 20 -2 28 -10 16 -7 -11 -9
-10 -14 3 -4 9 -3 14 1 11 5 -3 25 10 45 29 21 19 42 35 47 35 6 0 10 5 10 10
0 6 14 10 30 10 30 0 41 14 18 23 -9 4 -7 6 3 6 9 1 24 10 35 22 10 12 32 28
49 36 16 9 32 19 35 23 3 4 14 11 24 17 19 10 19 11 -2 22 -18 9 -21 8 -24
-12z"/>
<path d="M1477 1331 c-3 -12 -17 -21 -41 -25 -37 -7 -50 -26 -18 -26 11 -1 7
-6 -13 -17 -16 -9 -32 -19 -35 -22 -3 -3 -14 -8 -25 -9 -11 -2 -36 -17 -56
-33 -20 -16 -42 -29 -48 -29 -6 0 -11 -5 -11 -11 0 -6 -7 -8 -16 -5 -8 3 -12
2 -9 -4 4 -6 -5 -10 -20 -10 -21 0 -25 -4 -21 -18 6 -19 -28 -47 -44 -37 -6 3
-7 -1 -4 -9 3 -9 1 -16 -5 -16 -6 0 -11 5 -11 10 0 6 -7 10 -16 10 -14 0 -14
-3 -4 -16 8 -8 9 -14 4 -13 -21 4 -26 -2 -14 -16 15 -18 13 -20 -17 -29 -14
-5 -23 -3 -23 3 0 6 -4 11 -10 11 -5 0 -7 -7 -3 -16 4 -12 0 -14 -23 -8 -26 6
-27 5 -16 -8 10 -13 10 -17 0 -21 -7 -3 -2 -6 11 -6 20 -1 22 -4 16 -28 -8
-32 -41 -67 -55 -58 -5 3 -13 -3 -19 -12 -9 -16 -10 -16 -11 4 0 12 5 23 12
25 7 3 6 7 -5 11 -9 3 -17 2 -17 -4 0 -6 -4 -7 -10 -4 -16 10 -12 -25 5 -41
21 -21 19 -35 -5 -41 -26 -7 -26 -23 0 -18 12 2 23 -2 27 -11 4 -11 9 -12 19
-3 8 6 26 8 44 4 20 -4 30 -3 30 5 0 7 -6 10 -14 7 -8 -3 -20 0 -26 8 -9 11
-7 18 10 35 27 27 45 21 44 -13 0 -29 15 -38 17 -9 1 9 1 20 0 25 -2 15 42 6
72 -15 35 -25 67 -33 67 -18 0 6 -3 9 -7 8 -14 -5 -55 30 -49 41 4 5 1 13 -5
17 -8 5 -9 3 -4 -6 5 -9 4 -11 -3 -6 -22 13 -12 25 18 21 35 -4 44 5 24 23 -8
7 -14 8 -14 2 0 -5 -9 -10 -19 -10 -11 0 -26 -7 -35 -15 -17 -17 -36 -20 -36
-5 0 6 7 10 15 10 15 0 18 9 16 46 -3 28 46 67 76 61 24 -4 32 8 11 15 -8 3
-3 10 12 18 14 7 43 28 64 47 22 18 45 33 51 33 7 0 34 17 61 38 64 48 80 58
134 82 86 39 89 41 43 36 l-43 -4 0 44 c0 44 -14 60 -23 25z"/>
<path d="M1757 1313 c-4 -3 -7 -15 -7 -27 0 -20 0 -20 15 0 8 10 15 22 15 27
0 9 -14 9 -23 0z"/>
<path d="M1980 1286 c0 -2 7 -7 16 -10 8 -3 12 -2 9 4 -6 10 -25 14 -25 6z"/>
<path d="M1150 1270 c0 -5 5 -10 10 -10 6 0 10 5 10 10 0 6 -4 10 -10 10 -5 0
-10 -4 -10 -10z"/>
<path d="M1625 1260 c-3 -5 -1 -10 4 -10 6 0 11 5 11 10 0 6 -2 10 -4 10 -3 0
-8 -4 -11 -10z"/>
<path d="M1744 1242 c3 -6 0 -13 -6 -16 -7 -3 -4 -5 6 -3 21 2 25 19 5 26 -6
2 -9 -1 -5 -7z"/>
<path d="M1060 1220 c0 -5 5 -10 10 -10 6 0 10 5 10 10 0 6 -4 10 -10 10 -5 0
-10 -4 -10 -10z"/>
<path d="M1780 1215 c0 -8 2 -15 4 -15 2 0 6 7 10 15 3 8 1 15 -4 15 -6 0 -10
-7 -10 -15z"/>
<path d="M1015 1190 c3 -5 8 -10 11 -10 2 0 4 5 4 10 0 6 -5 10 -11 10 -5 0
-7 -4 -4 -10z"/>
<path d="M970 1160 c-13 -8 -12 -10 3 -10 9 0 17 5 17 10 0 12 -1 12 -20 0z"/>
<path d="M738 1103 c7 -3 16 -2 19 1 4 3 -2 6 -13 5 -11 0 -14 -3 -6 -6z"/>
<path d="M1395 1071 c-8 -14 10 -22 30 -15 13 5 14 8 3 15 -17 11 -26 11 -33
0z"/>
<path d="M1030 1035 c7 -8 20 -15 29 -15 13 1 13 3 -3 15 -26 19 -42 19 -26 0z"/>
<path d="M1295 1000 c-3 -6 1 -7 9 -4 9 3 16 1 16 -5 0 -6 -5 -11 -12 -11 -6
0 -9 -2 -6 -5 8 -9 36 5 42 21 6 16 -39 20 -49 4z"/>
<path d="M1215 960 c10 -11 23 -20 28 -20 6 0 1 9 -11 20 -12 11 -24 20 -28
20 -4 0 1 -9 11 -20z"/>
<path d="M1325 950 c-21 -23 -41 -26 -48 -7 -3 6 -4 0 -3 -16 3 -34 14 -45 22
-23 6 16 25 23 23 9 -3 -21 3 -29 21 -29 13 0 19 5 15 14 -3 7 -5 16 -5 18 0
2 -7 4 -15 4 -19 0 -19 9 2 32 9 10 14 18 11 18 -3 0 -13 -9 -23 -20z"/>
<path d="M847 924 c3 -7 9 -14 14 -14 14 0 10 17 -5 23 -10 4 -13 1 -9 -9z"/>
<path d="M1235 891 c-3 -5 -1 -12 5 -16 6 -4 7 -12 1 -22 -6 -11 -4 -21 4 -30
18 -18 21 -17 22 10 3 52 -15 85 -32 58z"/>
<path d="M1180 860 c0 -5 5 -10 11 -10 5 0 7 5 4 10 -3 6 -8 10 -11 10 -2 0
-4 -4 -4 -10z"/>
<path d="M595 750 c-3 -5 -1 -10 4 -10 6 0 11 5 11 10 0 6 -2 10 -4 10 -3 0
-8 -4 -11 -10z"/>
<path d="M1095 739 c-4 -6 -5 -12 -2 -15 2 -3 7 2 10 11 7 17 1 20 -8 4z"/>
<path d="M1320 640 c0 -5 5 -10 10 -10 6 0 10 5 10 10 0 6 -4 10 -10 10 -5 0
-10 -4 -10 -10z"/>
<path d="M555 630 c-3 -5 -1 -10 4 -10 6 0 11 5 11 10 0 6 -2 10 -4 10 -3 0
-8 -4 -11 -10z"/>
<path d="M1153 613 c-7 -2 -13 -9 -13 -15 0 -7 5 -7 13 1 8 6 18 7 22 3 5 -4
5 -1 1 6 -4 6 -8 12 -9 11 -1 0 -8 -3 -14 -6z"/>
<path d="M665 570 c3 -5 14 -10 23 -10 15 0 15 2 2 10 -20 13 -33 13 -25 0z"/>
<path d="M748 543 c7 -3 16 -2 19 1 4 3 -2 6 -13 5 -11 0 -14 -3 -6 -6z"/>
<path d="M1069 531 c8 -5 9 -10 2 -12 -20 -7 6 -31 30 -27 l24 3 -22 23 c-13
12 -29 22 -35 22 -10 0 -9 -3 1 -9z"/>
<path d="M2130 465 c-11 -13 -10 -14 4 -9 9 3 16 10 16 15 0 13 -6 11 -20 -6z"/>
<path d="M70 316 c0 -2 7 -7 16 -10 8 -3 12 -2 9 4 -6 10 -25 14 -25 6z"/>
<path d="M174 166 c11 -9 24 -16 30 -16 12 0 7 5 -24 19 -24 11 -24 11 -6 -3z"/>
</g>
</svg>
